G75*
%MOIN*%
%OFA0B0*%
%FSLAX25Y25*%
%IPPOS*%
%LPD*%
%AMOC8*
5,1,8,0,0,1.08239X$1,22.5*
%
%ADD10R,0.06000X0.06000*%
%ADD11OC8,0.06000*%
%ADD12C,0.01200*%
%ADD13R,0.06000X0.06000*%
%ADD14C,0.02400*%
%ADD15C,0.03600*%
%ADD16C,0.01600*%
%ADD17C,0.00800*%
D10*
X0054615Y0014615D03*
X0014615Y0064615D03*
X0015875Y0269064D03*
X0057115Y0304615D03*
X0264615Y0304615D03*
X0304615Y0259615D03*
X0302115Y0054615D03*
X0254615Y0014615D03*
D11*
X0244615Y0014615D03*
X0234615Y0014615D03*
X0292115Y0054615D03*
X0304615Y0239615D03*
X0304615Y0249615D03*
X0264615Y0294615D03*
X0217115Y0294615D03*
X0217115Y0304615D03*
X0207115Y0304615D03*
X0207115Y0294615D03*
X0197115Y0294615D03*
X0197115Y0304615D03*
X0187115Y0304615D03*
X0187115Y0294615D03*
X0177115Y0294615D03*
X0177115Y0304615D03*
X0167115Y0304615D03*
X0167115Y0294615D03*
X0157115Y0294615D03*
X0157115Y0304615D03*
X0147115Y0304615D03*
X0147115Y0294615D03*
X0137115Y0294615D03*
X0137115Y0304615D03*
X0127115Y0304615D03*
X0127115Y0294615D03*
X0077115Y0304615D03*
X0067115Y0304615D03*
X0025875Y0269064D03*
X0024615Y0182115D03*
X0014615Y0182115D03*
X0014615Y0172115D03*
X0024615Y0172115D03*
X0024615Y0162115D03*
X0024615Y0152115D03*
X0024615Y0142115D03*
X0024615Y0132115D03*
X0024615Y0122115D03*
X0014615Y0122115D03*
X0014615Y0132115D03*
X0014615Y0142115D03*
X0014615Y0152115D03*
X0014615Y0162115D03*
X0014615Y0084615D03*
X0014615Y0074615D03*
X0054615Y0024615D03*
D12*
X0114887Y0082150D02*
X0114287Y0081550D01*
X0114287Y0083538D01*
X0115692Y0084943D01*
X0117680Y0084943D01*
X0119085Y0083538D01*
X0119085Y0081550D01*
X0117680Y0080145D01*
X0115692Y0080145D01*
X0114287Y0081550D01*
X0115187Y0081923D01*
X0115187Y0083165D01*
X0116065Y0084043D01*
X0117307Y0084043D01*
X0118185Y0083165D01*
X0118185Y0081923D01*
X0117307Y0081045D01*
X0116065Y0081045D01*
X0115187Y0081923D01*
X0116087Y0082296D01*
X0116087Y0082792D01*
X0116438Y0083143D01*
X0116934Y0083143D01*
X0117285Y0082792D01*
X0117285Y0082296D01*
X0116934Y0081945D01*
X0116438Y0081945D01*
X0116087Y0082296D01*
X0100745Y0096292D02*
X0100145Y0095692D01*
X0100145Y0097680D01*
X0101550Y0099085D01*
X0103538Y0099085D01*
X0104943Y0097680D01*
X0104943Y0095692D01*
X0103538Y0094287D01*
X0101550Y0094287D01*
X0100145Y0095692D01*
X0101045Y0096065D01*
X0101045Y0097307D01*
X0101923Y0098185D01*
X0103165Y0098185D01*
X0104043Y0097307D01*
X0104043Y0096065D01*
X0103165Y0095187D01*
X0101923Y0095187D01*
X0101045Y0096065D01*
X0101945Y0096438D01*
X0101945Y0096934D01*
X0102296Y0097285D01*
X0102792Y0097285D01*
X0103143Y0096934D01*
X0103143Y0096438D01*
X0102792Y0096087D01*
X0102296Y0096087D01*
X0101945Y0096438D01*
X0131972Y0134165D02*
X0131372Y0134765D01*
X0133360Y0134765D01*
X0134765Y0133360D01*
X0134765Y0131372D01*
X0133360Y0129967D01*
X0131372Y0129967D01*
X0129967Y0131372D01*
X0129967Y0133360D01*
X0131372Y0134765D01*
X0131745Y0133865D01*
X0132987Y0133865D01*
X0133865Y0132987D01*
X0133865Y0131745D01*
X0132987Y0130867D01*
X0131745Y0130867D01*
X0130867Y0131745D01*
X0130867Y0132987D01*
X0131745Y0133865D01*
X0132118Y0132965D01*
X0132614Y0132965D01*
X0132965Y0132614D01*
X0132965Y0132118D01*
X0132614Y0131767D01*
X0132118Y0131767D01*
X0131767Y0132118D01*
X0131767Y0132614D01*
X0132118Y0132965D01*
X0139043Y0141236D02*
X0138443Y0141836D01*
X0140431Y0141836D01*
X0141836Y0140431D01*
X0141836Y0138443D01*
X0140431Y0137038D01*
X0138443Y0137038D01*
X0137038Y0138443D01*
X0137038Y0140431D01*
X0138443Y0141836D01*
X0138816Y0140936D01*
X0140058Y0140936D01*
X0140936Y0140058D01*
X0140936Y0138816D01*
X0140058Y0137938D01*
X0138816Y0137938D01*
X0137938Y0138816D01*
X0137938Y0140058D01*
X0138816Y0140936D01*
X0139189Y0140036D01*
X0139685Y0140036D01*
X0140036Y0139685D01*
X0140036Y0139189D01*
X0139685Y0138838D01*
X0139189Y0138838D01*
X0138838Y0139189D01*
X0138838Y0139685D01*
X0139189Y0140036D01*
X0146114Y0148307D02*
X0145514Y0148907D01*
X0147502Y0148907D01*
X0148907Y0147502D01*
X0148907Y0145514D01*
X0147502Y0144109D01*
X0145514Y0144109D01*
X0144109Y0145514D01*
X0144109Y0147502D01*
X0145514Y0148907D01*
X0145887Y0148007D01*
X0147129Y0148007D01*
X0148007Y0147129D01*
X0148007Y0145887D01*
X0147129Y0145009D01*
X0145887Y0145009D01*
X0145009Y0145887D01*
X0145009Y0147129D01*
X0145887Y0148007D01*
X0146260Y0147107D01*
X0146756Y0147107D01*
X0147107Y0146756D01*
X0147107Y0146260D01*
X0146756Y0145909D01*
X0146260Y0145909D01*
X0145909Y0146260D01*
X0145909Y0146756D01*
X0146260Y0147107D01*
X0153185Y0155378D02*
X0152585Y0155978D01*
X0154573Y0155978D01*
X0155978Y0154573D01*
X0155978Y0152585D01*
X0154573Y0151180D01*
X0152585Y0151180D01*
X0151180Y0152585D01*
X0151180Y0154573D01*
X0152585Y0155978D01*
X0152958Y0155078D01*
X0154200Y0155078D01*
X0155078Y0154200D01*
X0155078Y0152958D01*
X0154200Y0152080D01*
X0152958Y0152080D01*
X0152080Y0152958D01*
X0152080Y0154200D01*
X0152958Y0155078D01*
X0153331Y0154178D01*
X0153827Y0154178D01*
X0154178Y0153827D01*
X0154178Y0153331D01*
X0153827Y0152980D01*
X0153331Y0152980D01*
X0152980Y0153331D01*
X0152980Y0153827D01*
X0153331Y0154178D01*
X0160256Y0162449D02*
X0159656Y0163049D01*
X0161644Y0163049D01*
X0163049Y0161644D01*
X0163049Y0159656D01*
X0161644Y0158251D01*
X0159656Y0158251D01*
X0158251Y0159656D01*
X0158251Y0161644D01*
X0159656Y0163049D01*
X0160029Y0162149D01*
X0161271Y0162149D01*
X0162149Y0161271D01*
X0162149Y0160029D01*
X0161271Y0159151D01*
X0160029Y0159151D01*
X0159151Y0160029D01*
X0159151Y0161271D01*
X0160029Y0162149D01*
X0160402Y0161249D01*
X0160898Y0161249D01*
X0161249Y0160898D01*
X0161249Y0160402D01*
X0160898Y0160051D01*
X0160402Y0160051D01*
X0160051Y0160402D01*
X0160051Y0160898D01*
X0160402Y0161249D01*
X0167328Y0169521D02*
X0166728Y0170121D01*
X0168716Y0170121D01*
X0170121Y0168716D01*
X0170121Y0166728D01*
X0168716Y0165323D01*
X0166728Y0165323D01*
X0165323Y0166728D01*
X0165323Y0168716D01*
X0166728Y0170121D01*
X0167101Y0169221D01*
X0168343Y0169221D01*
X0169221Y0168343D01*
X0169221Y0167101D01*
X0168343Y0166223D01*
X0167101Y0166223D01*
X0166223Y0167101D01*
X0166223Y0168343D01*
X0167101Y0169221D01*
X0167474Y0168321D01*
X0167970Y0168321D01*
X0168321Y0167970D01*
X0168321Y0167474D01*
X0167970Y0167123D01*
X0167474Y0167123D01*
X0167123Y0167474D01*
X0167123Y0167970D01*
X0167474Y0168321D01*
X0174399Y0176592D02*
X0173799Y0177192D01*
X0175787Y0177192D01*
X0177192Y0175787D01*
X0177192Y0173799D01*
X0175787Y0172394D01*
X0173799Y0172394D01*
X0172394Y0173799D01*
X0172394Y0175787D01*
X0173799Y0177192D01*
X0174172Y0176292D01*
X0175414Y0176292D01*
X0176292Y0175414D01*
X0176292Y0174172D01*
X0175414Y0173294D01*
X0174172Y0173294D01*
X0173294Y0174172D01*
X0173294Y0175414D01*
X0174172Y0176292D01*
X0174545Y0175392D01*
X0175041Y0175392D01*
X0175392Y0175041D01*
X0175392Y0174545D01*
X0175041Y0174194D01*
X0174545Y0174194D01*
X0174194Y0174545D01*
X0174194Y0175041D01*
X0174545Y0175392D01*
X0181470Y0183663D02*
X0180870Y0184263D01*
X0182858Y0184263D01*
X0184263Y0182858D01*
X0184263Y0180870D01*
X0182858Y0179465D01*
X0180870Y0179465D01*
X0179465Y0180870D01*
X0179465Y0182858D01*
X0180870Y0184263D01*
X0181243Y0183363D01*
X0182485Y0183363D01*
X0183363Y0182485D01*
X0183363Y0181243D01*
X0182485Y0180365D01*
X0181243Y0180365D01*
X0180365Y0181243D01*
X0180365Y0182485D01*
X0181243Y0183363D01*
X0181616Y0182463D01*
X0182112Y0182463D01*
X0182463Y0182112D01*
X0182463Y0181616D01*
X0182112Y0181265D01*
X0181616Y0181265D01*
X0181265Y0181616D01*
X0181265Y0182112D01*
X0181616Y0182463D01*
X0188541Y0190734D02*
X0187941Y0191334D01*
X0189929Y0191334D01*
X0191334Y0189929D01*
X0191334Y0187941D01*
X0189929Y0186536D01*
X0187941Y0186536D01*
X0186536Y0187941D01*
X0186536Y0189929D01*
X0187941Y0191334D01*
X0188314Y0190434D01*
X0189556Y0190434D01*
X0190434Y0189556D01*
X0190434Y0188314D01*
X0189556Y0187436D01*
X0188314Y0187436D01*
X0187436Y0188314D01*
X0187436Y0189556D01*
X0188314Y0190434D01*
X0188687Y0189534D01*
X0189183Y0189534D01*
X0189534Y0189183D01*
X0189534Y0188687D01*
X0189183Y0188336D01*
X0188687Y0188336D01*
X0188336Y0188687D01*
X0188336Y0189183D01*
X0188687Y0189534D01*
X0175405Y0203847D02*
X0174805Y0204447D01*
X0176793Y0204447D01*
X0178198Y0203042D01*
X0178198Y0201054D01*
X0176793Y0199649D01*
X0174805Y0199649D01*
X0173400Y0201054D01*
X0173400Y0203042D01*
X0174805Y0204447D01*
X0175178Y0203547D01*
X0176420Y0203547D01*
X0177298Y0202669D01*
X0177298Y0201427D01*
X0176420Y0200549D01*
X0175178Y0200549D01*
X0174300Y0201427D01*
X0174300Y0202669D01*
X0175178Y0203547D01*
X0175551Y0202647D01*
X0176047Y0202647D01*
X0176398Y0202296D01*
X0176398Y0201800D01*
X0176047Y0201449D01*
X0175551Y0201449D01*
X0175200Y0201800D01*
X0175200Y0202296D01*
X0175551Y0202647D01*
X0168334Y0196776D02*
X0167734Y0197376D01*
X0169722Y0197376D01*
X0171127Y0195971D01*
X0171127Y0193983D01*
X0169722Y0192578D01*
X0167734Y0192578D01*
X0166329Y0193983D01*
X0166329Y0195971D01*
X0167734Y0197376D01*
X0168107Y0196476D01*
X0169349Y0196476D01*
X0170227Y0195598D01*
X0170227Y0194356D01*
X0169349Y0193478D01*
X0168107Y0193478D01*
X0167229Y0194356D01*
X0167229Y0195598D01*
X0168107Y0196476D01*
X0168480Y0195576D01*
X0168976Y0195576D01*
X0169327Y0195225D01*
X0169327Y0194729D01*
X0168976Y0194378D01*
X0168480Y0194378D01*
X0168129Y0194729D01*
X0168129Y0195225D01*
X0168480Y0195576D01*
X0161263Y0189705D02*
X0160663Y0190305D01*
X0162651Y0190305D01*
X0164056Y0188900D01*
X0164056Y0186912D01*
X0162651Y0185507D01*
X0160663Y0185507D01*
X0159258Y0186912D01*
X0159258Y0188900D01*
X0160663Y0190305D01*
X0161036Y0189405D01*
X0162278Y0189405D01*
X0163156Y0188527D01*
X0163156Y0187285D01*
X0162278Y0186407D01*
X0161036Y0186407D01*
X0160158Y0187285D01*
X0160158Y0188527D01*
X0161036Y0189405D01*
X0161409Y0188505D01*
X0161905Y0188505D01*
X0162256Y0188154D01*
X0162256Y0187658D01*
X0161905Y0187307D01*
X0161409Y0187307D01*
X0161058Y0187658D01*
X0161058Y0188154D01*
X0161409Y0188505D01*
X0154192Y0182634D02*
X0153592Y0183234D01*
X0155580Y0183234D01*
X0156985Y0181829D01*
X0156985Y0179841D01*
X0155580Y0178436D01*
X0153592Y0178436D01*
X0152187Y0179841D01*
X0152187Y0181829D01*
X0153592Y0183234D01*
X0153965Y0182334D01*
X0155207Y0182334D01*
X0156085Y0181456D01*
X0156085Y0180214D01*
X0155207Y0179336D01*
X0153965Y0179336D01*
X0153087Y0180214D01*
X0153087Y0181456D01*
X0153965Y0182334D01*
X0154338Y0181434D01*
X0154834Y0181434D01*
X0155185Y0181083D01*
X0155185Y0180587D01*
X0154834Y0180236D01*
X0154338Y0180236D01*
X0153987Y0180587D01*
X0153987Y0181083D01*
X0154338Y0181434D01*
X0147121Y0175563D02*
X0146521Y0176163D01*
X0148509Y0176163D01*
X0149914Y0174758D01*
X0149914Y0172770D01*
X0148509Y0171365D01*
X0146521Y0171365D01*
X0145116Y0172770D01*
X0145116Y0174758D01*
X0146521Y0176163D01*
X0146894Y0175263D01*
X0148136Y0175263D01*
X0149014Y0174385D01*
X0149014Y0173143D01*
X0148136Y0172265D01*
X0146894Y0172265D01*
X0146016Y0173143D01*
X0146016Y0174385D01*
X0146894Y0175263D01*
X0147267Y0174363D01*
X0147763Y0174363D01*
X0148114Y0174012D01*
X0148114Y0173516D01*
X0147763Y0173165D01*
X0147267Y0173165D01*
X0146916Y0173516D01*
X0146916Y0174012D01*
X0147267Y0174363D01*
X0140050Y0168491D02*
X0139450Y0169091D01*
X0141438Y0169091D01*
X0142843Y0167686D01*
X0142843Y0165698D01*
X0141438Y0164293D01*
X0139450Y0164293D01*
X0138045Y0165698D01*
X0138045Y0167686D01*
X0139450Y0169091D01*
X0139823Y0168191D01*
X0141065Y0168191D01*
X0141943Y0167313D01*
X0141943Y0166071D01*
X0141065Y0165193D01*
X0139823Y0165193D01*
X0138945Y0166071D01*
X0138945Y0167313D01*
X0139823Y0168191D01*
X0140196Y0167291D01*
X0140692Y0167291D01*
X0141043Y0166940D01*
X0141043Y0166444D01*
X0140692Y0166093D01*
X0140196Y0166093D01*
X0139845Y0166444D01*
X0139845Y0166940D01*
X0140196Y0167291D01*
X0132979Y0161420D02*
X0132379Y0162020D01*
X0134367Y0162020D01*
X0135772Y0160615D01*
X0135772Y0158627D01*
X0134367Y0157222D01*
X0132379Y0157222D01*
X0130974Y0158627D01*
X0130974Y0160615D01*
X0132379Y0162020D01*
X0132752Y0161120D01*
X0133994Y0161120D01*
X0134872Y0160242D01*
X0134872Y0159000D01*
X0133994Y0158122D01*
X0132752Y0158122D01*
X0131874Y0159000D01*
X0131874Y0160242D01*
X0132752Y0161120D01*
X0133125Y0160220D01*
X0133621Y0160220D01*
X0133972Y0159869D01*
X0133972Y0159373D01*
X0133621Y0159022D01*
X0133125Y0159022D01*
X0132774Y0159373D01*
X0132774Y0159869D01*
X0133125Y0160220D01*
X0125908Y0154349D02*
X0125308Y0154949D01*
X0127296Y0154949D01*
X0128701Y0153544D01*
X0128701Y0151556D01*
X0127296Y0150151D01*
X0125308Y0150151D01*
X0123903Y0151556D01*
X0123903Y0153544D01*
X0125308Y0154949D01*
X0125681Y0154049D01*
X0126923Y0154049D01*
X0127801Y0153171D01*
X0127801Y0151929D01*
X0126923Y0151051D01*
X0125681Y0151051D01*
X0124803Y0151929D01*
X0124803Y0153171D01*
X0125681Y0154049D01*
X0126054Y0153149D01*
X0126550Y0153149D01*
X0126901Y0152798D01*
X0126901Y0152302D01*
X0126550Y0151951D01*
X0126054Y0151951D01*
X0125703Y0152302D01*
X0125703Y0152798D01*
X0126054Y0153149D01*
X0118837Y0147278D02*
X0118237Y0147878D01*
X0120225Y0147878D01*
X0121630Y0146473D01*
X0121630Y0144485D01*
X0120225Y0143080D01*
X0118237Y0143080D01*
X0116832Y0144485D01*
X0116832Y0146473D01*
X0118237Y0147878D01*
X0118610Y0146978D01*
X0119852Y0146978D01*
X0120730Y0146100D01*
X0120730Y0144858D01*
X0119852Y0143980D01*
X0118610Y0143980D01*
X0117732Y0144858D01*
X0117732Y0146100D01*
X0118610Y0146978D01*
X0118983Y0146078D01*
X0119479Y0146078D01*
X0119830Y0145727D01*
X0119830Y0145231D01*
X0119479Y0144880D01*
X0118983Y0144880D01*
X0118632Y0145231D01*
X0118632Y0145727D01*
X0118983Y0146078D01*
X0111766Y0140207D02*
X0111166Y0140807D01*
X0113154Y0140807D01*
X0114559Y0139402D01*
X0114559Y0137414D01*
X0113154Y0136009D01*
X0111166Y0136009D01*
X0109761Y0137414D01*
X0109761Y0139402D01*
X0111166Y0140807D01*
X0111539Y0139907D01*
X0112781Y0139907D01*
X0113659Y0139029D01*
X0113659Y0137787D01*
X0112781Y0136909D01*
X0111539Y0136909D01*
X0110661Y0137787D01*
X0110661Y0139029D01*
X0111539Y0139907D01*
X0111912Y0139007D01*
X0112408Y0139007D01*
X0112759Y0138656D01*
X0112759Y0138160D01*
X0112408Y0137809D01*
X0111912Y0137809D01*
X0111561Y0138160D01*
X0111561Y0138656D01*
X0111912Y0139007D01*
D13*
G36*
X0125295Y0129537D02*
X0129537Y0125295D01*
X0125295Y0121053D01*
X0121053Y0125295D01*
X0125295Y0129537D01*
G37*
D14*
X0132115Y0131315D02*
X0132115Y0124915D01*
X0156115Y0100915D01*
X0163715Y0100915D01*
X0132115Y0124915D02*
X0116915Y0109715D01*
X0116915Y0082915D01*
X0116686Y0082544D01*
X0132115Y0131315D02*
X0132366Y0132366D01*
X0132515Y0132515D01*
X0120115Y0144915D01*
X0119231Y0145479D01*
X0118915Y0145715D01*
X0118915Y0162515D01*
X0111315Y0170115D01*
X0108915Y0170115D01*
X0108115Y0170915D01*
X0104515Y0170915D01*
X0075315Y0200115D01*
X0075315Y0202915D01*
X0100515Y0164915D02*
X0110915Y0164915D01*
X0111715Y0164115D01*
X0111715Y0138915D01*
X0112115Y0138515D01*
X0112160Y0138408D01*
X0100515Y0164915D02*
X0037315Y0228115D01*
X0067715Y0258515D01*
X0074915Y0258515D01*
X0075715Y0259315D01*
X0128915Y0259315D01*
X0162115Y0292515D01*
X0162115Y0306915D01*
X0166515Y0311315D01*
X0217715Y0311315D01*
X0222115Y0306915D01*
X0222115Y0302515D01*
X0217315Y0297715D01*
X0217315Y0294915D01*
X0217115Y0294615D01*
X0304615Y0249615D02*
X0304515Y0249315D01*
X0230115Y0174915D01*
X0279315Y0125715D01*
X0279315Y0050115D01*
X0280115Y0049315D01*
X0296915Y0049315D01*
X0302115Y0054515D01*
X0302115Y0054615D01*
X0280115Y0049315D02*
X0245715Y0014915D01*
X0244915Y0014915D01*
X0244615Y0014615D01*
X0230115Y0174915D02*
X0174915Y0174915D01*
X0174793Y0174793D01*
X0078915Y0278515D02*
X0064915Y0292515D01*
X0055715Y0283315D01*
X0055715Y0281315D01*
X0064915Y0292515D02*
X0076915Y0304515D01*
X0077115Y0304615D01*
X0016115Y0268915D02*
X0015875Y0269064D01*
X0016115Y0268915D02*
X0016115Y0215715D01*
X0026515Y0205315D01*
X0030515Y0203715D02*
X0018515Y0191715D01*
X0011315Y0191715D01*
X0010515Y0190915D01*
X0009315Y0189715D01*
X0009315Y0170115D01*
X0014515Y0164915D01*
X0014515Y0162115D01*
X0014615Y0162115D01*
X0024915Y0168915D02*
X0024915Y0172115D01*
X0024615Y0172115D01*
X0025715Y0172915D01*
X0029715Y0176915D01*
X0029715Y0185315D01*
X0031715Y0188915D02*
X0033715Y0186915D01*
X0033715Y0093715D01*
X0014615Y0074615D01*
X0014615Y0084615D02*
X0014915Y0084915D01*
X0014915Y0105315D01*
X0029715Y0120115D01*
X0029715Y0127315D01*
X0024915Y0132115D01*
X0024615Y0132115D01*
X0024515Y0142115D02*
X0024615Y0142115D01*
X0024515Y0142115D02*
X0024515Y0152115D01*
X0024615Y0152115D01*
X0025315Y0152915D01*
X0029715Y0157315D01*
X0029715Y0164115D01*
X0024915Y0168915D01*
X0031715Y0188915D02*
X0031715Y0191715D01*
X0030515Y0203715D02*
X0030515Y0221315D01*
X0037315Y0228115D01*
D15*
X0042915Y0228115D03*
X0047315Y0223715D03*
X0052515Y0218515D03*
X0045315Y0210515D03*
X0038115Y0221715D03*
X0026515Y0205315D03*
X0031715Y0191715D03*
X0029715Y0185315D03*
X0010515Y0190915D03*
X0060515Y0210515D03*
X0075315Y0202915D03*
X0079715Y0201315D03*
X0104515Y0210515D03*
X0107715Y0213715D03*
X0110915Y0216915D03*
X0100515Y0223715D03*
X0098915Y0237315D03*
X0088515Y0238515D03*
X0084115Y0235315D03*
X0078915Y0230515D03*
X0066515Y0236915D03*
X0065315Y0246115D03*
X0077715Y0246915D03*
X0080915Y0252515D03*
X0074915Y0258515D03*
X0064915Y0263315D03*
X0066515Y0269315D03*
X0078915Y0278515D03*
X0055715Y0281315D03*
X0050915Y0247715D03*
X0047715Y0244515D03*
X0051715Y0236915D03*
X0112515Y0294515D03*
X0153315Y0258115D03*
X0156915Y0261715D03*
X0142515Y0240915D03*
X0129715Y0251715D03*
X0125315Y0251715D03*
X0125315Y0233315D03*
X0136115Y0216915D03*
X0123315Y0206515D03*
X0119715Y0203715D03*
X0118115Y0199315D03*
X0139315Y0195315D03*
X0108915Y0170115D03*
X0111715Y0164115D03*
X0137715Y0148515D03*
X0163715Y0100915D03*
X0180115Y0213715D03*
X0196915Y0286515D03*
X0050515Y0138915D03*
D16*
X0006600Y0169353D02*
X0006600Y0020222D01*
X0008516Y0020735D01*
X0008516Y0023192D01*
X0009400Y0026491D01*
X0011107Y0029448D01*
X0013522Y0031863D01*
X0016479Y0033570D01*
X0019778Y0034454D01*
X0023192Y0034454D01*
X0026491Y0033570D01*
X0029448Y0031863D01*
X0031863Y0029448D01*
X0033570Y0026491D01*
X0034454Y0023192D01*
X0034454Y0019778D01*
X0033570Y0016479D01*
X0031863Y0013522D01*
X0029448Y0011107D01*
X0026491Y0009400D01*
X0023192Y0008516D01*
X0020735Y0008516D01*
X0020222Y0006600D01*
X0298339Y0006600D01*
X0297826Y0008516D01*
X0295368Y0008516D01*
X0292070Y0009400D01*
X0289112Y0011107D01*
X0286698Y0013522D01*
X0284990Y0016479D01*
X0284106Y0019778D01*
X0284106Y0023192D01*
X0284990Y0026491D01*
X0286698Y0029448D01*
X0289112Y0031863D01*
X0292070Y0033570D01*
X0295368Y0034454D01*
X0298783Y0034454D01*
X0302082Y0033570D01*
X0305039Y0031863D01*
X0307454Y0029448D01*
X0309161Y0026491D01*
X0310045Y0023192D01*
X0310045Y0020735D01*
X0311961Y0020222D01*
X0311961Y0298339D01*
X0310045Y0297826D01*
X0310045Y0295368D01*
X0309161Y0292070D01*
X0307454Y0289112D01*
X0305039Y0286698D01*
X0302082Y0284990D01*
X0298783Y0284106D01*
X0295368Y0284106D01*
X0292070Y0284990D01*
X0289112Y0286698D01*
X0286698Y0289112D01*
X0284990Y0292070D01*
X0284106Y0295368D01*
X0284106Y0298783D01*
X0284990Y0302082D01*
X0286698Y0305039D01*
X0289112Y0307454D01*
X0292070Y0309161D01*
X0295368Y0310045D01*
X0297826Y0310045D01*
X0298339Y0311961D01*
X0221029Y0311961D01*
X0224489Y0308501D01*
X0224915Y0307472D01*
X0224915Y0301958D01*
X0224489Y0300929D01*
X0223701Y0300141D01*
X0220898Y0297338D01*
X0221715Y0296520D01*
X0221715Y0292710D01*
X0219020Y0290015D01*
X0215210Y0290015D01*
X0212515Y0292710D01*
X0212515Y0296520D01*
X0214691Y0298696D01*
X0214941Y0299301D01*
X0215655Y0300015D01*
X0215210Y0300015D01*
X0213315Y0301910D01*
X0213315Y0301687D01*
X0212143Y0300515D01*
X0209932Y0298303D01*
X0211715Y0296520D01*
X0211715Y0292710D01*
X0209020Y0290015D01*
X0207643Y0290015D01*
X0137606Y0219977D01*
X0138041Y0219797D01*
X0138997Y0218841D01*
X0139515Y0217591D01*
X0139515Y0216239D01*
X0138997Y0214989D01*
X0138115Y0214107D01*
X0138115Y0198498D01*
X0138639Y0198715D01*
X0139991Y0198715D01*
X0141241Y0198197D01*
X0142123Y0197315D01*
X0164561Y0197315D01*
X0166823Y0199577D01*
X0170634Y0199577D01*
X0173328Y0196882D01*
X0173328Y0193071D01*
X0170634Y0190377D01*
X0166823Y0190377D01*
X0164128Y0193071D01*
X0164128Y0193315D01*
X0142123Y0193315D01*
X0141241Y0192433D01*
X0139991Y0191915D01*
X0138639Y0191915D01*
X0138115Y0192132D01*
X0138115Y0170869D01*
X0138539Y0171292D01*
X0142349Y0171292D01*
X0145044Y0168598D01*
X0145044Y0164787D01*
X0142349Y0162092D01*
X0139715Y0162092D01*
X0139715Y0151323D01*
X0140597Y0150441D01*
X0141115Y0149191D01*
X0141115Y0147839D01*
X0140597Y0146589D01*
X0139641Y0145633D01*
X0138391Y0145115D01*
X0137039Y0145115D01*
X0136515Y0145332D01*
X0136515Y0143303D01*
X0137449Y0144237D01*
X0141426Y0144237D01*
X0142690Y0142973D01*
X0139437Y0139720D01*
X0139720Y0139437D01*
X0142973Y0136185D01*
X0144237Y0137449D01*
X0144237Y0141426D01*
X0142973Y0142690D01*
X0139720Y0139437D01*
X0139437Y0139154D01*
X0142690Y0135902D01*
X0141426Y0134637D01*
X0139221Y0134637D01*
X0240943Y0032915D01*
X0242115Y0031743D01*
X0242115Y0018620D01*
X0242710Y0019215D01*
X0246055Y0019215D01*
X0276515Y0049675D01*
X0276515Y0124555D01*
X0228955Y0172115D01*
X0178620Y0172115D01*
X0176698Y0170193D01*
X0172887Y0170193D01*
X0170193Y0172887D01*
X0170193Y0176698D01*
X0172887Y0179393D01*
X0176698Y0179393D01*
X0178376Y0177715D01*
X0179507Y0177715D01*
X0177264Y0179958D01*
X0177264Y0183769D01*
X0179958Y0186464D01*
X0183769Y0186464D01*
X0186464Y0183769D01*
X0186464Y0179958D01*
X0184220Y0177715D01*
X0228955Y0177715D01*
X0300015Y0248775D01*
X0300015Y0251520D01*
X0302710Y0254215D01*
X0306520Y0254215D01*
X0309215Y0251520D01*
X0309215Y0247710D01*
X0306520Y0245015D01*
X0304175Y0245015D01*
X0303575Y0244415D01*
X0304415Y0244415D01*
X0304415Y0239815D01*
X0304815Y0239815D01*
X0309415Y0239815D01*
X0309415Y0241603D01*
X0306603Y0244415D01*
X0304815Y0244415D01*
X0304815Y0239815D01*
X0304815Y0239415D01*
X0309415Y0239415D01*
X0309415Y0237627D01*
X0306603Y0234815D01*
X0304815Y0234815D01*
X0304815Y0239415D01*
X0304415Y0239415D01*
X0304415Y0234815D01*
X0302627Y0234815D01*
X0299815Y0237627D01*
X0299815Y0239415D01*
X0304415Y0239415D01*
X0304415Y0239815D01*
X0299815Y0239815D01*
X0299815Y0240655D01*
X0234075Y0174915D01*
X0281689Y0127301D01*
X0282115Y0126272D01*
X0282115Y0052115D01*
X0288110Y0052115D01*
X0287515Y0052710D01*
X0287515Y0056520D01*
X0290210Y0059215D01*
X0294020Y0059215D01*
X0296715Y0056520D01*
X0296715Y0053075D01*
X0297515Y0053875D01*
X0297515Y0058278D01*
X0298452Y0059215D01*
X0305778Y0059215D01*
X0306715Y0058278D01*
X0306715Y0050952D01*
X0305778Y0050015D01*
X0301575Y0050015D01*
X0298501Y0046941D01*
X0297472Y0046515D01*
X0281275Y0046515D01*
X0253975Y0019215D01*
X0258278Y0019215D01*
X0259215Y0018278D01*
X0259215Y0010952D01*
X0258278Y0010015D01*
X0252843Y0010015D01*
X0250943Y0008115D01*
X0242087Y0008115D01*
X0240915Y0009287D01*
X0238495Y0011707D01*
X0236603Y0009815D01*
X0234815Y0009815D01*
X0234815Y0014415D01*
X0234415Y0014415D01*
X0234415Y0009815D01*
X0232627Y0009815D01*
X0229815Y0012627D01*
X0229815Y0014415D01*
X0234415Y0014415D01*
X0234415Y0014815D01*
X0234415Y0019415D01*
X0232627Y0019415D01*
X0229815Y0016603D01*
X0229815Y0014815D01*
X0234415Y0014815D01*
X0234815Y0014815D01*
X0234815Y0019415D01*
X0236603Y0019415D01*
X0238115Y0017903D01*
X0238115Y0030087D01*
X0137166Y0131035D01*
X0137166Y0130378D01*
X0135902Y0129114D01*
X0132649Y0132366D01*
X0132366Y0132083D01*
X0129114Y0128831D01*
X0130378Y0127566D01*
X0134354Y0127566D01*
X0135619Y0128831D01*
X0132366Y0132083D01*
X0132083Y0132366D01*
X0128831Y0129114D01*
X0127566Y0130378D01*
X0127566Y0134354D01*
X0128831Y0135619D01*
X0132083Y0132366D01*
X0132366Y0132649D01*
X0129114Y0135902D01*
X0130378Y0137166D01*
X0132515Y0137166D01*
X0132515Y0149687D01*
X0130902Y0151300D01*
X0130902Y0150645D01*
X0128207Y0147950D01*
X0124397Y0147950D01*
X0121702Y0150645D01*
X0121702Y0154456D01*
X0124397Y0157150D01*
X0125051Y0157150D01*
X0112915Y0169287D01*
X0112915Y0214107D01*
X0112841Y0214033D01*
X0111591Y0213515D01*
X0111115Y0213515D01*
X0111115Y0213039D01*
X0110597Y0211789D01*
X0109715Y0210907D01*
X0109715Y0208487D01*
X0101715Y0200487D01*
X0100543Y0199315D01*
X0082523Y0199315D01*
X0081641Y0198433D01*
X0080391Y0197915D01*
X0079039Y0197915D01*
X0077789Y0198433D01*
X0076833Y0199389D01*
X0076315Y0200639D01*
X0076315Y0201991D01*
X0076833Y0203241D01*
X0077789Y0204197D01*
X0079039Y0204715D01*
X0080391Y0204715D01*
X0081641Y0204197D01*
X0082523Y0203315D01*
X0098887Y0203315D01*
X0103024Y0207452D01*
X0102589Y0207633D01*
X0101707Y0208515D01*
X0063323Y0208515D01*
X0062441Y0207633D01*
X0061957Y0207432D01*
X0101675Y0167715D01*
X0111472Y0167715D01*
X0111955Y0167515D01*
X0112391Y0167515D01*
X0113641Y0166997D01*
X0114597Y0166041D01*
X0115115Y0164791D01*
X0115115Y0163439D01*
X0114597Y0162189D01*
X0114515Y0162107D01*
X0114515Y0147551D01*
X0115695Y0148732D01*
X0118948Y0145479D01*
X0119231Y0145196D01*
X0119514Y0145479D01*
X0122766Y0142227D01*
X0124031Y0143491D01*
X0124031Y0147467D01*
X0122766Y0148732D01*
X0119514Y0145479D01*
X0119231Y0145762D01*
X0122484Y0149015D01*
X0121219Y0150279D01*
X0117243Y0150279D01*
X0115978Y0149015D01*
X0119231Y0145762D01*
X0118948Y0145479D01*
X0115695Y0142227D01*
X0114515Y0143407D01*
X0114515Y0142558D01*
X0116760Y0140314D01*
X0116760Y0136503D01*
X0114065Y0133808D01*
X0113250Y0133808D01*
X0119743Y0127315D01*
X0120810Y0127315D01*
X0124632Y0131138D01*
X0125958Y0131138D01*
X0131138Y0125958D01*
X0131138Y0124632D01*
X0125958Y0119453D01*
X0124632Y0119453D01*
X0120770Y0123315D01*
X0118087Y0123315D01*
X0116915Y0124487D01*
X0104487Y0136915D01*
X0053323Y0136915D01*
X0052441Y0136033D01*
X0051191Y0135515D01*
X0049839Y0135515D01*
X0048589Y0136033D01*
X0047633Y0136989D01*
X0047115Y0138239D01*
X0047115Y0139591D01*
X0047633Y0140841D01*
X0048589Y0141797D01*
X0049839Y0142315D01*
X0051191Y0142315D01*
X0052441Y0141797D01*
X0053323Y0140915D01*
X0106143Y0140915D01*
X0107560Y0139498D01*
X0107560Y0140314D01*
X0108915Y0141669D01*
X0108915Y0162107D01*
X0108907Y0162115D01*
X0099958Y0162115D01*
X0098929Y0162541D01*
X0098141Y0163329D01*
X0041198Y0220273D01*
X0040997Y0219789D01*
X0040115Y0218907D01*
X0040115Y0208143D01*
X0041915Y0209943D01*
X0041915Y0211191D01*
X0042433Y0212441D01*
X0043389Y0213397D01*
X0044639Y0213915D01*
X0045991Y0213915D01*
X0047241Y0213397D01*
X0048197Y0212441D01*
X0048715Y0211191D01*
X0048715Y0209839D01*
X0048197Y0208589D01*
X0047241Y0207633D01*
X0045991Y0207115D01*
X0044743Y0207115D01*
X0032640Y0195012D01*
X0033641Y0194597D01*
X0034597Y0193641D01*
X0035115Y0192391D01*
X0035115Y0191039D01*
X0034657Y0189933D01*
X0035301Y0189289D01*
X0036089Y0188501D01*
X0036515Y0187472D01*
X0036515Y0093158D01*
X0036089Y0092129D01*
X0019215Y0075255D01*
X0019215Y0072710D01*
X0016520Y0070015D01*
X0012710Y0070015D01*
X0010015Y0072710D01*
X0010015Y0076520D01*
X0012710Y0079215D01*
X0015255Y0079215D01*
X0015855Y0079815D01*
X0014815Y0079815D01*
X0014815Y0084415D01*
X0014815Y0084815D01*
X0014415Y0084815D01*
X0014415Y0089415D01*
X0012627Y0089415D01*
X0009815Y0086603D01*
X0009815Y0084815D01*
X0014415Y0084815D01*
X0014415Y0084415D01*
X0014815Y0084415D01*
X0019415Y0084415D01*
X0019415Y0083375D01*
X0030915Y0094875D01*
X0030915Y0185755D01*
X0029341Y0187329D01*
X0028915Y0188358D01*
X0028915Y0189707D01*
X0028833Y0189789D01*
X0028418Y0190790D01*
X0024343Y0186715D01*
X0026520Y0186715D01*
X0029215Y0184020D01*
X0029215Y0180210D01*
X0026520Y0177515D01*
X0022710Y0177515D01*
X0020915Y0179310D01*
X0020915Y0175287D01*
X0019215Y0173587D01*
X0019215Y0170210D01*
X0016520Y0167515D01*
X0015875Y0167515D01*
X0016889Y0166501D01*
X0016998Y0166237D01*
X0019215Y0164020D01*
X0019215Y0160210D01*
X0016520Y0157515D01*
X0012710Y0157515D01*
X0010015Y0160210D01*
X0010015Y0164020D01*
X0010732Y0164738D01*
X0006941Y0168529D01*
X0006600Y0169353D01*
X0006600Y0169141D02*
X0006688Y0169141D01*
X0006600Y0167542D02*
X0007928Y0167542D01*
X0006600Y0165944D02*
X0009526Y0165944D01*
X0010340Y0164345D02*
X0006600Y0164345D01*
X0006600Y0162747D02*
X0010015Y0162747D01*
X0010015Y0161148D02*
X0006600Y0161148D01*
X0006600Y0159550D02*
X0010675Y0159550D01*
X0012273Y0157951D02*
X0006600Y0157951D01*
X0006600Y0156353D02*
X0012347Y0156353D01*
X0012710Y0156715D02*
X0010015Y0154020D01*
X0010015Y0150210D01*
X0012710Y0147515D01*
X0016520Y0147515D01*
X0019215Y0150210D01*
X0019215Y0154020D01*
X0016520Y0156715D01*
X0012710Y0156715D01*
X0010749Y0154754D02*
X0006600Y0154754D01*
X0006600Y0153156D02*
X0010015Y0153156D01*
X0010015Y0151557D02*
X0006600Y0151557D01*
X0006600Y0149959D02*
X0010266Y0149959D01*
X0011864Y0148360D02*
X0006600Y0148360D01*
X0006600Y0146762D02*
X0022473Y0146762D01*
X0022627Y0146915D02*
X0019815Y0144103D01*
X0019815Y0142315D01*
X0024415Y0142315D01*
X0024415Y0146915D01*
X0022627Y0146915D01*
X0022627Y0147315D02*
X0019815Y0150127D01*
X0019815Y0151915D01*
X0024415Y0151915D01*
X0024415Y0152315D01*
X0024415Y0156915D01*
X0022627Y0156915D01*
X0019815Y0154103D01*
X0019815Y0152315D01*
X0024415Y0152315D01*
X0024815Y0152315D01*
X0024815Y0156915D01*
X0026603Y0156915D01*
X0029415Y0154103D01*
X0029415Y0152315D01*
X0024815Y0152315D01*
X0024815Y0151915D01*
X0029415Y0151915D01*
X0029415Y0150127D01*
X0026603Y0147315D01*
X0024815Y0147315D01*
X0024815Y0151915D01*
X0024415Y0151915D01*
X0024415Y0147315D01*
X0022627Y0147315D01*
X0021582Y0148360D02*
X0017366Y0148360D01*
X0016520Y0146715D02*
X0012710Y0146715D01*
X0010015Y0144020D01*
X0010015Y0140210D01*
X0012710Y0137515D01*
X0016520Y0137515D01*
X0019215Y0140210D01*
X0019215Y0144020D01*
X0016520Y0146715D01*
X0018072Y0145163D02*
X0020875Y0145163D01*
X0019815Y0143565D02*
X0019215Y0143565D01*
X0019215Y0141966D02*
X0024415Y0141966D01*
X0024415Y0141915D02*
X0019815Y0141915D01*
X0019815Y0140127D01*
X0022627Y0137315D01*
X0024415Y0137315D01*
X0024415Y0141915D01*
X0024415Y0142315D01*
X0024815Y0142315D01*
X0024815Y0146915D01*
X0026603Y0146915D01*
X0029415Y0144103D01*
X0029415Y0142315D01*
X0024815Y0142315D01*
X0024815Y0141915D01*
X0029415Y0141915D01*
X0029415Y0140127D01*
X0026603Y0137315D01*
X0024815Y0137315D01*
X0024815Y0141915D01*
X0024415Y0141915D01*
X0024815Y0141966D02*
X0030915Y0141966D01*
X0030915Y0140368D02*
X0029415Y0140368D01*
X0028057Y0138769D02*
X0030915Y0138769D01*
X0030915Y0137171D02*
X0006600Y0137171D01*
X0006600Y0138769D02*
X0011455Y0138769D01*
X0010015Y0140368D02*
X0006600Y0140368D01*
X0006600Y0141966D02*
X0010015Y0141966D01*
X0010015Y0143565D02*
X0006600Y0143565D01*
X0006600Y0145163D02*
X0011158Y0145163D01*
X0018964Y0149959D02*
X0019983Y0149959D01*
X0019815Y0151557D02*
X0019215Y0151557D01*
X0019215Y0153156D02*
X0019815Y0153156D01*
X0020466Y0154754D02*
X0018481Y0154754D01*
X0016883Y0156353D02*
X0022064Y0156353D01*
X0022710Y0157515D02*
X0020015Y0160210D01*
X0020015Y0164020D01*
X0022710Y0166715D01*
X0026520Y0166715D01*
X0029215Y0164020D01*
X0029215Y0160210D01*
X0026520Y0157515D01*
X0022710Y0157515D01*
X0022273Y0157951D02*
X0016957Y0157951D01*
X0018555Y0159550D02*
X0020675Y0159550D01*
X0020015Y0161148D02*
X0019215Y0161148D01*
X0019215Y0162747D02*
X0020015Y0162747D01*
X0020340Y0164345D02*
X0018890Y0164345D01*
X0017292Y0165944D02*
X0021938Y0165944D01*
X0022627Y0167315D02*
X0019815Y0170127D01*
X0019815Y0171915D01*
X0024415Y0171915D01*
X0024415Y0172315D01*
X0024415Y0176915D01*
X0022627Y0176915D01*
X0019815Y0174103D01*
X0019815Y0172315D01*
X0024415Y0172315D01*
X0024815Y0172315D01*
X0024815Y0176915D01*
X0026603Y0176915D01*
X0029415Y0174103D01*
X0029415Y0172315D01*
X0024815Y0172315D01*
X0024815Y0171915D01*
X0029415Y0171915D01*
X0029415Y0170127D01*
X0026603Y0167315D01*
X0024815Y0167315D01*
X0024815Y0171915D01*
X0024415Y0171915D01*
X0024415Y0167315D01*
X0022627Y0167315D01*
X0022399Y0167542D02*
X0016548Y0167542D01*
X0018146Y0169141D02*
X0020801Y0169141D01*
X0019815Y0170739D02*
X0019215Y0170739D01*
X0019215Y0172338D02*
X0019815Y0172338D01*
X0019815Y0173936D02*
X0019565Y0173936D01*
X0020915Y0175535D02*
X0021247Y0175535D01*
X0020915Y0177133D02*
X0030915Y0177133D01*
X0030915Y0175535D02*
X0027983Y0175535D01*
X0029415Y0173936D02*
X0030915Y0173936D01*
X0030915Y0172338D02*
X0029415Y0172338D01*
X0029415Y0170739D02*
X0030915Y0170739D01*
X0030915Y0169141D02*
X0028429Y0169141D01*
X0026830Y0167542D02*
X0030915Y0167542D01*
X0030915Y0165944D02*
X0027292Y0165944D01*
X0028890Y0164345D02*
X0030915Y0164345D01*
X0030915Y0162747D02*
X0029215Y0162747D01*
X0029215Y0161148D02*
X0030915Y0161148D01*
X0030915Y0159550D02*
X0028555Y0159550D01*
X0026957Y0157951D02*
X0030915Y0157951D01*
X0030915Y0156353D02*
X0027165Y0156353D01*
X0028764Y0154754D02*
X0030915Y0154754D01*
X0030915Y0153156D02*
X0029415Y0153156D01*
X0029415Y0151557D02*
X0030915Y0151557D01*
X0030915Y0149959D02*
X0029247Y0149959D01*
X0027648Y0148360D02*
X0030915Y0148360D01*
X0030915Y0146762D02*
X0026756Y0146762D01*
X0024815Y0146762D02*
X0024415Y0146762D01*
X0024415Y0148360D02*
X0024815Y0148360D01*
X0024815Y0149959D02*
X0024415Y0149959D01*
X0024415Y0151557D02*
X0024815Y0151557D01*
X0024815Y0153156D02*
X0024415Y0153156D01*
X0024415Y0154754D02*
X0024815Y0154754D01*
X0024815Y0156353D02*
X0024415Y0156353D01*
X0024415Y0167542D02*
X0024815Y0167542D01*
X0024815Y0169141D02*
X0024415Y0169141D01*
X0024415Y0170739D02*
X0024815Y0170739D01*
X0024815Y0172338D02*
X0024415Y0172338D01*
X0024415Y0173936D02*
X0024815Y0173936D01*
X0024815Y0175535D02*
X0024415Y0175535D01*
X0021493Y0178732D02*
X0020915Y0178732D01*
X0027737Y0178732D02*
X0030915Y0178732D01*
X0030915Y0180330D02*
X0029215Y0180330D01*
X0029215Y0181929D02*
X0030915Y0181929D01*
X0030915Y0183527D02*
X0029215Y0183527D01*
X0028109Y0185126D02*
X0030915Y0185126D01*
X0029946Y0186724D02*
X0024353Y0186724D01*
X0025951Y0188323D02*
X0028929Y0188323D01*
X0028778Y0189921D02*
X0027550Y0189921D01*
X0034668Y0189921D02*
X0071549Y0189921D01*
X0073147Y0188323D02*
X0036162Y0188323D01*
X0036515Y0186724D02*
X0074746Y0186724D01*
X0076344Y0185126D02*
X0036515Y0185126D01*
X0036515Y0183527D02*
X0077943Y0183527D01*
X0079541Y0181929D02*
X0036515Y0181929D01*
X0036515Y0180330D02*
X0081140Y0180330D01*
X0082738Y0178732D02*
X0036515Y0178732D01*
X0036515Y0177133D02*
X0084337Y0177133D01*
X0085935Y0175535D02*
X0036515Y0175535D01*
X0036515Y0173936D02*
X0087534Y0173936D01*
X0089132Y0172338D02*
X0036515Y0172338D01*
X0036515Y0170739D02*
X0090731Y0170739D01*
X0092329Y0169141D02*
X0036515Y0169141D01*
X0036515Y0167542D02*
X0093928Y0167542D01*
X0095526Y0165944D02*
X0036515Y0165944D01*
X0036515Y0164345D02*
X0097125Y0164345D01*
X0098723Y0162747D02*
X0036515Y0162747D01*
X0036515Y0161148D02*
X0108915Y0161148D01*
X0108915Y0159550D02*
X0036515Y0159550D01*
X0036515Y0157951D02*
X0108915Y0157951D01*
X0108915Y0156353D02*
X0036515Y0156353D01*
X0036515Y0154754D02*
X0108915Y0154754D01*
X0108915Y0153156D02*
X0036515Y0153156D01*
X0036515Y0151557D02*
X0108915Y0151557D01*
X0108915Y0149959D02*
X0036515Y0149959D01*
X0036515Y0148360D02*
X0108915Y0148360D01*
X0108915Y0146762D02*
X0036515Y0146762D01*
X0036515Y0145163D02*
X0108915Y0145163D01*
X0108915Y0143565D02*
X0036515Y0143565D01*
X0036515Y0141966D02*
X0048996Y0141966D01*
X0047437Y0140368D02*
X0036515Y0140368D01*
X0036515Y0138769D02*
X0047115Y0138769D01*
X0047557Y0137171D02*
X0036515Y0137171D01*
X0036515Y0135572D02*
X0049701Y0135572D01*
X0051329Y0135572D02*
X0105829Y0135572D01*
X0107428Y0133974D02*
X0036515Y0133974D01*
X0036515Y0132375D02*
X0109026Y0132375D01*
X0110625Y0130777D02*
X0036515Y0130777D01*
X0036515Y0129178D02*
X0112223Y0129178D01*
X0113822Y0127579D02*
X0036515Y0127579D01*
X0036515Y0125981D02*
X0115421Y0125981D01*
X0117019Y0124382D02*
X0036515Y0124382D01*
X0036515Y0122784D02*
X0121301Y0122784D01*
X0122899Y0121185D02*
X0036515Y0121185D01*
X0036515Y0119587D02*
X0124498Y0119587D01*
X0126092Y0119587D02*
X0148615Y0119587D01*
X0150213Y0117988D02*
X0036515Y0117988D01*
X0036515Y0116390D02*
X0151812Y0116390D01*
X0153410Y0114791D02*
X0036515Y0114791D01*
X0036515Y0113193D02*
X0155009Y0113193D01*
X0156607Y0111594D02*
X0036515Y0111594D01*
X0036515Y0109996D02*
X0158206Y0109996D01*
X0159804Y0108397D02*
X0036515Y0108397D01*
X0036515Y0106799D02*
X0161403Y0106799D01*
X0163001Y0105200D02*
X0036515Y0105200D01*
X0036515Y0103602D02*
X0164600Y0103602D01*
X0166198Y0102003D02*
X0036515Y0102003D01*
X0036515Y0100405D02*
X0099757Y0100405D01*
X0100639Y0101286D02*
X0097944Y0098591D01*
X0097944Y0094781D01*
X0100639Y0092086D01*
X0104449Y0092086D01*
X0107144Y0094781D01*
X0107144Y0098591D01*
X0104449Y0101286D01*
X0100639Y0101286D01*
X0098159Y0098806D02*
X0036515Y0098806D01*
X0036515Y0097208D02*
X0097944Y0097208D01*
X0097944Y0095609D02*
X0036515Y0095609D01*
X0036515Y0094011D02*
X0098714Y0094011D01*
X0100312Y0092412D02*
X0036206Y0092412D01*
X0034774Y0090814D02*
X0177388Y0090814D01*
X0175789Y0092412D02*
X0104775Y0092412D01*
X0106374Y0094011D02*
X0174191Y0094011D01*
X0172592Y0095609D02*
X0107144Y0095609D01*
X0107144Y0097208D02*
X0170994Y0097208D01*
X0169395Y0098806D02*
X0106929Y0098806D01*
X0105330Y0100405D02*
X0167797Y0100405D01*
X0170257Y0103602D02*
X0276515Y0103602D01*
X0276515Y0105200D02*
X0168658Y0105200D01*
X0167059Y0106799D02*
X0276515Y0106799D01*
X0276515Y0108397D02*
X0165461Y0108397D01*
X0163862Y0109996D02*
X0276515Y0109996D01*
X0276515Y0111594D02*
X0162264Y0111594D01*
X0160665Y0113193D02*
X0276515Y0113193D01*
X0276515Y0114791D02*
X0159067Y0114791D01*
X0157468Y0116390D02*
X0276515Y0116390D01*
X0276515Y0117988D02*
X0155870Y0117988D01*
X0154271Y0119587D02*
X0276515Y0119587D01*
X0276515Y0121185D02*
X0152673Y0121185D01*
X0151074Y0122784D02*
X0276515Y0122784D01*
X0276515Y0124382D02*
X0149476Y0124382D01*
X0147877Y0125981D02*
X0275089Y0125981D01*
X0273491Y0127579D02*
X0146279Y0127579D01*
X0144680Y0129178D02*
X0271892Y0129178D01*
X0270294Y0130777D02*
X0143082Y0130777D01*
X0141483Y0132375D02*
X0268695Y0132375D01*
X0267097Y0133974D02*
X0139885Y0133974D01*
X0142360Y0135572D02*
X0265498Y0135572D01*
X0263900Y0137171D02*
X0143959Y0137171D01*
X0144237Y0138769D02*
X0262301Y0138769D01*
X0260703Y0140368D02*
X0144237Y0140368D01*
X0144520Y0141708D02*
X0148497Y0141708D01*
X0149761Y0142973D01*
X0146508Y0146225D01*
X0143256Y0142973D01*
X0144520Y0141708D01*
X0144262Y0141966D02*
X0143697Y0141966D01*
X0142249Y0141966D02*
X0141683Y0141966D01*
X0142098Y0143565D02*
X0142664Y0143565D01*
X0142973Y0143256D02*
X0141708Y0144520D01*
X0141708Y0148497D01*
X0142973Y0149761D01*
X0146225Y0146508D01*
X0146508Y0146225D01*
X0146791Y0146508D01*
X0150044Y0143256D01*
X0151308Y0144520D01*
X0151308Y0148497D01*
X0150044Y0149761D01*
X0146791Y0146508D01*
X0146508Y0146791D01*
X0146225Y0146508D01*
X0142973Y0143256D01*
X0143282Y0143565D02*
X0143847Y0143565D01*
X0144880Y0145163D02*
X0145446Y0145163D01*
X0145972Y0146762D02*
X0146479Y0146762D01*
X0146508Y0146791D02*
X0143256Y0150044D01*
X0144520Y0151308D01*
X0148497Y0151308D01*
X0149761Y0150044D01*
X0146508Y0146791D01*
X0146538Y0146762D02*
X0147044Y0146762D01*
X0147571Y0145163D02*
X0148136Y0145163D01*
X0149169Y0143565D02*
X0149735Y0143565D01*
X0150353Y0143565D02*
X0257506Y0143565D01*
X0259104Y0141966D02*
X0148754Y0141966D01*
X0151308Y0145163D02*
X0255907Y0145163D01*
X0254308Y0146762D02*
X0151308Y0146762D01*
X0151308Y0148360D02*
X0252710Y0148360D01*
X0251111Y0149959D02*
X0156747Y0149959D01*
X0156832Y0150044D02*
X0153579Y0153297D01*
X0150327Y0150044D01*
X0151591Y0148779D01*
X0155568Y0148779D01*
X0156832Y0150044D01*
X0157115Y0150327D02*
X0158379Y0151591D01*
X0158379Y0155568D01*
X0157115Y0156832D01*
X0153862Y0153579D01*
X0157115Y0150327D01*
X0158345Y0151557D02*
X0249513Y0151557D01*
X0247914Y0153156D02*
X0158379Y0153156D01*
X0158379Y0154754D02*
X0246316Y0154754D01*
X0244717Y0156353D02*
X0162858Y0156353D01*
X0162556Y0156051D02*
X0165250Y0158745D01*
X0165250Y0162556D01*
X0162556Y0165250D01*
X0158745Y0165250D01*
X0156051Y0162556D01*
X0156051Y0158745D01*
X0158745Y0156051D01*
X0162556Y0156051D01*
X0164457Y0157951D02*
X0243119Y0157951D01*
X0241520Y0159550D02*
X0165250Y0159550D01*
X0165250Y0161148D02*
X0239922Y0161148D01*
X0238323Y0162747D02*
X0165060Y0162747D01*
X0165816Y0163122D02*
X0163122Y0165816D01*
X0163122Y0169627D01*
X0165816Y0172322D01*
X0169627Y0172322D01*
X0172322Y0169627D01*
X0172322Y0165816D01*
X0169627Y0163122D01*
X0165816Y0163122D01*
X0164592Y0164345D02*
X0163461Y0164345D01*
X0163122Y0165944D02*
X0145044Y0165944D01*
X0145044Y0167542D02*
X0163122Y0167542D01*
X0163122Y0169141D02*
X0144501Y0169141D01*
X0145610Y0169164D02*
X0149421Y0169164D01*
X0152115Y0171858D01*
X0152115Y0175669D01*
X0149421Y0178363D01*
X0145610Y0178363D01*
X0142915Y0175669D01*
X0142915Y0171858D01*
X0145610Y0169164D01*
X0144034Y0170739D02*
X0142903Y0170739D01*
X0142915Y0172338D02*
X0138115Y0172338D01*
X0138115Y0173936D02*
X0142915Y0173936D01*
X0142915Y0175535D02*
X0138115Y0175535D01*
X0138115Y0177133D02*
X0144380Y0177133D01*
X0149986Y0178929D02*
X0149986Y0182740D01*
X0152681Y0185435D01*
X0156492Y0185435D01*
X0159186Y0182740D01*
X0159186Y0178929D01*
X0156492Y0176235D01*
X0152681Y0176235D01*
X0149986Y0178929D01*
X0150184Y0178732D02*
X0138115Y0178732D01*
X0138115Y0180330D02*
X0149986Y0180330D01*
X0149986Y0181929D02*
X0138115Y0181929D01*
X0138115Y0183527D02*
X0150774Y0183527D01*
X0152372Y0185126D02*
X0138115Y0185126D01*
X0138115Y0186724D02*
X0157057Y0186724D01*
X0157057Y0186000D02*
X0159752Y0183306D01*
X0163563Y0183306D01*
X0166257Y0186000D01*
X0166257Y0189811D01*
X0163563Y0192506D01*
X0159752Y0192506D01*
X0157057Y0189811D01*
X0157057Y0186000D01*
X0156800Y0185126D02*
X0157932Y0185126D01*
X0158399Y0183527D02*
X0159530Y0183527D01*
X0159186Y0181929D02*
X0177264Y0181929D01*
X0177264Y0183527D02*
X0163784Y0183527D01*
X0165383Y0185126D02*
X0178621Y0185126D01*
X0184335Y0187029D02*
X0184335Y0190840D01*
X0187029Y0193535D01*
X0190840Y0193535D01*
X0193535Y0190840D01*
X0193535Y0187029D01*
X0190840Y0184335D01*
X0187029Y0184335D01*
X0184335Y0187029D01*
X0184640Y0186724D02*
X0166257Y0186724D01*
X0166257Y0188323D02*
X0184335Y0188323D01*
X0184335Y0189921D02*
X0166147Y0189921D01*
X0165680Y0191520D02*
X0164548Y0191520D01*
X0164128Y0193118D02*
X0141927Y0193118D01*
X0138115Y0191520D02*
X0158766Y0191520D01*
X0157168Y0189921D02*
X0138115Y0189921D01*
X0138115Y0188323D02*
X0157057Y0188323D01*
X0159186Y0180330D02*
X0177264Y0180330D01*
X0177359Y0178732D02*
X0178490Y0178732D01*
X0172226Y0178732D02*
X0158989Y0178732D01*
X0157390Y0177133D02*
X0170628Y0177133D01*
X0170193Y0175535D02*
X0152115Y0175535D01*
X0152115Y0173936D02*
X0170193Y0173936D01*
X0170742Y0172338D02*
X0152115Y0172338D01*
X0150996Y0170739D02*
X0164234Y0170739D01*
X0171209Y0170739D02*
X0172341Y0170739D01*
X0172322Y0169141D02*
X0231929Y0169141D01*
X0230331Y0170739D02*
X0177245Y0170739D01*
X0172322Y0167542D02*
X0233528Y0167542D01*
X0235126Y0165944D02*
X0172322Y0165944D01*
X0170851Y0164345D02*
X0236725Y0164345D01*
X0241447Y0167542D02*
X0311961Y0167542D01*
X0311961Y0165944D02*
X0243046Y0165944D01*
X0244644Y0164345D02*
X0311961Y0164345D01*
X0311961Y0162747D02*
X0246243Y0162747D01*
X0247841Y0161148D02*
X0311961Y0161148D01*
X0311961Y0159550D02*
X0249440Y0159550D01*
X0251038Y0157951D02*
X0311961Y0157951D01*
X0311961Y0156353D02*
X0252637Y0156353D01*
X0254236Y0154754D02*
X0311961Y0154754D01*
X0311961Y0153156D02*
X0255834Y0153156D01*
X0257433Y0151557D02*
X0311961Y0151557D01*
X0311961Y0149959D02*
X0259031Y0149959D01*
X0260630Y0148360D02*
X0311961Y0148360D01*
X0311961Y0146762D02*
X0262228Y0146762D01*
X0263827Y0145163D02*
X0311961Y0145163D01*
X0311961Y0143565D02*
X0265425Y0143565D01*
X0267024Y0141966D02*
X0311961Y0141966D01*
X0311961Y0140368D02*
X0268622Y0140368D01*
X0270221Y0138769D02*
X0311961Y0138769D01*
X0311961Y0137171D02*
X0271819Y0137171D01*
X0273418Y0135572D02*
X0311961Y0135572D01*
X0311961Y0133974D02*
X0275016Y0133974D01*
X0276615Y0132375D02*
X0311961Y0132375D01*
X0311961Y0130777D02*
X0278213Y0130777D01*
X0279812Y0129178D02*
X0311961Y0129178D01*
X0311961Y0127579D02*
X0281410Y0127579D01*
X0282115Y0125981D02*
X0311961Y0125981D01*
X0311961Y0124382D02*
X0282115Y0124382D01*
X0282115Y0122784D02*
X0311961Y0122784D01*
X0311961Y0121185D02*
X0282115Y0121185D01*
X0282115Y0119587D02*
X0311961Y0119587D01*
X0311961Y0117988D02*
X0282115Y0117988D01*
X0282115Y0116390D02*
X0311961Y0116390D01*
X0311961Y0114791D02*
X0282115Y0114791D01*
X0282115Y0113193D02*
X0311961Y0113193D01*
X0311961Y0111594D02*
X0282115Y0111594D01*
X0282115Y0109996D02*
X0311961Y0109996D01*
X0311961Y0108397D02*
X0282115Y0108397D01*
X0282115Y0106799D02*
X0311961Y0106799D01*
X0311961Y0105200D02*
X0282115Y0105200D01*
X0282115Y0103602D02*
X0311961Y0103602D01*
X0311961Y0102003D02*
X0282115Y0102003D01*
X0282115Y0100405D02*
X0311961Y0100405D01*
X0311961Y0098806D02*
X0282115Y0098806D01*
X0282115Y0097208D02*
X0311961Y0097208D01*
X0311961Y0095609D02*
X0282115Y0095609D01*
X0282115Y0094011D02*
X0311961Y0094011D01*
X0311961Y0092412D02*
X0282115Y0092412D01*
X0282115Y0090814D02*
X0311961Y0090814D01*
X0311961Y0089215D02*
X0282115Y0089215D01*
X0282115Y0087617D02*
X0311961Y0087617D01*
X0311961Y0086018D02*
X0282115Y0086018D01*
X0282115Y0084420D02*
X0311961Y0084420D01*
X0311961Y0082821D02*
X0282115Y0082821D01*
X0282115Y0081223D02*
X0311961Y0081223D01*
X0311961Y0079624D02*
X0282115Y0079624D01*
X0282115Y0078026D02*
X0311961Y0078026D01*
X0311961Y0076427D02*
X0282115Y0076427D01*
X0282115Y0074829D02*
X0311961Y0074829D01*
X0311961Y0073230D02*
X0282115Y0073230D01*
X0282115Y0071632D02*
X0311961Y0071632D01*
X0311961Y0070033D02*
X0282115Y0070033D01*
X0282115Y0068435D02*
X0311961Y0068435D01*
X0311961Y0066836D02*
X0282115Y0066836D01*
X0282115Y0065238D02*
X0311961Y0065238D01*
X0311961Y0063639D02*
X0282115Y0063639D01*
X0282115Y0062041D02*
X0311961Y0062041D01*
X0311961Y0060442D02*
X0282115Y0060442D01*
X0282115Y0058844D02*
X0289838Y0058844D01*
X0288240Y0057245D02*
X0282115Y0057245D01*
X0282115Y0055646D02*
X0287515Y0055646D01*
X0287515Y0054048D02*
X0282115Y0054048D01*
X0282115Y0052449D02*
X0287775Y0052449D01*
X0294392Y0058844D02*
X0298081Y0058844D01*
X0297515Y0057245D02*
X0295990Y0057245D01*
X0296715Y0055646D02*
X0297515Y0055646D01*
X0297515Y0054048D02*
X0296715Y0054048D01*
X0300812Y0049252D02*
X0311961Y0049252D01*
X0311961Y0047654D02*
X0299214Y0047654D01*
X0306614Y0050851D02*
X0311961Y0050851D01*
X0311961Y0052449D02*
X0306715Y0052449D01*
X0306715Y0054048D02*
X0311961Y0054048D01*
X0311961Y0055646D02*
X0306715Y0055646D01*
X0306715Y0057245D02*
X0311961Y0057245D01*
X0311961Y0058844D02*
X0306149Y0058844D01*
X0311961Y0046055D02*
X0280815Y0046055D01*
X0279217Y0044457D02*
X0311961Y0044457D01*
X0311961Y0042858D02*
X0277618Y0042858D01*
X0276020Y0041260D02*
X0311961Y0041260D01*
X0311961Y0039661D02*
X0274421Y0039661D01*
X0272823Y0038063D02*
X0311961Y0038063D01*
X0311961Y0036464D02*
X0271224Y0036464D01*
X0269626Y0034866D02*
X0311961Y0034866D01*
X0311961Y0033267D02*
X0302607Y0033267D01*
X0305233Y0031669D02*
X0311961Y0031669D01*
X0311961Y0030070D02*
X0306832Y0030070D01*
X0308017Y0028472D02*
X0311961Y0028472D01*
X0311961Y0026873D02*
X0308940Y0026873D01*
X0309487Y0025275D02*
X0311961Y0025275D01*
X0311961Y0023676D02*
X0309915Y0023676D01*
X0310045Y0022078D02*
X0311961Y0022078D01*
X0311961Y0020479D02*
X0310999Y0020479D01*
X0298047Y0007691D02*
X0020514Y0007691D01*
X0026081Y0009290D02*
X0240912Y0009290D01*
X0239313Y0010888D02*
X0237676Y0010888D01*
X0234815Y0010888D02*
X0234415Y0010888D01*
X0234415Y0012487D02*
X0234815Y0012487D01*
X0234815Y0014085D02*
X0234415Y0014085D01*
X0234415Y0015684D02*
X0234815Y0015684D01*
X0234815Y0017282D02*
X0234415Y0017282D01*
X0234415Y0018881D02*
X0234815Y0018881D01*
X0237137Y0018881D02*
X0238115Y0018881D01*
X0238115Y0020479D02*
X0056985Y0020479D01*
X0056520Y0020015D02*
X0059215Y0022710D01*
X0059215Y0026520D01*
X0056520Y0029215D01*
X0052710Y0029215D01*
X0050015Y0026520D01*
X0050015Y0022710D01*
X0052710Y0020015D01*
X0056520Y0020015D01*
X0058278Y0019215D02*
X0059215Y0018278D01*
X0059215Y0010952D01*
X0058278Y0010015D01*
X0050952Y0010015D01*
X0050015Y0010952D01*
X0050015Y0018278D01*
X0050952Y0019215D01*
X0058278Y0019215D01*
X0058612Y0018881D02*
X0232093Y0018881D01*
X0230494Y0017282D02*
X0059215Y0017282D01*
X0059215Y0015684D02*
X0229815Y0015684D01*
X0229815Y0014085D02*
X0059215Y0014085D01*
X0059215Y0012487D02*
X0229955Y0012487D01*
X0231554Y0010888D02*
X0059151Y0010888D01*
X0050079Y0010888D02*
X0029069Y0010888D01*
X0030828Y0012487D02*
X0050015Y0012487D01*
X0050015Y0014085D02*
X0032188Y0014085D01*
X0033111Y0015684D02*
X0050015Y0015684D01*
X0050015Y0017282D02*
X0033786Y0017282D01*
X0034214Y0018881D02*
X0050618Y0018881D01*
X0052245Y0020479D02*
X0034454Y0020479D01*
X0034454Y0022078D02*
X0050647Y0022078D01*
X0050015Y0023676D02*
X0034325Y0023676D01*
X0033896Y0025275D02*
X0050015Y0025275D01*
X0050368Y0026873D02*
X0033350Y0026873D01*
X0032427Y0028472D02*
X0051966Y0028472D01*
X0057263Y0028472D02*
X0238115Y0028472D01*
X0238115Y0030070D02*
X0031241Y0030070D01*
X0029643Y0031669D02*
X0236533Y0031669D01*
X0234934Y0033267D02*
X0027016Y0033267D01*
X0015954Y0033267D02*
X0006600Y0033267D01*
X0006600Y0031669D02*
X0013327Y0031669D01*
X0011729Y0030070D02*
X0006600Y0030070D01*
X0006600Y0028472D02*
X0010543Y0028472D01*
X0009620Y0026873D02*
X0006600Y0026873D01*
X0006600Y0025275D02*
X0009074Y0025275D01*
X0008645Y0023676D02*
X0006600Y0023676D01*
X0006600Y0022078D02*
X0008516Y0022078D01*
X0007561Y0020479D02*
X0006600Y0020479D01*
X0006600Y0034866D02*
X0233336Y0034866D01*
X0231737Y0036464D02*
X0006600Y0036464D01*
X0006600Y0038063D02*
X0230139Y0038063D01*
X0228540Y0039661D02*
X0006600Y0039661D01*
X0006600Y0041260D02*
X0226942Y0041260D01*
X0225343Y0042858D02*
X0006600Y0042858D01*
X0006600Y0044457D02*
X0223745Y0044457D01*
X0222146Y0046055D02*
X0006600Y0046055D01*
X0006600Y0047654D02*
X0220548Y0047654D01*
X0218949Y0049252D02*
X0006600Y0049252D01*
X0006600Y0050851D02*
X0217351Y0050851D01*
X0215752Y0052449D02*
X0006600Y0052449D01*
X0006600Y0054048D02*
X0214154Y0054048D01*
X0212555Y0055646D02*
X0006600Y0055646D01*
X0006600Y0057245D02*
X0210956Y0057245D01*
X0209358Y0058844D02*
X0006600Y0058844D01*
X0006600Y0060442D02*
X0010525Y0060442D01*
X0010952Y0060015D02*
X0018278Y0060015D01*
X0019215Y0060952D01*
X0019215Y0068278D01*
X0018278Y0069215D01*
X0010952Y0069215D01*
X0010015Y0068278D01*
X0010015Y0060952D01*
X0010952Y0060015D01*
X0010015Y0062041D02*
X0006600Y0062041D01*
X0006600Y0063639D02*
X0010015Y0063639D01*
X0010015Y0065238D02*
X0006600Y0065238D01*
X0006600Y0066836D02*
X0010015Y0066836D01*
X0010172Y0068435D02*
X0006600Y0068435D01*
X0006600Y0070033D02*
X0012691Y0070033D01*
X0011093Y0071632D02*
X0006600Y0071632D01*
X0006600Y0073230D02*
X0010015Y0073230D01*
X0010015Y0074829D02*
X0006600Y0074829D01*
X0006600Y0076427D02*
X0010015Y0076427D01*
X0011520Y0078026D02*
X0006600Y0078026D01*
X0006600Y0079624D02*
X0015664Y0079624D01*
X0014415Y0079815D02*
X0012627Y0079815D01*
X0009815Y0082627D01*
X0009815Y0084415D01*
X0014415Y0084415D01*
X0014415Y0079815D01*
X0014415Y0081223D02*
X0014815Y0081223D01*
X0014815Y0082821D02*
X0014415Y0082821D01*
X0014415Y0084420D02*
X0006600Y0084420D01*
X0006600Y0086018D02*
X0009815Y0086018D01*
X0010828Y0087617D02*
X0006600Y0087617D01*
X0006600Y0089215D02*
X0012427Y0089215D01*
X0014415Y0089215D02*
X0014815Y0089215D01*
X0014815Y0089415D02*
X0014815Y0084815D01*
X0019415Y0084815D01*
X0019415Y0086603D01*
X0016603Y0089415D01*
X0014815Y0089415D01*
X0014815Y0087617D02*
X0014415Y0087617D01*
X0014415Y0086018D02*
X0014815Y0086018D01*
X0014815Y0084420D02*
X0020460Y0084420D01*
X0019415Y0086018D02*
X0022058Y0086018D01*
X0023657Y0087617D02*
X0018401Y0087617D01*
X0016803Y0089215D02*
X0025255Y0089215D01*
X0026854Y0090814D02*
X0006600Y0090814D01*
X0006600Y0092412D02*
X0028452Y0092412D01*
X0030051Y0094011D02*
X0006600Y0094011D01*
X0006600Y0095609D02*
X0030915Y0095609D01*
X0030915Y0097208D02*
X0006600Y0097208D01*
X0006600Y0098806D02*
X0030915Y0098806D01*
X0030915Y0100405D02*
X0006600Y0100405D01*
X0006600Y0102003D02*
X0030915Y0102003D01*
X0030915Y0103602D02*
X0006600Y0103602D01*
X0006600Y0105200D02*
X0030915Y0105200D01*
X0030915Y0106799D02*
X0006600Y0106799D01*
X0006600Y0108397D02*
X0030915Y0108397D01*
X0030915Y0109996D02*
X0006600Y0109996D01*
X0006600Y0111594D02*
X0030915Y0111594D01*
X0030915Y0113193D02*
X0006600Y0113193D01*
X0006600Y0114791D02*
X0030915Y0114791D01*
X0030915Y0116390D02*
X0006600Y0116390D01*
X0006600Y0117988D02*
X0012236Y0117988D01*
X0012710Y0117515D02*
X0010015Y0120210D01*
X0010015Y0124020D01*
X0012710Y0126715D01*
X0016520Y0126715D01*
X0019215Y0124020D01*
X0019215Y0120210D01*
X0016520Y0117515D01*
X0012710Y0117515D01*
X0010638Y0119587D02*
X0006600Y0119587D01*
X0006600Y0121185D02*
X0010015Y0121185D01*
X0010015Y0122784D02*
X0006600Y0122784D01*
X0006600Y0124382D02*
X0010377Y0124382D01*
X0011976Y0125981D02*
X0006600Y0125981D01*
X0006600Y0127579D02*
X0012645Y0127579D01*
X0012710Y0127515D02*
X0016520Y0127515D01*
X0019215Y0130210D01*
X0019215Y0134020D01*
X0016520Y0136715D01*
X0012710Y0136715D01*
X0010015Y0134020D01*
X0010015Y0130210D01*
X0012710Y0127515D01*
X0011047Y0129178D02*
X0006600Y0129178D01*
X0006600Y0130777D02*
X0010015Y0130777D01*
X0010015Y0132375D02*
X0006600Y0132375D01*
X0006600Y0133974D02*
X0010015Y0133974D01*
X0011567Y0135572D02*
X0006600Y0135572D01*
X0017663Y0135572D02*
X0021284Y0135572D01*
X0022627Y0136915D02*
X0019815Y0134103D01*
X0019815Y0132315D01*
X0024415Y0132315D01*
X0024415Y0136915D01*
X0022627Y0136915D01*
X0024815Y0136915D02*
X0024815Y0132315D01*
X0024415Y0132315D01*
X0024415Y0131915D01*
X0019815Y0131915D01*
X0019815Y0130127D01*
X0022627Y0127315D01*
X0024415Y0127315D01*
X0024415Y0131915D01*
X0024815Y0131915D01*
X0024815Y0132315D01*
X0029415Y0132315D01*
X0029415Y0134103D01*
X0026603Y0136915D01*
X0024815Y0136915D01*
X0024815Y0135572D02*
X0024415Y0135572D01*
X0024415Y0133974D02*
X0024815Y0133974D01*
X0024815Y0132375D02*
X0024415Y0132375D01*
X0024815Y0131915D02*
X0029415Y0131915D01*
X0029415Y0130127D01*
X0026603Y0127315D01*
X0024815Y0127315D01*
X0024815Y0131915D01*
X0024815Y0130777D02*
X0024415Y0130777D01*
X0024415Y0129178D02*
X0024815Y0129178D01*
X0024815Y0127579D02*
X0024415Y0127579D01*
X0022710Y0126715D02*
X0020015Y0124020D01*
X0020015Y0120210D01*
X0022710Y0117515D01*
X0026520Y0117515D01*
X0029215Y0120210D01*
X0029215Y0124020D01*
X0026520Y0126715D01*
X0022710Y0126715D01*
X0022362Y0127579D02*
X0016585Y0127579D01*
X0017254Y0125981D02*
X0021976Y0125981D01*
X0020377Y0124382D02*
X0018853Y0124382D01*
X0019215Y0122784D02*
X0020015Y0122784D01*
X0020015Y0121185D02*
X0019215Y0121185D01*
X0018592Y0119587D02*
X0020638Y0119587D01*
X0022236Y0117988D02*
X0016994Y0117988D01*
X0026994Y0117988D02*
X0030915Y0117988D01*
X0030915Y0119587D02*
X0028592Y0119587D01*
X0029215Y0121185D02*
X0030915Y0121185D01*
X0030915Y0122784D02*
X0029215Y0122784D01*
X0028853Y0124382D02*
X0030915Y0124382D01*
X0030915Y0125981D02*
X0027254Y0125981D01*
X0026868Y0127579D02*
X0030915Y0127579D01*
X0030915Y0129178D02*
X0028466Y0129178D01*
X0029415Y0130777D02*
X0030915Y0130777D01*
X0030915Y0132375D02*
X0029415Y0132375D01*
X0029415Y0133974D02*
X0030915Y0133974D01*
X0030915Y0135572D02*
X0027946Y0135572D01*
X0024815Y0138769D02*
X0024415Y0138769D01*
X0024415Y0140368D02*
X0024815Y0140368D01*
X0024815Y0143565D02*
X0024415Y0143565D01*
X0024415Y0145163D02*
X0024815Y0145163D01*
X0028355Y0145163D02*
X0030915Y0145163D01*
X0030915Y0143565D02*
X0029415Y0143565D01*
X0021173Y0138769D02*
X0017774Y0138769D01*
X0019215Y0140368D02*
X0019815Y0140368D01*
X0019815Y0133974D02*
X0019215Y0133974D01*
X0019215Y0132375D02*
X0019815Y0132375D01*
X0019815Y0130777D02*
X0019215Y0130777D01*
X0018183Y0129178D02*
X0020764Y0129178D01*
X0052033Y0141966D02*
X0108915Y0141966D01*
X0107614Y0140368D02*
X0106691Y0140368D01*
X0114231Y0133974D02*
X0127566Y0133974D01*
X0127566Y0132375D02*
X0114683Y0132375D01*
X0116282Y0130777D02*
X0124271Y0130777D01*
X0126319Y0130777D02*
X0127566Y0130777D01*
X0127918Y0129178D02*
X0128766Y0129178D01*
X0128895Y0129178D02*
X0129461Y0129178D01*
X0129516Y0127579D02*
X0130365Y0127579D01*
X0131115Y0125981D02*
X0142221Y0125981D01*
X0143819Y0124382D02*
X0130888Y0124382D01*
X0129289Y0122784D02*
X0145418Y0122784D01*
X0147016Y0121185D02*
X0127691Y0121185D01*
X0134368Y0127579D02*
X0140622Y0127579D01*
X0139023Y0129178D02*
X0135966Y0129178D01*
X0135837Y0129178D02*
X0135272Y0129178D01*
X0134239Y0130777D02*
X0133673Y0130777D01*
X0132649Y0132366D02*
X0134242Y0133959D01*
X0133959Y0134242D01*
X0132366Y0132649D01*
X0132649Y0132366D01*
X0132640Y0132375D02*
X0132658Y0132375D01*
X0132092Y0132375D02*
X0132075Y0132375D01*
X0131059Y0130777D02*
X0130494Y0130777D01*
X0130476Y0133974D02*
X0131042Y0133974D01*
X0129443Y0135572D02*
X0128878Y0135572D01*
X0128784Y0135572D02*
X0115829Y0135572D01*
X0116760Y0137171D02*
X0132515Y0137171D01*
X0132515Y0138769D02*
X0116760Y0138769D01*
X0116706Y0140368D02*
X0132515Y0140368D01*
X0132515Y0141966D02*
X0122461Y0141966D01*
X0122484Y0141944D02*
X0119231Y0145196D01*
X0115978Y0141944D01*
X0117243Y0140679D01*
X0121219Y0140679D01*
X0122484Y0141944D01*
X0121428Y0143565D02*
X0120863Y0143565D01*
X0119830Y0145163D02*
X0119264Y0145163D01*
X0119198Y0145163D02*
X0118632Y0145163D01*
X0118231Y0146762D02*
X0117666Y0146762D01*
X0116633Y0148360D02*
X0116067Y0148360D01*
X0115324Y0148360D02*
X0114515Y0148360D01*
X0114515Y0149959D02*
X0116922Y0149959D01*
X0114515Y0151557D02*
X0121702Y0151557D01*
X0121702Y0153156D02*
X0114515Y0153156D01*
X0114515Y0154754D02*
X0122001Y0154754D01*
X0123599Y0156353D02*
X0114515Y0156353D01*
X0114515Y0157951D02*
X0124250Y0157951D01*
X0122652Y0159550D02*
X0114515Y0159550D01*
X0114515Y0161148D02*
X0121053Y0161148D01*
X0119455Y0162747D02*
X0114828Y0162747D01*
X0115115Y0164345D02*
X0117856Y0164345D01*
X0116258Y0165944D02*
X0114638Y0165944D01*
X0114659Y0167542D02*
X0111889Y0167542D01*
X0113061Y0169141D02*
X0100249Y0169141D01*
X0098650Y0170739D02*
X0112915Y0170739D01*
X0112915Y0172338D02*
X0097052Y0172338D01*
X0095453Y0173936D02*
X0112915Y0173936D01*
X0112915Y0175535D02*
X0093855Y0175535D01*
X0092256Y0177133D02*
X0112915Y0177133D01*
X0112915Y0178732D02*
X0090658Y0178732D01*
X0089059Y0180330D02*
X0112915Y0180330D01*
X0112915Y0181929D02*
X0087461Y0181929D01*
X0085862Y0183527D02*
X0112915Y0183527D01*
X0112915Y0185126D02*
X0084264Y0185126D01*
X0082665Y0186724D02*
X0112915Y0186724D01*
X0112915Y0188323D02*
X0081067Y0188323D01*
X0079468Y0189921D02*
X0112915Y0189921D01*
X0112915Y0191520D02*
X0077870Y0191520D01*
X0076271Y0193118D02*
X0112915Y0193118D01*
X0112915Y0194717D02*
X0074673Y0194717D01*
X0073074Y0196315D02*
X0112915Y0196315D01*
X0112915Y0197914D02*
X0071476Y0197914D01*
X0069877Y0199512D02*
X0076781Y0199512D01*
X0076315Y0201111D02*
X0068279Y0201111D01*
X0066680Y0202710D02*
X0076612Y0202710D01*
X0078056Y0204308D02*
X0065082Y0204308D01*
X0063483Y0205907D02*
X0101478Y0205907D01*
X0102897Y0207505D02*
X0062133Y0207505D01*
X0058761Y0202710D02*
X0040338Y0202710D01*
X0041936Y0204308D02*
X0057162Y0204308D01*
X0055564Y0205907D02*
X0043535Y0205907D01*
X0046933Y0207505D02*
X0053965Y0207505D01*
X0052367Y0209104D02*
X0048410Y0209104D01*
X0048715Y0210702D02*
X0050768Y0210702D01*
X0049170Y0212301D02*
X0048255Y0212301D01*
X0047571Y0213899D02*
X0046030Y0213899D01*
X0044600Y0213899D02*
X0040115Y0213899D01*
X0040115Y0212301D02*
X0042374Y0212301D01*
X0041915Y0210702D02*
X0040115Y0210702D01*
X0040115Y0209104D02*
X0041075Y0209104D01*
X0040115Y0215498D02*
X0045973Y0215498D01*
X0044374Y0217096D02*
X0040115Y0217096D01*
X0040115Y0218695D02*
X0042775Y0218695D01*
X0038739Y0201111D02*
X0060359Y0201111D01*
X0061958Y0199512D02*
X0037141Y0199512D01*
X0035542Y0197914D02*
X0063556Y0197914D01*
X0065155Y0196315D02*
X0033944Y0196315D01*
X0033352Y0194717D02*
X0066753Y0194717D01*
X0068352Y0193118D02*
X0034814Y0193118D01*
X0035115Y0191520D02*
X0069950Y0191520D01*
X0081374Y0204308D02*
X0099880Y0204308D01*
X0102339Y0201111D02*
X0112915Y0201111D01*
X0112915Y0199512D02*
X0100741Y0199512D01*
X0103938Y0202710D02*
X0112915Y0202710D01*
X0112915Y0204308D02*
X0105536Y0204308D01*
X0107135Y0205907D02*
X0112915Y0205907D01*
X0112915Y0207505D02*
X0108733Y0207505D01*
X0109715Y0209104D02*
X0112915Y0209104D01*
X0112915Y0210702D02*
X0109715Y0210702D01*
X0110809Y0212301D02*
X0112915Y0212301D01*
X0112915Y0213899D02*
X0112519Y0213899D01*
X0138115Y0213899D02*
X0176715Y0213899D01*
X0176715Y0214391D02*
X0176715Y0213039D01*
X0177233Y0211789D01*
X0178189Y0210833D01*
X0179439Y0210315D01*
X0180791Y0210315D01*
X0182041Y0210833D01*
X0182923Y0211715D01*
X0258087Y0211715D01*
X0259743Y0211715D01*
X0303043Y0255015D01*
X0308278Y0255015D01*
X0309215Y0255952D01*
X0309215Y0263278D01*
X0308278Y0264215D01*
X0300952Y0264215D01*
X0300015Y0263278D01*
X0300015Y0257643D01*
X0258087Y0215715D01*
X0182923Y0215715D01*
X0182041Y0216597D01*
X0180791Y0217115D01*
X0179439Y0217115D01*
X0178189Y0216597D01*
X0177233Y0215641D01*
X0176715Y0214391D01*
X0177173Y0215498D02*
X0139208Y0215498D01*
X0139515Y0217096D02*
X0179393Y0217096D01*
X0180837Y0217096D02*
X0259468Y0217096D01*
X0261066Y0218695D02*
X0139058Y0218695D01*
X0137922Y0220293D02*
X0262665Y0220293D01*
X0264263Y0221892D02*
X0139520Y0221892D01*
X0141119Y0223490D02*
X0265862Y0223490D01*
X0267460Y0225089D02*
X0142717Y0225089D01*
X0144316Y0226687D02*
X0269059Y0226687D01*
X0270657Y0228286D02*
X0145914Y0228286D01*
X0147513Y0229884D02*
X0272256Y0229884D01*
X0273854Y0231483D02*
X0149111Y0231483D01*
X0150710Y0233081D02*
X0275453Y0233081D01*
X0277051Y0234680D02*
X0152308Y0234680D01*
X0153907Y0236278D02*
X0278650Y0236278D01*
X0280248Y0237877D02*
X0155505Y0237877D01*
X0157104Y0239475D02*
X0281847Y0239475D01*
X0283445Y0241074D02*
X0158702Y0241074D01*
X0160301Y0242672D02*
X0285044Y0242672D01*
X0286642Y0244271D02*
X0161899Y0244271D01*
X0163498Y0245869D02*
X0288241Y0245869D01*
X0289839Y0247468D02*
X0165096Y0247468D01*
X0166695Y0249066D02*
X0291438Y0249066D01*
X0293036Y0250665D02*
X0168293Y0250665D01*
X0169892Y0252263D02*
X0294635Y0252263D01*
X0296233Y0253862D02*
X0171490Y0253862D01*
X0173089Y0255460D02*
X0297832Y0255460D01*
X0299430Y0257059D02*
X0174687Y0257059D01*
X0176286Y0258657D02*
X0300015Y0258657D01*
X0300015Y0260256D02*
X0177884Y0260256D01*
X0179483Y0261854D02*
X0300015Y0261854D01*
X0300190Y0263453D02*
X0181081Y0263453D01*
X0182680Y0265051D02*
X0311961Y0265051D01*
X0311961Y0263453D02*
X0309040Y0263453D01*
X0309215Y0261854D02*
X0311961Y0261854D01*
X0311961Y0260256D02*
X0309215Y0260256D01*
X0309215Y0258657D02*
X0311961Y0258657D01*
X0311961Y0257059D02*
X0309215Y0257059D01*
X0308723Y0255460D02*
X0311961Y0255460D01*
X0311961Y0253862D02*
X0306873Y0253862D01*
X0308472Y0252263D02*
X0311961Y0252263D01*
X0311961Y0250665D02*
X0309215Y0250665D01*
X0309215Y0249066D02*
X0311961Y0249066D01*
X0311961Y0247468D02*
X0308973Y0247468D01*
X0307375Y0245869D02*
X0311961Y0245869D01*
X0311961Y0244271D02*
X0306747Y0244271D01*
X0304815Y0244271D02*
X0304415Y0244271D01*
X0304415Y0242672D02*
X0304815Y0242672D01*
X0304815Y0241074D02*
X0304415Y0241074D01*
X0304415Y0239475D02*
X0298635Y0239475D01*
X0299815Y0237877D02*
X0297037Y0237877D01*
X0295438Y0236278D02*
X0301163Y0236278D01*
X0304415Y0236278D02*
X0304815Y0236278D01*
X0304815Y0237877D02*
X0304415Y0237877D01*
X0304815Y0239475D02*
X0311961Y0239475D01*
X0311961Y0237877D02*
X0309415Y0237877D01*
X0308066Y0236278D02*
X0311961Y0236278D01*
X0311961Y0234680D02*
X0293840Y0234680D01*
X0292241Y0233081D02*
X0311961Y0233081D01*
X0311961Y0231483D02*
X0290643Y0231483D01*
X0289044Y0229884D02*
X0311961Y0229884D01*
X0311961Y0228286D02*
X0287445Y0228286D01*
X0285847Y0226687D02*
X0311961Y0226687D01*
X0311961Y0225089D02*
X0284248Y0225089D01*
X0282650Y0223490D02*
X0311961Y0223490D01*
X0311961Y0221892D02*
X0281051Y0221892D01*
X0279453Y0220293D02*
X0311961Y0220293D01*
X0311961Y0218695D02*
X0277854Y0218695D01*
X0276256Y0217096D02*
X0311961Y0217096D01*
X0311961Y0215498D02*
X0274657Y0215498D01*
X0273059Y0213899D02*
X0311961Y0213899D01*
X0311961Y0212301D02*
X0271460Y0212301D01*
X0269862Y0210702D02*
X0311961Y0210702D01*
X0311961Y0209104D02*
X0268263Y0209104D01*
X0266665Y0207505D02*
X0311961Y0207505D01*
X0311961Y0205907D02*
X0265066Y0205907D01*
X0263468Y0204308D02*
X0311961Y0204308D01*
X0311961Y0202710D02*
X0261869Y0202710D01*
X0260271Y0201111D02*
X0311961Y0201111D01*
X0311961Y0199512D02*
X0258672Y0199512D01*
X0257074Y0197914D02*
X0311961Y0197914D01*
X0311961Y0196315D02*
X0255475Y0196315D01*
X0253877Y0194717D02*
X0311961Y0194717D01*
X0311961Y0193118D02*
X0252278Y0193118D01*
X0250680Y0191520D02*
X0311961Y0191520D01*
X0311961Y0189921D02*
X0249081Y0189921D01*
X0247483Y0188323D02*
X0311961Y0188323D01*
X0311961Y0186724D02*
X0245884Y0186724D01*
X0244286Y0185126D02*
X0311961Y0185126D01*
X0311961Y0183527D02*
X0242687Y0183527D01*
X0241089Y0181929D02*
X0311961Y0181929D01*
X0311961Y0180330D02*
X0239490Y0180330D01*
X0237892Y0178732D02*
X0311961Y0178732D01*
X0311961Y0177133D02*
X0236293Y0177133D01*
X0234695Y0175535D02*
X0311961Y0175535D01*
X0311961Y0173936D02*
X0235053Y0173936D01*
X0236652Y0172338D02*
X0311961Y0172338D01*
X0311961Y0170739D02*
X0238250Y0170739D01*
X0239849Y0169141D02*
X0311961Y0169141D01*
X0266738Y0215498D02*
X0263526Y0215498D01*
X0265125Y0217096D02*
X0268336Y0217096D01*
X0269935Y0218695D02*
X0266723Y0218695D01*
X0268322Y0220293D02*
X0271533Y0220293D01*
X0273132Y0221892D02*
X0269920Y0221892D01*
X0271519Y0223490D02*
X0274730Y0223490D01*
X0276329Y0225089D02*
X0273117Y0225089D01*
X0274716Y0226687D02*
X0277927Y0226687D01*
X0279526Y0228286D02*
X0276314Y0228286D01*
X0277913Y0229884D02*
X0281124Y0229884D01*
X0282723Y0231483D02*
X0279511Y0231483D01*
X0281110Y0233081D02*
X0284321Y0233081D01*
X0285920Y0234680D02*
X0282708Y0234680D01*
X0284307Y0236278D02*
X0287518Y0236278D01*
X0289117Y0237877D02*
X0285905Y0237877D01*
X0287504Y0239475D02*
X0290715Y0239475D01*
X0292314Y0241074D02*
X0289102Y0241074D01*
X0290701Y0242672D02*
X0293913Y0242672D01*
X0295511Y0244271D02*
X0292299Y0244271D01*
X0293898Y0245869D02*
X0297110Y0245869D01*
X0298708Y0247468D02*
X0295496Y0247468D01*
X0297095Y0249066D02*
X0300015Y0249066D01*
X0300015Y0250665D02*
X0298693Y0250665D01*
X0300292Y0252263D02*
X0300758Y0252263D01*
X0301890Y0253862D02*
X0302357Y0253862D01*
X0308346Y0242672D02*
X0311961Y0242672D01*
X0311961Y0241074D02*
X0309415Y0241074D01*
X0311961Y0266650D02*
X0184278Y0266650D01*
X0185877Y0268248D02*
X0311961Y0268248D01*
X0311961Y0269847D02*
X0187475Y0269847D01*
X0189074Y0271446D02*
X0311961Y0271446D01*
X0311961Y0273044D02*
X0190672Y0273044D01*
X0192271Y0274643D02*
X0311961Y0274643D01*
X0311961Y0276241D02*
X0193869Y0276241D01*
X0195468Y0277840D02*
X0311961Y0277840D01*
X0311961Y0279438D02*
X0197066Y0279438D01*
X0198665Y0281037D02*
X0311961Y0281037D01*
X0311961Y0282635D02*
X0200263Y0282635D01*
X0201862Y0284234D02*
X0294893Y0284234D01*
X0299258Y0284234D02*
X0311961Y0284234D01*
X0311961Y0285832D02*
X0303540Y0285832D01*
X0305772Y0287431D02*
X0311961Y0287431D01*
X0311961Y0289029D02*
X0307370Y0289029D01*
X0308329Y0290628D02*
X0311961Y0290628D01*
X0311961Y0292226D02*
X0309203Y0292226D01*
X0309631Y0293825D02*
X0311961Y0293825D01*
X0311961Y0295423D02*
X0310045Y0295423D01*
X0310045Y0297022D02*
X0311961Y0297022D01*
X0298191Y0311408D02*
X0221581Y0311408D01*
X0223180Y0309810D02*
X0294491Y0309810D01*
X0290425Y0308211D02*
X0269215Y0308211D01*
X0269215Y0308278D02*
X0268278Y0309215D01*
X0260952Y0309215D01*
X0260015Y0308278D01*
X0260015Y0300952D01*
X0260952Y0300015D01*
X0268278Y0300015D01*
X0269215Y0300952D01*
X0269215Y0308278D01*
X0269215Y0306613D02*
X0288271Y0306613D01*
X0286683Y0305014D02*
X0269215Y0305014D01*
X0269215Y0303416D02*
X0285760Y0303416D01*
X0284919Y0301817D02*
X0269215Y0301817D01*
X0268481Y0300219D02*
X0284491Y0300219D01*
X0284106Y0298620D02*
X0267115Y0298620D01*
X0266520Y0299215D02*
X0262710Y0299215D01*
X0260015Y0296520D01*
X0260015Y0292710D01*
X0262710Y0290015D01*
X0266520Y0290015D01*
X0269215Y0292710D01*
X0269215Y0296520D01*
X0266520Y0299215D01*
X0268714Y0297022D02*
X0284106Y0297022D01*
X0284106Y0295423D02*
X0269215Y0295423D01*
X0269215Y0293825D02*
X0284520Y0293825D01*
X0284948Y0292226D02*
X0268732Y0292226D01*
X0267133Y0290628D02*
X0285823Y0290628D01*
X0286781Y0289029D02*
X0206658Y0289029D01*
X0205059Y0287431D02*
X0288379Y0287431D01*
X0290611Y0285832D02*
X0203461Y0285832D01*
X0209633Y0290628D02*
X0214597Y0290628D01*
X0212998Y0292226D02*
X0211232Y0292226D01*
X0211715Y0293825D02*
X0212515Y0293825D01*
X0212515Y0295423D02*
X0211715Y0295423D01*
X0211214Y0297022D02*
X0213016Y0297022D01*
X0214615Y0298620D02*
X0210249Y0298620D01*
X0211847Y0300219D02*
X0215006Y0300219D01*
X0213407Y0301817D02*
X0213315Y0301817D01*
X0221214Y0297022D02*
X0260516Y0297022D01*
X0260015Y0295423D02*
X0221715Y0295423D01*
X0221715Y0293825D02*
X0260015Y0293825D01*
X0260498Y0292226D02*
X0221232Y0292226D01*
X0219633Y0290628D02*
X0262097Y0290628D01*
X0262115Y0298620D02*
X0222180Y0298620D01*
X0223779Y0300219D02*
X0260748Y0300219D01*
X0260015Y0301817D02*
X0224857Y0301817D01*
X0224915Y0303416D02*
X0260015Y0303416D01*
X0260015Y0305014D02*
X0224915Y0305014D01*
X0224915Y0306613D02*
X0260015Y0306613D01*
X0260015Y0308211D02*
X0224609Y0308211D01*
X0194398Y0300826D02*
X0190915Y0297343D01*
X0190915Y0297320D01*
X0189020Y0299215D01*
X0185210Y0299215D01*
X0182515Y0296520D01*
X0182515Y0292710D01*
X0185210Y0290015D01*
X0189020Y0290015D01*
X0190915Y0291910D01*
X0190915Y0291743D01*
X0160315Y0261143D01*
X0160315Y0262391D01*
X0159797Y0263641D01*
X0158841Y0264597D01*
X0157591Y0265115D01*
X0156239Y0265115D01*
X0154989Y0264597D01*
X0154033Y0263641D01*
X0153515Y0262391D01*
X0153515Y0261515D01*
X0152639Y0261515D01*
X0151389Y0260997D01*
X0150433Y0260041D01*
X0149966Y0258915D01*
X0132475Y0258915D01*
X0164392Y0290832D01*
X0165210Y0290015D01*
X0169020Y0290015D01*
X0171715Y0292710D01*
X0171715Y0296520D01*
X0169020Y0299215D01*
X0165210Y0299215D01*
X0164915Y0298920D01*
X0164915Y0300310D01*
X0165210Y0300015D01*
X0169020Y0300015D01*
X0171715Y0302710D01*
X0171715Y0306520D01*
X0169720Y0308515D01*
X0174227Y0308515D01*
X0172315Y0306603D01*
X0172315Y0304815D01*
X0176915Y0304815D01*
X0176915Y0304415D01*
X0177315Y0304415D01*
X0177315Y0304815D01*
X0181915Y0304815D01*
X0181915Y0306603D01*
X0180003Y0308515D01*
X0184510Y0308515D01*
X0182515Y0306520D01*
X0182515Y0302710D01*
X0185210Y0300015D01*
X0189020Y0300015D01*
X0191715Y0302710D01*
X0191715Y0306487D01*
X0192143Y0306915D01*
X0192910Y0306915D01*
X0192515Y0306520D01*
X0192515Y0302710D01*
X0194398Y0300826D01*
X0193790Y0300219D02*
X0189224Y0300219D01*
X0189615Y0298620D02*
X0192192Y0298620D01*
X0193407Y0301817D02*
X0190823Y0301817D01*
X0191715Y0303416D02*
X0192515Y0303416D01*
X0192515Y0305014D02*
X0191715Y0305014D01*
X0191841Y0306613D02*
X0192607Y0306613D01*
X0185006Y0300219D02*
X0179507Y0300219D01*
X0179103Y0299815D02*
X0181915Y0302627D01*
X0181915Y0304415D01*
X0177315Y0304415D01*
X0177315Y0299815D01*
X0179103Y0299815D01*
X0179103Y0299415D02*
X0177315Y0299415D01*
X0177315Y0294815D01*
X0181915Y0294815D01*
X0181915Y0296603D01*
X0179103Y0299415D01*
X0179898Y0298620D02*
X0184615Y0298620D01*
X0183016Y0297022D02*
X0181496Y0297022D01*
X0181915Y0295423D02*
X0182515Y0295423D01*
X0181915Y0294415D02*
X0177315Y0294415D01*
X0177315Y0294815D01*
X0176915Y0294815D01*
X0176915Y0299415D01*
X0175127Y0299415D01*
X0172315Y0296603D01*
X0172315Y0294815D01*
X0176915Y0294815D01*
X0176915Y0294415D01*
X0177315Y0294415D01*
X0177315Y0289815D01*
X0179103Y0289815D01*
X0181915Y0292627D01*
X0181915Y0294415D01*
X0181915Y0293825D02*
X0182515Y0293825D01*
X0182998Y0292226D02*
X0181514Y0292226D01*
X0179916Y0290628D02*
X0184597Y0290628D01*
X0186602Y0287431D02*
X0160990Y0287431D01*
X0159392Y0285832D02*
X0185004Y0285832D01*
X0183405Y0284234D02*
X0157793Y0284234D01*
X0156195Y0282635D02*
X0181807Y0282635D01*
X0180208Y0281037D02*
X0154596Y0281037D01*
X0152998Y0279438D02*
X0178610Y0279438D01*
X0177011Y0277840D02*
X0151399Y0277840D01*
X0149801Y0276241D02*
X0175413Y0276241D01*
X0173814Y0274643D02*
X0148202Y0274643D01*
X0146604Y0273044D02*
X0172216Y0273044D01*
X0170617Y0271446D02*
X0145005Y0271446D01*
X0143407Y0269847D02*
X0169019Y0269847D01*
X0167420Y0268248D02*
X0141808Y0268248D01*
X0140210Y0266650D02*
X0165822Y0266650D01*
X0164223Y0265051D02*
X0157745Y0265051D01*
X0156085Y0265051D02*
X0138611Y0265051D01*
X0137013Y0263453D02*
X0153955Y0263453D01*
X0153515Y0261854D02*
X0135414Y0261854D01*
X0133816Y0260256D02*
X0150648Y0260256D01*
X0159875Y0263453D02*
X0162625Y0263453D01*
X0161026Y0261854D02*
X0160315Y0261854D01*
X0162589Y0289029D02*
X0188201Y0289029D01*
X0189633Y0290628D02*
X0189799Y0290628D01*
X0183407Y0301817D02*
X0181105Y0301817D01*
X0181915Y0303416D02*
X0182515Y0303416D01*
X0182515Y0305014D02*
X0181915Y0305014D01*
X0181905Y0306613D02*
X0182607Y0306613D01*
X0184206Y0308211D02*
X0180307Y0308211D01*
X0176915Y0304415D02*
X0176915Y0299815D01*
X0175127Y0299815D01*
X0172315Y0302627D01*
X0172315Y0304415D01*
X0176915Y0304415D01*
X0176915Y0303416D02*
X0177315Y0303416D01*
X0177315Y0301817D02*
X0176915Y0301817D01*
X0176915Y0300219D02*
X0177315Y0300219D01*
X0177315Y0298620D02*
X0176915Y0298620D01*
X0176915Y0297022D02*
X0177315Y0297022D01*
X0177315Y0295423D02*
X0176915Y0295423D01*
X0176915Y0294415D02*
X0172315Y0294415D01*
X0172315Y0292627D01*
X0175127Y0289815D01*
X0176915Y0289815D01*
X0176915Y0294415D01*
X0176915Y0293825D02*
X0177315Y0293825D01*
X0177315Y0292226D02*
X0176915Y0292226D01*
X0176915Y0290628D02*
X0177315Y0290628D01*
X0174314Y0290628D02*
X0169633Y0290628D01*
X0171232Y0292226D02*
X0172716Y0292226D01*
X0172315Y0293825D02*
X0171715Y0293825D01*
X0171715Y0295423D02*
X0172315Y0295423D01*
X0172733Y0297022D02*
X0171214Y0297022D01*
X0169615Y0298620D02*
X0174332Y0298620D01*
X0174723Y0300219D02*
X0169224Y0300219D01*
X0170823Y0301817D02*
X0173124Y0301817D01*
X0172315Y0303416D02*
X0171715Y0303416D01*
X0171715Y0305014D02*
X0172315Y0305014D01*
X0172325Y0306613D02*
X0171623Y0306613D01*
X0170024Y0308211D02*
X0173923Y0308211D01*
X0165006Y0300219D02*
X0164915Y0300219D01*
X0164597Y0290628D02*
X0164187Y0290628D01*
X0119287Y0308515D02*
X0088087Y0277315D01*
X0067287Y0277315D01*
X0066115Y0276143D01*
X0049715Y0259743D01*
X0049715Y0278087D01*
X0073285Y0301657D01*
X0075127Y0299815D01*
X0076915Y0299815D01*
X0076915Y0304415D01*
X0077315Y0304415D01*
X0077315Y0304815D01*
X0081915Y0304815D01*
X0081915Y0306603D01*
X0080003Y0308515D01*
X0119287Y0308515D01*
X0118983Y0308211D02*
X0080307Y0308211D01*
X0081905Y0306613D02*
X0117384Y0306613D01*
X0115786Y0305014D02*
X0081915Y0305014D01*
X0081915Y0304415D02*
X0077315Y0304415D01*
X0077315Y0299815D01*
X0079103Y0299815D01*
X0081915Y0302627D01*
X0081915Y0304415D01*
X0081915Y0303416D02*
X0114187Y0303416D01*
X0112589Y0301817D02*
X0081105Y0301817D01*
X0079507Y0300219D02*
X0110990Y0300219D01*
X0109392Y0298620D02*
X0070249Y0298620D01*
X0071847Y0300219D02*
X0074723Y0300219D01*
X0076915Y0300219D02*
X0077315Y0300219D01*
X0077315Y0301817D02*
X0076915Y0301817D01*
X0076915Y0303416D02*
X0077315Y0303416D01*
X0068650Y0297022D02*
X0107793Y0297022D01*
X0106195Y0295423D02*
X0067052Y0295423D01*
X0065453Y0293825D02*
X0104596Y0293825D01*
X0102998Y0292226D02*
X0063855Y0292226D01*
X0062256Y0290628D02*
X0101399Y0290628D01*
X0099801Y0289029D02*
X0060658Y0289029D01*
X0059059Y0287431D02*
X0098202Y0287431D01*
X0096604Y0285832D02*
X0057461Y0285832D01*
X0055862Y0284234D02*
X0095005Y0284234D01*
X0093407Y0282635D02*
X0054263Y0282635D01*
X0052665Y0281037D02*
X0091808Y0281037D01*
X0090210Y0279438D02*
X0051066Y0279438D01*
X0049715Y0277840D02*
X0088611Y0277840D01*
X0066213Y0276241D02*
X0049715Y0276241D01*
X0049715Y0274643D02*
X0064614Y0274643D01*
X0063016Y0273044D02*
X0049715Y0273044D01*
X0049715Y0271446D02*
X0061417Y0271446D01*
X0059819Y0269847D02*
X0049715Y0269847D01*
X0049715Y0268248D02*
X0058220Y0268248D01*
X0056622Y0266650D02*
X0049715Y0266650D01*
X0049715Y0265051D02*
X0055023Y0265051D01*
X0053425Y0263453D02*
X0049715Y0263453D01*
X0049715Y0261854D02*
X0051826Y0261854D01*
X0050228Y0260256D02*
X0049715Y0260256D01*
X0138115Y0212301D02*
X0177021Y0212301D01*
X0178504Y0210702D02*
X0138115Y0210702D01*
X0138115Y0209104D02*
X0260344Y0209104D01*
X0261942Y0210702D02*
X0181726Y0210702D01*
X0177705Y0206648D02*
X0173894Y0206648D01*
X0171199Y0203953D01*
X0171199Y0200142D01*
X0173894Y0197448D01*
X0177705Y0197448D01*
X0180399Y0200142D01*
X0180399Y0203953D01*
X0177705Y0206648D01*
X0178446Y0205907D02*
X0257147Y0205907D01*
X0258745Y0207505D02*
X0138115Y0207505D01*
X0138115Y0205907D02*
X0173153Y0205907D01*
X0171554Y0204308D02*
X0138115Y0204308D01*
X0138115Y0202710D02*
X0171199Y0202710D01*
X0171199Y0201111D02*
X0138115Y0201111D01*
X0138115Y0199512D02*
X0166759Y0199512D01*
X0165160Y0197914D02*
X0141524Y0197914D01*
X0150651Y0177133D02*
X0151782Y0177133D01*
X0157840Y0164345D02*
X0144602Y0164345D01*
X0143004Y0162747D02*
X0156241Y0162747D01*
X0156051Y0161148D02*
X0139715Y0161148D01*
X0139715Y0159550D02*
X0156051Y0159550D01*
X0155568Y0158379D02*
X0151591Y0158379D01*
X0150327Y0157115D01*
X0153579Y0153862D01*
X0153296Y0153579D01*
X0153297Y0153579D02*
X0153579Y0153297D01*
X0153862Y0153579D01*
X0153579Y0153862D01*
X0156832Y0157115D01*
X0155568Y0158379D01*
X0155996Y0157951D02*
X0156844Y0157951D01*
X0156636Y0156353D02*
X0156070Y0156353D01*
X0157594Y0156353D02*
X0158443Y0156353D01*
X0155037Y0154754D02*
X0154471Y0154754D01*
X0154286Y0153156D02*
X0153720Y0153156D01*
X0153439Y0153156D02*
X0152873Y0153156D01*
X0153297Y0153579D02*
X0150044Y0150327D01*
X0148779Y0151591D01*
X0148779Y0155568D01*
X0150044Y0156832D01*
X0153296Y0153579D01*
X0152687Y0154754D02*
X0152122Y0154754D01*
X0151089Y0156353D02*
X0150523Y0156353D01*
X0149565Y0156353D02*
X0139715Y0156353D01*
X0139715Y0157951D02*
X0151163Y0157951D01*
X0148779Y0154754D02*
X0139715Y0154754D01*
X0139715Y0153156D02*
X0148779Y0153156D01*
X0148813Y0151557D02*
X0139715Y0151557D01*
X0140797Y0149959D02*
X0143341Y0149959D01*
X0144374Y0148360D02*
X0144939Y0148360D01*
X0148077Y0148360D02*
X0148643Y0148360D01*
X0149676Y0149959D02*
X0150412Y0149959D01*
X0151274Y0151557D02*
X0151840Y0151557D01*
X0155319Y0151557D02*
X0155884Y0151557D01*
X0141708Y0148360D02*
X0141115Y0148360D01*
X0140669Y0146762D02*
X0141708Y0146762D01*
X0141708Y0145163D02*
X0138508Y0145163D01*
X0136922Y0145163D02*
X0136515Y0145163D01*
X0136515Y0143565D02*
X0136776Y0143565D01*
X0132515Y0143565D02*
X0124031Y0143565D01*
X0124031Y0145163D02*
X0132515Y0145163D01*
X0132515Y0146762D02*
X0124031Y0146762D01*
X0123987Y0148360D02*
X0123138Y0148360D01*
X0122395Y0148360D02*
X0121829Y0148360D01*
X0121540Y0149959D02*
X0122388Y0149959D01*
X0120796Y0146762D02*
X0120230Y0146762D01*
X0117599Y0143565D02*
X0117033Y0143565D01*
X0116001Y0141966D02*
X0115107Y0141966D01*
X0117880Y0129178D02*
X0122673Y0129178D01*
X0121074Y0127579D02*
X0119479Y0127579D01*
X0133691Y0133974D02*
X0134228Y0133974D01*
X0137166Y0130777D02*
X0137425Y0130777D01*
X0141421Y0137171D02*
X0141987Y0137171D01*
X0140388Y0138769D02*
X0139823Y0138769D01*
X0140085Y0140368D02*
X0140650Y0140368D01*
X0132515Y0148360D02*
X0128617Y0148360D01*
X0130216Y0149959D02*
X0132243Y0149959D01*
X0171777Y0191520D02*
X0185015Y0191520D01*
X0186613Y0193118D02*
X0173328Y0193118D01*
X0173328Y0194717D02*
X0245957Y0194717D01*
X0244359Y0193118D02*
X0191256Y0193118D01*
X0192855Y0191520D02*
X0242760Y0191520D01*
X0241162Y0189921D02*
X0193535Y0189921D01*
X0193535Y0188323D02*
X0239563Y0188323D01*
X0237965Y0186724D02*
X0193230Y0186724D01*
X0191631Y0185126D02*
X0236366Y0185126D01*
X0234768Y0183527D02*
X0186464Y0183527D01*
X0186464Y0181929D02*
X0233169Y0181929D01*
X0231571Y0180330D02*
X0186464Y0180330D01*
X0185237Y0178732D02*
X0229972Y0178732D01*
X0247556Y0196315D02*
X0173328Y0196315D01*
X0173428Y0197914D02*
X0172296Y0197914D01*
X0171829Y0199512D02*
X0170698Y0199512D01*
X0178171Y0197914D02*
X0249154Y0197914D01*
X0250753Y0199512D02*
X0179770Y0199512D01*
X0180399Y0201111D02*
X0252351Y0201111D01*
X0253950Y0202710D02*
X0180399Y0202710D01*
X0180045Y0204308D02*
X0255548Y0204308D01*
X0260329Y0212301D02*
X0263541Y0212301D01*
X0265139Y0213899D02*
X0261928Y0213899D01*
X0186238Y0185126D02*
X0185107Y0185126D01*
X0171855Y0102003D02*
X0276515Y0102003D01*
X0276515Y0100405D02*
X0173454Y0100405D01*
X0175052Y0098806D02*
X0276515Y0098806D01*
X0276515Y0097208D02*
X0176651Y0097208D01*
X0178249Y0095609D02*
X0276515Y0095609D01*
X0276515Y0094011D02*
X0179848Y0094011D01*
X0181446Y0092412D02*
X0276515Y0092412D01*
X0276515Y0090814D02*
X0183045Y0090814D01*
X0184643Y0089215D02*
X0276515Y0089215D01*
X0276515Y0087617D02*
X0186242Y0087617D01*
X0187840Y0086018D02*
X0276515Y0086018D01*
X0276515Y0084420D02*
X0189439Y0084420D01*
X0191037Y0082821D02*
X0276515Y0082821D01*
X0276515Y0081223D02*
X0192636Y0081223D01*
X0194234Y0079624D02*
X0276515Y0079624D01*
X0276515Y0078026D02*
X0195833Y0078026D01*
X0197431Y0076427D02*
X0276515Y0076427D01*
X0276515Y0074829D02*
X0199030Y0074829D01*
X0200628Y0073230D02*
X0276515Y0073230D01*
X0276515Y0071632D02*
X0202227Y0071632D01*
X0203825Y0070033D02*
X0276515Y0070033D01*
X0276515Y0068435D02*
X0205424Y0068435D01*
X0207022Y0066836D02*
X0276515Y0066836D01*
X0276515Y0065238D02*
X0208621Y0065238D01*
X0210219Y0063639D02*
X0276515Y0063639D01*
X0276515Y0062041D02*
X0211818Y0062041D01*
X0213416Y0060442D02*
X0276515Y0060442D01*
X0276515Y0058844D02*
X0215015Y0058844D01*
X0216613Y0057245D02*
X0276515Y0057245D01*
X0276515Y0055646D02*
X0218212Y0055646D01*
X0219810Y0054048D02*
X0276515Y0054048D01*
X0276515Y0052449D02*
X0221409Y0052449D01*
X0223007Y0050851D02*
X0276515Y0050851D01*
X0276093Y0049252D02*
X0224606Y0049252D01*
X0226204Y0047654D02*
X0274494Y0047654D01*
X0272896Y0046055D02*
X0227803Y0046055D01*
X0229401Y0044457D02*
X0271297Y0044457D01*
X0269699Y0042858D02*
X0231000Y0042858D01*
X0232598Y0041260D02*
X0268100Y0041260D01*
X0266502Y0039661D02*
X0234197Y0039661D01*
X0235795Y0038063D02*
X0264903Y0038063D01*
X0263305Y0036464D02*
X0237394Y0036464D01*
X0238992Y0034866D02*
X0261706Y0034866D01*
X0260108Y0033267D02*
X0240591Y0033267D01*
X0242115Y0031669D02*
X0258509Y0031669D01*
X0256911Y0030070D02*
X0242115Y0030070D01*
X0242115Y0028472D02*
X0255312Y0028472D01*
X0253713Y0026873D02*
X0242115Y0026873D01*
X0242115Y0025275D02*
X0252115Y0025275D01*
X0250516Y0023676D02*
X0242115Y0023676D01*
X0242115Y0022078D02*
X0248918Y0022078D01*
X0247319Y0020479D02*
X0242115Y0020479D01*
X0242115Y0018881D02*
X0242375Y0018881D01*
X0238115Y0022078D02*
X0058583Y0022078D01*
X0059215Y0023676D02*
X0238115Y0023676D01*
X0238115Y0025275D02*
X0059215Y0025275D01*
X0058862Y0026873D02*
X0238115Y0026873D01*
X0255239Y0020479D02*
X0284106Y0020479D01*
X0284106Y0022078D02*
X0256838Y0022078D01*
X0258436Y0023676D02*
X0284236Y0023676D01*
X0284664Y0025275D02*
X0260035Y0025275D01*
X0261633Y0026873D02*
X0285211Y0026873D01*
X0286134Y0028472D02*
X0263232Y0028472D01*
X0264830Y0030070D02*
X0287320Y0030070D01*
X0288918Y0031669D02*
X0266429Y0031669D01*
X0268027Y0033267D02*
X0291545Y0033267D01*
X0284347Y0018881D02*
X0258612Y0018881D01*
X0259215Y0017282D02*
X0284775Y0017282D01*
X0285449Y0015684D02*
X0259215Y0015684D01*
X0259215Y0014085D02*
X0286372Y0014085D01*
X0287733Y0012487D02*
X0259215Y0012487D01*
X0259151Y0010888D02*
X0289491Y0010888D01*
X0292480Y0009290D02*
X0252118Y0009290D01*
X0207759Y0060442D02*
X0018705Y0060442D01*
X0019215Y0062041D02*
X0206161Y0062041D01*
X0204562Y0063639D02*
X0019215Y0063639D01*
X0019215Y0065238D02*
X0202964Y0065238D01*
X0201365Y0066836D02*
X0019215Y0066836D01*
X0019058Y0068435D02*
X0199767Y0068435D01*
X0198168Y0070033D02*
X0016538Y0070033D01*
X0018137Y0071632D02*
X0196570Y0071632D01*
X0194971Y0073230D02*
X0019215Y0073230D01*
X0019215Y0074829D02*
X0193373Y0074829D01*
X0191774Y0076427D02*
X0020387Y0076427D01*
X0021985Y0078026D02*
X0114416Y0078026D01*
X0114698Y0077744D02*
X0118674Y0077744D01*
X0119939Y0079008D01*
X0116686Y0082261D01*
X0113433Y0079008D01*
X0114698Y0077744D01*
X0114049Y0079624D02*
X0113483Y0079624D01*
X0113150Y0079291D02*
X0116403Y0082544D01*
X0113151Y0085797D01*
X0111886Y0084532D01*
X0111886Y0080556D01*
X0113150Y0079291D01*
X0112818Y0079624D02*
X0023584Y0079624D01*
X0025182Y0081223D02*
X0111886Y0081223D01*
X0111886Y0082821D02*
X0026781Y0082821D01*
X0028379Y0084420D02*
X0111886Y0084420D01*
X0113495Y0086018D02*
X0029978Y0086018D01*
X0031576Y0087617D02*
X0180585Y0087617D01*
X0178986Y0089215D02*
X0033175Y0089215D01*
X0011219Y0081223D02*
X0006600Y0081223D01*
X0006600Y0082821D02*
X0009815Y0082821D01*
X0113433Y0086079D02*
X0116686Y0082827D01*
X0119939Y0086079D01*
X0118674Y0087344D01*
X0114698Y0087344D01*
X0113433Y0086079D01*
X0114527Y0084420D02*
X0115093Y0084420D01*
X0116126Y0082821D02*
X0116680Y0082821D01*
X0116686Y0082827D02*
X0116403Y0082544D01*
X0116686Y0082261D01*
X0116969Y0082544D01*
X0116686Y0082827D01*
X0116692Y0082821D02*
X0117246Y0082821D01*
X0116969Y0082544D02*
X0120222Y0085797D01*
X0121486Y0084532D01*
X0121486Y0080556D01*
X0120222Y0079291D01*
X0116969Y0082544D01*
X0117724Y0081223D02*
X0118290Y0081223D01*
X0119323Y0079624D02*
X0119889Y0079624D01*
X0120555Y0079624D02*
X0188577Y0079624D01*
X0186979Y0081223D02*
X0121486Y0081223D01*
X0121486Y0082821D02*
X0185380Y0082821D01*
X0183782Y0084420D02*
X0121486Y0084420D01*
X0119877Y0086018D02*
X0182183Y0086018D01*
X0190176Y0078026D02*
X0118956Y0078026D01*
X0115648Y0081223D02*
X0115082Y0081223D01*
X0118279Y0084420D02*
X0118845Y0084420D01*
D17*
X0118915Y0125315D02*
X0124915Y0125315D01*
X0125295Y0125295D01*
X0118915Y0125315D02*
X0105315Y0138915D01*
X0050515Y0138915D01*
X0014915Y0172115D02*
X0014615Y0172115D01*
X0014915Y0172115D02*
X0018915Y0176115D01*
X0018915Y0184115D01*
X0045315Y0210515D01*
X0052515Y0218515D02*
X0054115Y0216915D01*
X0110915Y0216915D01*
X0107715Y0213715D02*
X0107715Y0209315D01*
X0099715Y0201315D01*
X0079715Y0201315D01*
X0060515Y0210515D02*
X0104515Y0210515D01*
X0116515Y0210515D02*
X0116515Y0202515D01*
X0118115Y0200915D01*
X0118115Y0199315D01*
X0119715Y0203715D02*
X0119715Y0209315D01*
X0196915Y0286515D01*
X0196115Y0290115D02*
X0198915Y0290115D01*
X0202915Y0294115D01*
X0202915Y0296515D01*
X0206515Y0300115D01*
X0208915Y0300115D01*
X0211315Y0302515D01*
X0211315Y0306515D01*
X0208915Y0308915D01*
X0191315Y0308915D01*
X0187315Y0304915D01*
X0187115Y0304615D01*
X0192915Y0296515D02*
X0196515Y0300115D01*
X0202515Y0300115D01*
X0206915Y0304515D01*
X0207115Y0304615D01*
X0207115Y0294615D02*
X0206915Y0294515D01*
X0206915Y0292115D01*
X0123315Y0208515D01*
X0123315Y0206515D01*
X0116515Y0210515D02*
X0196115Y0290115D01*
X0192915Y0290915D02*
X0192915Y0296515D01*
X0192915Y0290915D02*
X0155315Y0253315D01*
X0154915Y0253315D01*
X0142515Y0240915D01*
X0129715Y0233315D02*
X0129715Y0251715D01*
X0125315Y0251715D02*
X0125315Y0233315D01*
X0126515Y0230115D02*
X0124115Y0230115D01*
X0113715Y0240515D01*
X0097715Y0240515D01*
X0087715Y0230515D01*
X0078915Y0230515D01*
X0076115Y0235315D02*
X0065315Y0246115D01*
X0062115Y0244915D02*
X0062115Y0247315D01*
X0067315Y0252515D01*
X0080915Y0252515D01*
X0077715Y0246915D02*
X0099315Y0246915D01*
X0109315Y0256915D01*
X0152115Y0256915D01*
X0153315Y0258115D01*
X0154515Y0254915D02*
X0156915Y0257315D01*
X0156915Y0261715D01*
X0154515Y0254915D02*
X0109715Y0254915D01*
X0093315Y0238515D01*
X0088515Y0238515D01*
X0084115Y0235315D02*
X0076115Y0235315D01*
X0069715Y0235715D02*
X0062115Y0228115D01*
X0042915Y0228115D01*
X0047315Y0223715D02*
X0100515Y0223715D01*
X0098915Y0233315D02*
X0114915Y0217315D01*
X0114915Y0170115D01*
X0134515Y0150515D01*
X0134515Y0136515D01*
X0240115Y0030915D01*
X0240115Y0012915D01*
X0242915Y0010115D01*
X0250115Y0010115D01*
X0254615Y0014615D01*
X0137715Y0148515D02*
X0137715Y0163315D01*
X0136115Y0164915D01*
X0136115Y0216915D01*
X0126515Y0230115D02*
X0129715Y0233315D01*
X0098915Y0233315D02*
X0098915Y0237315D01*
X0085715Y0263315D02*
X0126915Y0304515D01*
X0127115Y0304615D01*
X0122515Y0308915D02*
X0142915Y0308915D01*
X0146915Y0304915D01*
X0147115Y0304615D01*
X0151315Y0306515D02*
X0151315Y0302515D01*
X0148915Y0300115D01*
X0141715Y0300115D01*
X0137315Y0304515D01*
X0137115Y0304615D01*
X0147315Y0310515D02*
X0151315Y0306515D01*
X0147315Y0310515D02*
X0076915Y0310515D01*
X0072915Y0306515D01*
X0072915Y0304115D01*
X0047715Y0278915D01*
X0047715Y0244515D01*
X0050915Y0247715D02*
X0050915Y0258115D01*
X0068115Y0275315D01*
X0088915Y0275315D01*
X0122515Y0308915D01*
X0112515Y0294515D02*
X0087315Y0269315D01*
X0066515Y0269315D01*
X0064915Y0263315D02*
X0085715Y0263315D01*
X0067715Y0240115D02*
X0066915Y0240115D01*
X0062115Y0244915D01*
X0067715Y0240115D02*
X0069715Y0238115D01*
X0069715Y0235715D01*
X0066515Y0236915D02*
X0051715Y0236915D01*
X0038115Y0221715D02*
X0038115Y0205715D01*
X0014515Y0182115D01*
X0014615Y0182115D01*
X0139315Y0195315D02*
X0168515Y0195315D01*
X0168728Y0194977D01*
X0180115Y0213715D02*
X0258915Y0213715D01*
X0304515Y0259315D01*
X0304615Y0259615D01*
M02*
