%
M48
M72
T01C0.02000
T02C0.04000
T03C0.11811
T04C0.16339
%
T01
X50515Y138915
X29715Y185315
X31715Y191715
X26515Y205315
X38115Y221715
X42915Y228115
X47315Y223715
X52515Y218515
X45315Y210515
X60515Y210515
X75315Y202915
X79715Y201315
X104515Y210515
X107715Y213715
X110915Y216915
X100515Y223715
X98915Y237315
X88515Y238515
X84115Y235315
X78915Y230515
X66515Y236915
X65315Y246115
X77715Y246915
X80915Y252515
X74915Y258515
X64915Y263315
X66515Y269315
X78915Y278515
X55715Y281315
X50915Y247715
X47715Y244515
X51715Y236915
X10515Y190915
X108915Y170115
X111715Y164115
X137715Y148515
X139315Y195315
X123315Y206515
X119715Y203715
X118115Y199315
X136115Y216915
X125315Y233315
X125315Y251715
X129715Y251715
X142515Y240915
X153315Y258115
X156915Y261715
X196915Y286515
X180115Y213715
X112515Y294515
X163715Y100915
T02
X132366Y132366
X125295Y125295
X112160Y138408
X119231Y145479
X126302Y152550
X133373Y159621
X140444Y166692
X147515Y173764
X154586Y180835
X161657Y187906
X168728Y194977
X175799Y202048
X188935Y188935
X181864Y181864
X174793Y174793
X167722Y167722
X160650Y160650
X153579Y153579
X146508Y146508
X139437Y139437
X102544Y96686
X116686Y82544
X54615Y24615
X54615Y14615
X14615Y64615
X14615Y74615
X14615Y84615
X14615Y122115
X14615Y132115
X14615Y142115
X14615Y152115
X14615Y162115
X14615Y172115
X24615Y172115
X24615Y162115
X24615Y152115
X24615Y142115
X24615Y132115
X24615Y122115
X24615Y182115
X14615Y182115
X15875Y269064
X25875Y269064
X57115Y304615
X67115Y304615
X77115Y304615
X127115Y304615
X127115Y294615
X137115Y294615
X137115Y304615
X147115Y304615
X157115Y304615
X167115Y304615
X177115Y304615
X187115Y304615
X197115Y304615
X207115Y304615
X207115Y294615
X197115Y294615
X187115Y294615
X177115Y294615
X167115Y294615
X157115Y294615
X147115Y294615
X217115Y294615
X217115Y304615
X264615Y304615
X264615Y294615
X304615Y259615
X304615Y249615
X304615Y239615
X302115Y54615
X292115Y54615
X254615Y14615
X244615Y14615
X234615Y14615
T03
X10068Y10068
X10068Y308493
X308493Y308493
X308493Y10068
T04
X297076Y21485
X297076Y297076
X21485Y297076
X21485Y21485
M30
