G75*
%MOIN*%
%OFA0B0*%
%FSLAX25Y25*%
%IPPOS*%
%LPD*%
%AMOC8*
5,1,8,0,0,1.08239X$1,22.5*
%
%ADD10C,0.12611*%
%ADD11C,0.17139*%
%ADD12R,0.07099X0.07887*%
%ADD13R,0.02375X0.05524*%
%ADD14R,0.05524X0.02375*%
%ADD15R,0.06800X0.06800*%
%ADD16OC8,0.06800*%
%ADD17R,0.06706X0.06706*%
%ADD18C,0.01360*%
%ADD19R,0.07099X0.07898*%
%ADD20R,0.07898X0.07099*%
%ADD21R,0.07099X0.08674*%
%ADD22R,0.04400X0.18800*%
%ADD23R,0.46076X0.40170*%
%ADD24R,0.07513X0.02178*%
%ADD25R,0.06800X0.06800*%
%ADD26C,0.04400*%
D10*
X0010068Y0010068D03*
X0010068Y0308493D03*
X0308493Y0308493D03*
X0308493Y0010068D03*
D11*
X0297076Y0021485D03*
X0297076Y0297076D03*
X0021485Y0297076D03*
X0021485Y0021485D03*
D12*
G36*
X0097921Y0175996D02*
X0102940Y0181015D01*
X0108515Y0175440D01*
X0103496Y0170421D01*
X0097921Y0175996D01*
G37*
G36*
X0105715Y0183790D02*
X0110734Y0188809D01*
X0116309Y0183234D01*
X0111290Y0178215D01*
X0105715Y0183790D01*
G37*
G36*
X0052921Y0248496D02*
X0057940Y0253515D01*
X0063515Y0247940D01*
X0058496Y0242921D01*
X0052921Y0248496D01*
G37*
G36*
X0060715Y0256290D02*
X0065734Y0261309D01*
X0071309Y0255734D01*
X0066290Y0250715D01*
X0060715Y0256290D01*
G37*
G36*
X0081015Y0265440D02*
X0075996Y0260421D01*
X0070421Y0265996D01*
X0075440Y0271015D01*
X0081015Y0265440D01*
G37*
G36*
X0088809Y0273234D02*
X0083790Y0268215D01*
X0078215Y0273790D01*
X0083234Y0278809D01*
X0088809Y0273234D01*
G37*
G36*
X0107940Y0253215D02*
X0102921Y0258234D01*
X0108496Y0263809D01*
X0113515Y0258790D01*
X0107940Y0253215D01*
G37*
G36*
X0115734Y0245421D02*
X0110715Y0250440D01*
X0116290Y0256015D01*
X0121309Y0250996D01*
X0115734Y0245421D01*
G37*
X0025127Y0197115D03*
X0014103Y0197115D03*
G36*
X0243496Y0073809D02*
X0248515Y0068790D01*
X0242940Y0063215D01*
X0237921Y0068234D01*
X0243496Y0073809D01*
G37*
G36*
X0252940Y0073215D02*
X0247921Y0078234D01*
X0253496Y0083809D01*
X0258515Y0078790D01*
X0252940Y0073215D01*
G37*
G36*
X0260734Y0065421D02*
X0255715Y0070440D01*
X0261290Y0076015D01*
X0266309Y0070996D01*
X0260734Y0065421D01*
G37*
G36*
X0251290Y0066015D02*
X0256309Y0060996D01*
X0250734Y0055421D01*
X0245715Y0060440D01*
X0251290Y0066015D01*
G37*
D13*
X0280875Y0079733D03*
X0288355Y0079733D03*
X0298375Y0079733D03*
X0305855Y0079733D03*
X0302115Y0069497D03*
X0284615Y0069497D03*
X0038355Y0246997D03*
X0030875Y0246997D03*
X0020855Y0246997D03*
X0013375Y0246997D03*
X0017115Y0257233D03*
X0034615Y0257233D03*
D14*
X0241997Y0275875D03*
X0241997Y0283355D03*
X0252233Y0279615D03*
X0241997Y0298375D03*
X0241997Y0305855D03*
X0252233Y0302115D03*
X0077233Y0038355D03*
X0077233Y0030875D03*
X0077233Y0020855D03*
X0077233Y0013375D03*
X0066997Y0017115D03*
X0066997Y0034615D03*
D15*
X0054615Y0014615D03*
X0014615Y0064615D03*
X0015875Y0269064D03*
X0057115Y0304615D03*
X0264615Y0304615D03*
X0304615Y0259615D03*
X0302115Y0054615D03*
X0254615Y0014615D03*
D16*
X0244615Y0014615D03*
X0234615Y0014615D03*
X0292115Y0054615D03*
X0304615Y0239615D03*
X0304615Y0249615D03*
X0264615Y0294615D03*
X0217115Y0294615D03*
X0217115Y0304615D03*
X0207115Y0304615D03*
X0207115Y0294615D03*
X0197115Y0294615D03*
X0197115Y0304615D03*
X0187115Y0304615D03*
X0187115Y0294615D03*
X0177115Y0294615D03*
X0177115Y0304615D03*
X0167115Y0304615D03*
X0167115Y0294615D03*
X0157115Y0294615D03*
X0157115Y0304615D03*
X0147115Y0304615D03*
X0147115Y0294615D03*
X0137115Y0294615D03*
X0137115Y0304615D03*
X0127115Y0304615D03*
X0127115Y0294615D03*
X0077115Y0304615D03*
X0067115Y0304615D03*
X0025875Y0269064D03*
X0024615Y0182115D03*
X0014615Y0182115D03*
X0014615Y0172115D03*
X0024615Y0172115D03*
X0024615Y0162115D03*
X0024615Y0152115D03*
X0024615Y0142115D03*
X0024615Y0132115D03*
X0024615Y0122115D03*
X0014615Y0122115D03*
X0014615Y0132115D03*
X0014615Y0142115D03*
X0014615Y0152115D03*
X0014615Y0162115D03*
X0014615Y0084615D03*
X0014615Y0074615D03*
X0054615Y0024615D03*
D17*
G36*
X0082243Y0109484D02*
X0086984Y0104743D01*
X0082243Y0100002D01*
X0077502Y0104743D01*
X0082243Y0109484D01*
G37*
G36*
X0091987Y0119228D02*
X0096728Y0114487D01*
X0091987Y0109746D01*
X0087246Y0114487D01*
X0091987Y0119228D01*
G37*
G36*
X0167502Y0099487D02*
X0172243Y0104228D01*
X0176984Y0099487D01*
X0172243Y0094746D01*
X0167502Y0099487D01*
G37*
G36*
X0177246Y0089743D02*
X0181987Y0094484D01*
X0186728Y0089743D01*
X0181987Y0085002D01*
X0177246Y0089743D01*
G37*
D18*
X0131919Y0134405D02*
X0131239Y0135085D01*
X0133493Y0135085D01*
X0135085Y0133493D01*
X0135085Y0131239D01*
X0133493Y0129647D01*
X0131239Y0129647D01*
X0129647Y0131239D01*
X0129647Y0133493D01*
X0131239Y0135085D01*
X0131662Y0134065D01*
X0133070Y0134065D01*
X0134065Y0133070D01*
X0134065Y0131662D01*
X0133070Y0130667D01*
X0131662Y0130667D01*
X0130667Y0131662D01*
X0130667Y0133070D01*
X0131662Y0134065D01*
X0132084Y0133045D01*
X0132648Y0133045D01*
X0133045Y0132648D01*
X0133045Y0132084D01*
X0132648Y0131687D01*
X0132084Y0131687D01*
X0131687Y0132084D01*
X0131687Y0132648D01*
X0132084Y0133045D01*
X0138990Y0141476D02*
X0138310Y0142156D01*
X0140564Y0142156D01*
X0142156Y0140564D01*
X0142156Y0138310D01*
X0140564Y0136718D01*
X0138310Y0136718D01*
X0136718Y0138310D01*
X0136718Y0140564D01*
X0138310Y0142156D01*
X0138733Y0141136D01*
X0140141Y0141136D01*
X0141136Y0140141D01*
X0141136Y0138733D01*
X0140141Y0137738D01*
X0138733Y0137738D01*
X0137738Y0138733D01*
X0137738Y0140141D01*
X0138733Y0141136D01*
X0139155Y0140116D01*
X0139719Y0140116D01*
X0140116Y0139719D01*
X0140116Y0139155D01*
X0139719Y0138758D01*
X0139155Y0138758D01*
X0138758Y0139155D01*
X0138758Y0139719D01*
X0139155Y0140116D01*
X0146061Y0148547D02*
X0145381Y0149227D01*
X0147635Y0149227D01*
X0149227Y0147635D01*
X0149227Y0145381D01*
X0147635Y0143789D01*
X0145381Y0143789D01*
X0143789Y0145381D01*
X0143789Y0147635D01*
X0145381Y0149227D01*
X0145804Y0148207D01*
X0147212Y0148207D01*
X0148207Y0147212D01*
X0148207Y0145804D01*
X0147212Y0144809D01*
X0145804Y0144809D01*
X0144809Y0145804D01*
X0144809Y0147212D01*
X0145804Y0148207D01*
X0146226Y0147187D01*
X0146790Y0147187D01*
X0147187Y0146790D01*
X0147187Y0146226D01*
X0146790Y0145829D01*
X0146226Y0145829D01*
X0145829Y0146226D01*
X0145829Y0146790D01*
X0146226Y0147187D01*
X0153132Y0155618D02*
X0152452Y0156298D01*
X0154706Y0156298D01*
X0156298Y0154706D01*
X0156298Y0152452D01*
X0154706Y0150860D01*
X0152452Y0150860D01*
X0150860Y0152452D01*
X0150860Y0154706D01*
X0152452Y0156298D01*
X0152875Y0155278D01*
X0154283Y0155278D01*
X0155278Y0154283D01*
X0155278Y0152875D01*
X0154283Y0151880D01*
X0152875Y0151880D01*
X0151880Y0152875D01*
X0151880Y0154283D01*
X0152875Y0155278D01*
X0153297Y0154258D01*
X0153861Y0154258D01*
X0154258Y0153861D01*
X0154258Y0153297D01*
X0153861Y0152900D01*
X0153297Y0152900D01*
X0152900Y0153297D01*
X0152900Y0153861D01*
X0153297Y0154258D01*
X0160203Y0162689D02*
X0159523Y0163369D01*
X0161777Y0163369D01*
X0163369Y0161777D01*
X0163369Y0159523D01*
X0161777Y0157931D01*
X0159523Y0157931D01*
X0157931Y0159523D01*
X0157931Y0161777D01*
X0159523Y0163369D01*
X0159946Y0162349D01*
X0161354Y0162349D01*
X0162349Y0161354D01*
X0162349Y0159946D01*
X0161354Y0158951D01*
X0159946Y0158951D01*
X0158951Y0159946D01*
X0158951Y0161354D01*
X0159946Y0162349D01*
X0160368Y0161329D01*
X0160932Y0161329D01*
X0161329Y0160932D01*
X0161329Y0160368D01*
X0160932Y0159971D01*
X0160368Y0159971D01*
X0159971Y0160368D01*
X0159971Y0160932D01*
X0160368Y0161329D01*
X0167275Y0169761D02*
X0166595Y0170441D01*
X0168849Y0170441D01*
X0170441Y0168849D01*
X0170441Y0166595D01*
X0168849Y0165003D01*
X0166595Y0165003D01*
X0165003Y0166595D01*
X0165003Y0168849D01*
X0166595Y0170441D01*
X0167018Y0169421D01*
X0168426Y0169421D01*
X0169421Y0168426D01*
X0169421Y0167018D01*
X0168426Y0166023D01*
X0167018Y0166023D01*
X0166023Y0167018D01*
X0166023Y0168426D01*
X0167018Y0169421D01*
X0167440Y0168401D01*
X0168004Y0168401D01*
X0168401Y0168004D01*
X0168401Y0167440D01*
X0168004Y0167043D01*
X0167440Y0167043D01*
X0167043Y0167440D01*
X0167043Y0168004D01*
X0167440Y0168401D01*
X0174346Y0176832D02*
X0173666Y0177512D01*
X0175920Y0177512D01*
X0177512Y0175920D01*
X0177512Y0173666D01*
X0175920Y0172074D01*
X0173666Y0172074D01*
X0172074Y0173666D01*
X0172074Y0175920D01*
X0173666Y0177512D01*
X0174089Y0176492D01*
X0175497Y0176492D01*
X0176492Y0175497D01*
X0176492Y0174089D01*
X0175497Y0173094D01*
X0174089Y0173094D01*
X0173094Y0174089D01*
X0173094Y0175497D01*
X0174089Y0176492D01*
X0174511Y0175472D01*
X0175075Y0175472D01*
X0175472Y0175075D01*
X0175472Y0174511D01*
X0175075Y0174114D01*
X0174511Y0174114D01*
X0174114Y0174511D01*
X0174114Y0175075D01*
X0174511Y0175472D01*
X0181417Y0183903D02*
X0180737Y0184583D01*
X0182991Y0184583D01*
X0184583Y0182991D01*
X0184583Y0180737D01*
X0182991Y0179145D01*
X0180737Y0179145D01*
X0179145Y0180737D01*
X0179145Y0182991D01*
X0180737Y0184583D01*
X0181160Y0183563D01*
X0182568Y0183563D01*
X0183563Y0182568D01*
X0183563Y0181160D01*
X0182568Y0180165D01*
X0181160Y0180165D01*
X0180165Y0181160D01*
X0180165Y0182568D01*
X0181160Y0183563D01*
X0181582Y0182543D01*
X0182146Y0182543D01*
X0182543Y0182146D01*
X0182543Y0181582D01*
X0182146Y0181185D01*
X0181582Y0181185D01*
X0181185Y0181582D01*
X0181185Y0182146D01*
X0181582Y0182543D01*
X0188488Y0190974D02*
X0187808Y0191654D01*
X0190062Y0191654D01*
X0191654Y0190062D01*
X0191654Y0187808D01*
X0190062Y0186216D01*
X0187808Y0186216D01*
X0186216Y0187808D01*
X0186216Y0190062D01*
X0187808Y0191654D01*
X0188231Y0190634D01*
X0189639Y0190634D01*
X0190634Y0189639D01*
X0190634Y0188231D01*
X0189639Y0187236D01*
X0188231Y0187236D01*
X0187236Y0188231D01*
X0187236Y0189639D01*
X0188231Y0190634D01*
X0188653Y0189614D01*
X0189217Y0189614D01*
X0189614Y0189217D01*
X0189614Y0188653D01*
X0189217Y0188256D01*
X0188653Y0188256D01*
X0188256Y0188653D01*
X0188256Y0189217D01*
X0188653Y0189614D01*
X0175352Y0204087D02*
X0174672Y0204767D01*
X0176926Y0204767D01*
X0178518Y0203175D01*
X0178518Y0200921D01*
X0176926Y0199329D01*
X0174672Y0199329D01*
X0173080Y0200921D01*
X0173080Y0203175D01*
X0174672Y0204767D01*
X0175095Y0203747D01*
X0176503Y0203747D01*
X0177498Y0202752D01*
X0177498Y0201344D01*
X0176503Y0200349D01*
X0175095Y0200349D01*
X0174100Y0201344D01*
X0174100Y0202752D01*
X0175095Y0203747D01*
X0175517Y0202727D01*
X0176081Y0202727D01*
X0176478Y0202330D01*
X0176478Y0201766D01*
X0176081Y0201369D01*
X0175517Y0201369D01*
X0175120Y0201766D01*
X0175120Y0202330D01*
X0175517Y0202727D01*
X0168281Y0197016D02*
X0167601Y0197696D01*
X0169855Y0197696D01*
X0171447Y0196104D01*
X0171447Y0193850D01*
X0169855Y0192258D01*
X0167601Y0192258D01*
X0166009Y0193850D01*
X0166009Y0196104D01*
X0167601Y0197696D01*
X0168024Y0196676D01*
X0169432Y0196676D01*
X0170427Y0195681D01*
X0170427Y0194273D01*
X0169432Y0193278D01*
X0168024Y0193278D01*
X0167029Y0194273D01*
X0167029Y0195681D01*
X0168024Y0196676D01*
X0168446Y0195656D01*
X0169010Y0195656D01*
X0169407Y0195259D01*
X0169407Y0194695D01*
X0169010Y0194298D01*
X0168446Y0194298D01*
X0168049Y0194695D01*
X0168049Y0195259D01*
X0168446Y0195656D01*
X0161210Y0189945D02*
X0160530Y0190625D01*
X0162784Y0190625D01*
X0164376Y0189033D01*
X0164376Y0186779D01*
X0162784Y0185187D01*
X0160530Y0185187D01*
X0158938Y0186779D01*
X0158938Y0189033D01*
X0160530Y0190625D01*
X0160953Y0189605D01*
X0162361Y0189605D01*
X0163356Y0188610D01*
X0163356Y0187202D01*
X0162361Y0186207D01*
X0160953Y0186207D01*
X0159958Y0187202D01*
X0159958Y0188610D01*
X0160953Y0189605D01*
X0161375Y0188585D01*
X0161939Y0188585D01*
X0162336Y0188188D01*
X0162336Y0187624D01*
X0161939Y0187227D01*
X0161375Y0187227D01*
X0160978Y0187624D01*
X0160978Y0188188D01*
X0161375Y0188585D01*
X0154139Y0182874D02*
X0153459Y0183554D01*
X0155713Y0183554D01*
X0157305Y0181962D01*
X0157305Y0179708D01*
X0155713Y0178116D01*
X0153459Y0178116D01*
X0151867Y0179708D01*
X0151867Y0181962D01*
X0153459Y0183554D01*
X0153882Y0182534D01*
X0155290Y0182534D01*
X0156285Y0181539D01*
X0156285Y0180131D01*
X0155290Y0179136D01*
X0153882Y0179136D01*
X0152887Y0180131D01*
X0152887Y0181539D01*
X0153882Y0182534D01*
X0154304Y0181514D01*
X0154868Y0181514D01*
X0155265Y0181117D01*
X0155265Y0180553D01*
X0154868Y0180156D01*
X0154304Y0180156D01*
X0153907Y0180553D01*
X0153907Y0181117D01*
X0154304Y0181514D01*
X0147068Y0175803D02*
X0146388Y0176483D01*
X0148642Y0176483D01*
X0150234Y0174891D01*
X0150234Y0172637D01*
X0148642Y0171045D01*
X0146388Y0171045D01*
X0144796Y0172637D01*
X0144796Y0174891D01*
X0146388Y0176483D01*
X0146811Y0175463D01*
X0148219Y0175463D01*
X0149214Y0174468D01*
X0149214Y0173060D01*
X0148219Y0172065D01*
X0146811Y0172065D01*
X0145816Y0173060D01*
X0145816Y0174468D01*
X0146811Y0175463D01*
X0147233Y0174443D01*
X0147797Y0174443D01*
X0148194Y0174046D01*
X0148194Y0173482D01*
X0147797Y0173085D01*
X0147233Y0173085D01*
X0146836Y0173482D01*
X0146836Y0174046D01*
X0147233Y0174443D01*
X0139997Y0168731D02*
X0139317Y0169411D01*
X0141571Y0169411D01*
X0143163Y0167819D01*
X0143163Y0165565D01*
X0141571Y0163973D01*
X0139317Y0163973D01*
X0137725Y0165565D01*
X0137725Y0167819D01*
X0139317Y0169411D01*
X0139740Y0168391D01*
X0141148Y0168391D01*
X0142143Y0167396D01*
X0142143Y0165988D01*
X0141148Y0164993D01*
X0139740Y0164993D01*
X0138745Y0165988D01*
X0138745Y0167396D01*
X0139740Y0168391D01*
X0140162Y0167371D01*
X0140726Y0167371D01*
X0141123Y0166974D01*
X0141123Y0166410D01*
X0140726Y0166013D01*
X0140162Y0166013D01*
X0139765Y0166410D01*
X0139765Y0166974D01*
X0140162Y0167371D01*
X0132926Y0161660D02*
X0132246Y0162340D01*
X0134500Y0162340D01*
X0136092Y0160748D01*
X0136092Y0158494D01*
X0134500Y0156902D01*
X0132246Y0156902D01*
X0130654Y0158494D01*
X0130654Y0160748D01*
X0132246Y0162340D01*
X0132669Y0161320D01*
X0134077Y0161320D01*
X0135072Y0160325D01*
X0135072Y0158917D01*
X0134077Y0157922D01*
X0132669Y0157922D01*
X0131674Y0158917D01*
X0131674Y0160325D01*
X0132669Y0161320D01*
X0133091Y0160300D01*
X0133655Y0160300D01*
X0134052Y0159903D01*
X0134052Y0159339D01*
X0133655Y0158942D01*
X0133091Y0158942D01*
X0132694Y0159339D01*
X0132694Y0159903D01*
X0133091Y0160300D01*
X0125855Y0154589D02*
X0125175Y0155269D01*
X0127429Y0155269D01*
X0129021Y0153677D01*
X0129021Y0151423D01*
X0127429Y0149831D01*
X0125175Y0149831D01*
X0123583Y0151423D01*
X0123583Y0153677D01*
X0125175Y0155269D01*
X0125598Y0154249D01*
X0127006Y0154249D01*
X0128001Y0153254D01*
X0128001Y0151846D01*
X0127006Y0150851D01*
X0125598Y0150851D01*
X0124603Y0151846D01*
X0124603Y0153254D01*
X0125598Y0154249D01*
X0126020Y0153229D01*
X0126584Y0153229D01*
X0126981Y0152832D01*
X0126981Y0152268D01*
X0126584Y0151871D01*
X0126020Y0151871D01*
X0125623Y0152268D01*
X0125623Y0152832D01*
X0126020Y0153229D01*
X0118784Y0147518D02*
X0118104Y0148198D01*
X0120358Y0148198D01*
X0121950Y0146606D01*
X0121950Y0144352D01*
X0120358Y0142760D01*
X0118104Y0142760D01*
X0116512Y0144352D01*
X0116512Y0146606D01*
X0118104Y0148198D01*
X0118527Y0147178D01*
X0119935Y0147178D01*
X0120930Y0146183D01*
X0120930Y0144775D01*
X0119935Y0143780D01*
X0118527Y0143780D01*
X0117532Y0144775D01*
X0117532Y0146183D01*
X0118527Y0147178D01*
X0118949Y0146158D01*
X0119513Y0146158D01*
X0119910Y0145761D01*
X0119910Y0145197D01*
X0119513Y0144800D01*
X0118949Y0144800D01*
X0118552Y0145197D01*
X0118552Y0145761D01*
X0118949Y0146158D01*
X0111713Y0140447D02*
X0111033Y0141127D01*
X0113287Y0141127D01*
X0114879Y0139535D01*
X0114879Y0137281D01*
X0113287Y0135689D01*
X0111033Y0135689D01*
X0109441Y0137281D01*
X0109441Y0139535D01*
X0111033Y0141127D01*
X0111456Y0140107D01*
X0112864Y0140107D01*
X0113859Y0139112D01*
X0113859Y0137704D01*
X0112864Y0136709D01*
X0111456Y0136709D01*
X0110461Y0137704D01*
X0110461Y0139112D01*
X0111456Y0140107D01*
X0111878Y0139087D01*
X0112442Y0139087D01*
X0112839Y0138690D01*
X0112839Y0138126D01*
X0112442Y0137729D01*
X0111878Y0137729D01*
X0111481Y0138126D01*
X0111481Y0138690D01*
X0111878Y0139087D01*
X0100505Y0096239D02*
X0099825Y0095559D01*
X0099825Y0097813D01*
X0101417Y0099405D01*
X0103671Y0099405D01*
X0105263Y0097813D01*
X0105263Y0095559D01*
X0103671Y0093967D01*
X0101417Y0093967D01*
X0099825Y0095559D01*
X0100845Y0095982D01*
X0100845Y0097390D01*
X0101840Y0098385D01*
X0103248Y0098385D01*
X0104243Y0097390D01*
X0104243Y0095982D01*
X0103248Y0094987D01*
X0101840Y0094987D01*
X0100845Y0095982D01*
X0101865Y0096404D01*
X0101865Y0096968D01*
X0102262Y0097365D01*
X0102826Y0097365D01*
X0103223Y0096968D01*
X0103223Y0096404D01*
X0102826Y0096007D01*
X0102262Y0096007D01*
X0101865Y0096404D01*
X0114647Y0082097D02*
X0113967Y0081417D01*
X0113967Y0083671D01*
X0115559Y0085263D01*
X0117813Y0085263D01*
X0119405Y0083671D01*
X0119405Y0081417D01*
X0117813Y0079825D01*
X0115559Y0079825D01*
X0113967Y0081417D01*
X0114987Y0081840D01*
X0114987Y0083248D01*
X0115982Y0084243D01*
X0117390Y0084243D01*
X0118385Y0083248D01*
X0118385Y0081840D01*
X0117390Y0080845D01*
X0115982Y0080845D01*
X0114987Y0081840D01*
X0116007Y0082262D01*
X0116007Y0082826D01*
X0116404Y0083223D01*
X0116968Y0083223D01*
X0117365Y0082826D01*
X0117365Y0082262D01*
X0116968Y0081865D01*
X0116404Y0081865D01*
X0116007Y0082262D01*
D19*
G36*
X0123856Y0113457D02*
X0128875Y0108438D01*
X0123292Y0102855D01*
X0118273Y0107874D01*
X0123856Y0113457D01*
G37*
G36*
X0115938Y0121375D02*
X0120957Y0116356D01*
X0115374Y0110773D01*
X0110355Y0115792D01*
X0115938Y0121375D01*
G37*
G36*
X0080938Y0088875D02*
X0085957Y0083856D01*
X0080374Y0078273D01*
X0075355Y0083292D01*
X0080938Y0088875D01*
G37*
G36*
X0088856Y0080957D02*
X0093875Y0075938D01*
X0088292Y0070355D01*
X0083273Y0075374D01*
X0088856Y0080957D01*
G37*
X0025213Y0212115D03*
X0014017Y0212115D03*
X0051517Y0289615D03*
X0062713Y0289615D03*
X0079017Y0289615D03*
X0090213Y0289615D03*
X0229017Y0029615D03*
X0240213Y0029615D03*
X0254017Y0029615D03*
X0265213Y0029615D03*
D20*
X0289615Y0229017D03*
X0289615Y0240213D03*
X0289615Y0256517D03*
X0289615Y0267713D03*
X0039615Y0187713D03*
X0039615Y0176517D03*
X0039615Y0150213D03*
X0039615Y0139017D03*
X0029615Y0095213D03*
X0029615Y0084017D03*
X0029615Y0070213D03*
X0029615Y0059017D03*
D21*
G36*
X0191275Y0086588D02*
X0196294Y0081569D01*
X0190161Y0075436D01*
X0185142Y0080455D01*
X0191275Y0086588D01*
G37*
G36*
X0199069Y0078794D02*
X0204088Y0073775D01*
X0197955Y0067642D01*
X0192936Y0072661D01*
X0199069Y0078794D01*
G37*
D22*
G36*
X0232995Y0073133D02*
X0229884Y0070022D01*
X0216591Y0083315D01*
X0219702Y0086426D01*
X0232995Y0073133D01*
G37*
G36*
X0237732Y0077871D02*
X0234621Y0074760D01*
X0221328Y0088053D01*
X0224439Y0091164D01*
X0237732Y0077871D01*
G37*
G36*
X0242470Y0082608D02*
X0239359Y0079497D01*
X0226066Y0092790D01*
X0229177Y0095901D01*
X0242470Y0082608D01*
G37*
G36*
X0247207Y0087346D02*
X0244096Y0084235D01*
X0230803Y0097528D01*
X0233914Y0100639D01*
X0247207Y0087346D01*
G37*
G36*
X0251945Y0092084D02*
X0248834Y0088973D01*
X0235541Y0102266D01*
X0238652Y0105377D01*
X0251945Y0092084D01*
G37*
D23*
G36*
X0236772Y0118368D02*
X0204192Y0085788D01*
X0175788Y0114192D01*
X0208368Y0146772D01*
X0236772Y0118368D01*
G37*
D24*
G36*
X0117985Y0237856D02*
X0123295Y0232546D01*
X0121755Y0231006D01*
X0116445Y0236316D01*
X0117985Y0237856D01*
G37*
G36*
X0116176Y0236047D02*
X0121486Y0230737D01*
X0119946Y0229197D01*
X0114636Y0234507D01*
X0116176Y0236047D01*
G37*
G36*
X0114366Y0234237D02*
X0119676Y0228927D01*
X0118136Y0227387D01*
X0112826Y0232697D01*
X0114366Y0234237D01*
G37*
G36*
X0112557Y0232427D02*
X0117867Y0227117D01*
X0116327Y0225577D01*
X0111017Y0230887D01*
X0112557Y0232427D01*
G37*
G36*
X0110747Y0230618D02*
X0116057Y0225308D01*
X0114517Y0223768D01*
X0109207Y0229078D01*
X0110747Y0230618D01*
G37*
G36*
X0108938Y0228808D02*
X0114248Y0223498D01*
X0112708Y0221958D01*
X0107398Y0227268D01*
X0108938Y0228808D01*
G37*
G36*
X0107128Y0226999D02*
X0112438Y0221689D01*
X0110898Y0220149D01*
X0105588Y0225459D01*
X0107128Y0226999D01*
G37*
G36*
X0105319Y0225189D02*
X0110629Y0219879D01*
X0109089Y0218339D01*
X0103779Y0223649D01*
X0105319Y0225189D01*
G37*
G36*
X0103509Y0223380D02*
X0108819Y0218070D01*
X0107279Y0216530D01*
X0101969Y0221840D01*
X0103509Y0223380D01*
G37*
G36*
X0101700Y0221570D02*
X0107010Y0216260D01*
X0105470Y0214720D01*
X0100160Y0220030D01*
X0101700Y0221570D01*
G37*
G36*
X0099890Y0219761D02*
X0105200Y0214451D01*
X0103660Y0212911D01*
X0098350Y0218221D01*
X0099890Y0219761D01*
G37*
G36*
X0098081Y0217951D02*
X0103391Y0212641D01*
X0101851Y0211101D01*
X0096541Y0216411D01*
X0098081Y0217951D01*
G37*
G36*
X0096271Y0216142D02*
X0101581Y0210832D01*
X0100041Y0209292D01*
X0094731Y0214602D01*
X0096271Y0216142D01*
G37*
G36*
X0094461Y0214332D02*
X0099771Y0209022D01*
X0098231Y0207482D01*
X0092921Y0212792D01*
X0094461Y0214332D01*
G37*
G36*
X0092652Y0212523D02*
X0097962Y0207213D01*
X0096422Y0205673D01*
X0091112Y0210983D01*
X0092652Y0212523D01*
G37*
G36*
X0090842Y0210713D02*
X0096152Y0205403D01*
X0094612Y0203863D01*
X0089302Y0209173D01*
X0090842Y0210713D01*
G37*
G36*
X0089033Y0208904D02*
X0094343Y0203594D01*
X0092803Y0202054D01*
X0087493Y0207364D01*
X0089033Y0208904D01*
G37*
G36*
X0087223Y0207094D02*
X0092533Y0201784D01*
X0090993Y0200244D01*
X0085683Y0205554D01*
X0087223Y0207094D01*
G37*
G36*
X0085414Y0205285D02*
X0090724Y0199975D01*
X0089184Y0198435D01*
X0083874Y0203745D01*
X0085414Y0205285D01*
G37*
G36*
X0066245Y0221374D02*
X0060935Y0226684D01*
X0062475Y0228224D01*
X0067785Y0222914D01*
X0066245Y0221374D01*
G37*
G36*
X0068054Y0223183D02*
X0062744Y0228493D01*
X0064284Y0230033D01*
X0069594Y0224723D01*
X0068054Y0223183D01*
G37*
G36*
X0069864Y0224993D02*
X0064554Y0230303D01*
X0066094Y0231843D01*
X0071404Y0226533D01*
X0069864Y0224993D01*
G37*
G36*
X0071673Y0226802D02*
X0066363Y0232112D01*
X0067903Y0233652D01*
X0073213Y0228342D01*
X0071673Y0226802D01*
G37*
G36*
X0073483Y0228612D02*
X0068173Y0233922D01*
X0069713Y0235462D01*
X0075023Y0230152D01*
X0073483Y0228612D01*
G37*
G36*
X0075292Y0230421D02*
X0069982Y0235731D01*
X0071522Y0237271D01*
X0076832Y0231961D01*
X0075292Y0230421D01*
G37*
G36*
X0077102Y0232231D02*
X0071792Y0237541D01*
X0073332Y0239081D01*
X0078642Y0233771D01*
X0077102Y0232231D01*
G37*
G36*
X0078911Y0234041D02*
X0073601Y0239351D01*
X0075141Y0240891D01*
X0080451Y0235581D01*
X0078911Y0234041D01*
G37*
G36*
X0080721Y0235850D02*
X0075411Y0241160D01*
X0076951Y0242700D01*
X0082261Y0237390D01*
X0080721Y0235850D01*
G37*
G36*
X0082530Y0237660D02*
X0077220Y0242970D01*
X0078760Y0244510D01*
X0084070Y0239200D01*
X0082530Y0237660D01*
G37*
G36*
X0084340Y0239469D02*
X0079030Y0244779D01*
X0080570Y0246319D01*
X0085880Y0241009D01*
X0084340Y0239469D01*
G37*
G36*
X0086149Y0241279D02*
X0080839Y0246589D01*
X0082379Y0248129D01*
X0087689Y0242819D01*
X0086149Y0241279D01*
G37*
G36*
X0087959Y0243088D02*
X0082649Y0248398D01*
X0084189Y0249938D01*
X0089499Y0244628D01*
X0087959Y0243088D01*
G37*
G36*
X0089768Y0244898D02*
X0084458Y0250208D01*
X0085998Y0251748D01*
X0091308Y0246438D01*
X0089768Y0244898D01*
G37*
G36*
X0091578Y0246707D02*
X0086268Y0252017D01*
X0087808Y0253557D01*
X0093118Y0248247D01*
X0091578Y0246707D01*
G37*
G36*
X0093387Y0248517D02*
X0088077Y0253827D01*
X0089617Y0255367D01*
X0094927Y0250057D01*
X0093387Y0248517D01*
G37*
G36*
X0095197Y0250326D02*
X0089887Y0255636D01*
X0091427Y0257176D01*
X0096737Y0251866D01*
X0095197Y0250326D01*
G37*
G36*
X0097007Y0252136D02*
X0091697Y0257446D01*
X0093237Y0258986D01*
X0098547Y0253676D01*
X0097007Y0252136D01*
G37*
G36*
X0098816Y0253945D02*
X0093506Y0259255D01*
X0095046Y0260795D01*
X0100356Y0255485D01*
X0098816Y0253945D01*
G37*
D25*
G36*
X0125295Y0130103D02*
X0130103Y0125295D01*
X0125295Y0120487D01*
X0120487Y0125295D01*
X0125295Y0130103D01*
G37*
D26*
X0137715Y0148515D03*
X0111715Y0164115D03*
X0108915Y0170115D03*
X0118115Y0199315D03*
X0119715Y0203715D03*
X0123315Y0206515D03*
X0110915Y0216915D03*
X0107715Y0213715D03*
X0104515Y0210515D03*
X0100515Y0223715D03*
X0098915Y0237315D03*
X0088515Y0238515D03*
X0084115Y0235315D03*
X0078915Y0230515D03*
X0066515Y0236915D03*
X0065315Y0246115D03*
X0077715Y0246915D03*
X0080915Y0252515D03*
X0074915Y0258515D03*
X0064915Y0263315D03*
X0066515Y0269315D03*
X0078915Y0278515D03*
X0055715Y0281315D03*
X0050915Y0247715D03*
X0047715Y0244515D03*
X0051715Y0236915D03*
X0042915Y0228115D03*
X0047315Y0223715D03*
X0052515Y0218515D03*
X0045315Y0210515D03*
X0038115Y0221715D03*
X0026515Y0205315D03*
X0031715Y0191715D03*
X0029715Y0185315D03*
X0010515Y0190915D03*
X0060515Y0210515D03*
X0075315Y0202915D03*
X0079715Y0201315D03*
X0125315Y0233315D03*
X0125315Y0251715D03*
X0129715Y0251715D03*
X0142515Y0240915D03*
X0153315Y0258115D03*
X0156915Y0261715D03*
X0196915Y0286515D03*
X0136115Y0216915D03*
X0139315Y0195315D03*
X0180115Y0213715D03*
X0112515Y0294515D03*
X0050515Y0138915D03*
X0163715Y0100915D03*
M02*
