G75*
%MOIN*%
%OFA0B0*%
%FSLAX25Y25*%
%IPPOS*%
%LPD*%
%AMOC8*
5,1,8,0,0,1.08239X$1,22.5*
%
%ADD10R,0.06299X0.07087*%
%ADD11R,0.01575X0.04724*%
%ADD12R,0.04724X0.01575*%
%ADD13R,0.06000X0.06000*%
%ADD14OC8,0.06000*%
%ADD15R,0.05906X0.05906*%
%ADD16C,0.01200*%
%ADD17R,0.06299X0.07098*%
%ADD18R,0.07098X0.06299*%
%ADD19R,0.06299X0.07874*%
%ADD20R,0.03600X0.18000*%
%ADD21R,0.45276X0.39370*%
%ADD22R,0.06713X0.01378*%
%ADD23R,0.06000X0.06000*%
%ADD24C,0.01400*%
%ADD25C,0.02400*%
%ADD26C,0.03600*%
%ADD27C,0.01600*%
%ADD28C,0.00800*%
D10*
G36*
X0098487Y0175996D02*
X0102940Y0180449D01*
X0107949Y0175440D01*
X0103496Y0170987D01*
X0098487Y0175996D01*
G37*
G36*
X0106281Y0183790D02*
X0110734Y0188243D01*
X0115743Y0183234D01*
X0111290Y0178781D01*
X0106281Y0183790D01*
G37*
G36*
X0053487Y0248496D02*
X0057940Y0252949D01*
X0062949Y0247940D01*
X0058496Y0243487D01*
X0053487Y0248496D01*
G37*
G36*
X0061281Y0256290D02*
X0065734Y0260743D01*
X0070743Y0255734D01*
X0066290Y0251281D01*
X0061281Y0256290D01*
G37*
G36*
X0080449Y0265440D02*
X0075996Y0260987D01*
X0070987Y0265996D01*
X0075440Y0270449D01*
X0080449Y0265440D01*
G37*
G36*
X0088243Y0273234D02*
X0083790Y0268781D01*
X0078781Y0273790D01*
X0083234Y0278243D01*
X0088243Y0273234D01*
G37*
G36*
X0107940Y0253781D02*
X0103487Y0258234D01*
X0108496Y0263243D01*
X0112949Y0258790D01*
X0107940Y0253781D01*
G37*
G36*
X0115734Y0245987D02*
X0111281Y0250440D01*
X0116290Y0255449D01*
X0120743Y0250996D01*
X0115734Y0245987D01*
G37*
X0025127Y0197115D03*
X0014103Y0197115D03*
G36*
X0243496Y0073243D02*
X0247949Y0068790D01*
X0242940Y0063781D01*
X0238487Y0068234D01*
X0243496Y0073243D01*
G37*
G36*
X0252940Y0073781D02*
X0248487Y0078234D01*
X0253496Y0083243D01*
X0257949Y0078790D01*
X0252940Y0073781D01*
G37*
G36*
X0260734Y0065987D02*
X0256281Y0070440D01*
X0261290Y0075449D01*
X0265743Y0070996D01*
X0260734Y0065987D01*
G37*
G36*
X0251290Y0065449D02*
X0255743Y0060996D01*
X0250734Y0055987D01*
X0246281Y0060440D01*
X0251290Y0065449D01*
G37*
D11*
X0280875Y0079733D03*
X0288355Y0079733D03*
X0298375Y0079733D03*
X0305855Y0079733D03*
X0302115Y0069497D03*
X0284615Y0069497D03*
X0038355Y0246997D03*
X0030875Y0246997D03*
X0020855Y0246997D03*
X0013375Y0246997D03*
X0017115Y0257233D03*
X0034615Y0257233D03*
D12*
X0241997Y0275875D03*
X0241997Y0283355D03*
X0252233Y0279615D03*
X0241997Y0298375D03*
X0241997Y0305855D03*
X0252233Y0302115D03*
X0077233Y0038355D03*
X0077233Y0030875D03*
X0077233Y0020855D03*
X0077233Y0013375D03*
X0066997Y0017115D03*
X0066997Y0034615D03*
D13*
X0054615Y0014615D03*
X0014615Y0064615D03*
X0015875Y0269064D03*
X0057115Y0304615D03*
X0264615Y0304615D03*
X0304615Y0259615D03*
X0302115Y0054615D03*
X0254615Y0014615D03*
D14*
X0244615Y0014615D03*
X0234615Y0014615D03*
X0292115Y0054615D03*
X0304615Y0239615D03*
X0304615Y0249615D03*
X0264615Y0294615D03*
X0217115Y0294615D03*
X0217115Y0304615D03*
X0207115Y0304615D03*
X0207115Y0294615D03*
X0197115Y0294615D03*
X0197115Y0304615D03*
X0187115Y0304615D03*
X0187115Y0294615D03*
X0177115Y0294615D03*
X0177115Y0304615D03*
X0167115Y0304615D03*
X0167115Y0294615D03*
X0157115Y0294615D03*
X0157115Y0304615D03*
X0147115Y0304615D03*
X0147115Y0294615D03*
X0137115Y0294615D03*
X0137115Y0304615D03*
X0127115Y0304615D03*
X0127115Y0294615D03*
X0077115Y0304615D03*
X0067115Y0304615D03*
X0025875Y0269064D03*
X0024615Y0182115D03*
X0014615Y0182115D03*
X0014615Y0172115D03*
X0024615Y0172115D03*
X0024615Y0162115D03*
X0024615Y0152115D03*
X0024615Y0142115D03*
X0024615Y0132115D03*
X0024615Y0122115D03*
X0014615Y0122115D03*
X0014615Y0132115D03*
X0014615Y0142115D03*
X0014615Y0152115D03*
X0014615Y0162115D03*
X0014615Y0084615D03*
X0014615Y0074615D03*
X0054615Y0024615D03*
D15*
G36*
X0082243Y0108919D02*
X0086419Y0104743D01*
X0082243Y0100567D01*
X0078067Y0104743D01*
X0082243Y0108919D01*
G37*
G36*
X0091987Y0118663D02*
X0096163Y0114487D01*
X0091987Y0110311D01*
X0087811Y0114487D01*
X0091987Y0118663D01*
G37*
G36*
X0168067Y0099487D02*
X0172243Y0103663D01*
X0176419Y0099487D01*
X0172243Y0095311D01*
X0168067Y0099487D01*
G37*
G36*
X0177811Y0089743D02*
X0181987Y0093919D01*
X0186163Y0089743D01*
X0181987Y0085567D01*
X0177811Y0089743D01*
G37*
D16*
X0131972Y0134165D02*
X0131372Y0134765D01*
X0133360Y0134765D01*
X0134765Y0133360D01*
X0134765Y0131372D01*
X0133360Y0129967D01*
X0131372Y0129967D01*
X0129967Y0131372D01*
X0129967Y0133360D01*
X0131372Y0134765D01*
X0131745Y0133865D01*
X0132987Y0133865D01*
X0133865Y0132987D01*
X0133865Y0131745D01*
X0132987Y0130867D01*
X0131745Y0130867D01*
X0130867Y0131745D01*
X0130867Y0132987D01*
X0131745Y0133865D01*
X0132118Y0132965D01*
X0132614Y0132965D01*
X0132965Y0132614D01*
X0132965Y0132118D01*
X0132614Y0131767D01*
X0132118Y0131767D01*
X0131767Y0132118D01*
X0131767Y0132614D01*
X0132118Y0132965D01*
X0139043Y0141236D02*
X0138443Y0141836D01*
X0140431Y0141836D01*
X0141836Y0140431D01*
X0141836Y0138443D01*
X0140431Y0137038D01*
X0138443Y0137038D01*
X0137038Y0138443D01*
X0137038Y0140431D01*
X0138443Y0141836D01*
X0138816Y0140936D01*
X0140058Y0140936D01*
X0140936Y0140058D01*
X0140936Y0138816D01*
X0140058Y0137938D01*
X0138816Y0137938D01*
X0137938Y0138816D01*
X0137938Y0140058D01*
X0138816Y0140936D01*
X0139189Y0140036D01*
X0139685Y0140036D01*
X0140036Y0139685D01*
X0140036Y0139189D01*
X0139685Y0138838D01*
X0139189Y0138838D01*
X0138838Y0139189D01*
X0138838Y0139685D01*
X0139189Y0140036D01*
X0146114Y0148307D02*
X0145514Y0148907D01*
X0147502Y0148907D01*
X0148907Y0147502D01*
X0148907Y0145514D01*
X0147502Y0144109D01*
X0145514Y0144109D01*
X0144109Y0145514D01*
X0144109Y0147502D01*
X0145514Y0148907D01*
X0145887Y0148007D01*
X0147129Y0148007D01*
X0148007Y0147129D01*
X0148007Y0145887D01*
X0147129Y0145009D01*
X0145887Y0145009D01*
X0145009Y0145887D01*
X0145009Y0147129D01*
X0145887Y0148007D01*
X0146260Y0147107D01*
X0146756Y0147107D01*
X0147107Y0146756D01*
X0147107Y0146260D01*
X0146756Y0145909D01*
X0146260Y0145909D01*
X0145909Y0146260D01*
X0145909Y0146756D01*
X0146260Y0147107D01*
X0153185Y0155378D02*
X0152585Y0155978D01*
X0154573Y0155978D01*
X0155978Y0154573D01*
X0155978Y0152585D01*
X0154573Y0151180D01*
X0152585Y0151180D01*
X0151180Y0152585D01*
X0151180Y0154573D01*
X0152585Y0155978D01*
X0152958Y0155078D01*
X0154200Y0155078D01*
X0155078Y0154200D01*
X0155078Y0152958D01*
X0154200Y0152080D01*
X0152958Y0152080D01*
X0152080Y0152958D01*
X0152080Y0154200D01*
X0152958Y0155078D01*
X0153331Y0154178D01*
X0153827Y0154178D01*
X0154178Y0153827D01*
X0154178Y0153331D01*
X0153827Y0152980D01*
X0153331Y0152980D01*
X0152980Y0153331D01*
X0152980Y0153827D01*
X0153331Y0154178D01*
X0160256Y0162449D02*
X0159656Y0163049D01*
X0161644Y0163049D01*
X0163049Y0161644D01*
X0163049Y0159656D01*
X0161644Y0158251D01*
X0159656Y0158251D01*
X0158251Y0159656D01*
X0158251Y0161644D01*
X0159656Y0163049D01*
X0160029Y0162149D01*
X0161271Y0162149D01*
X0162149Y0161271D01*
X0162149Y0160029D01*
X0161271Y0159151D01*
X0160029Y0159151D01*
X0159151Y0160029D01*
X0159151Y0161271D01*
X0160029Y0162149D01*
X0160402Y0161249D01*
X0160898Y0161249D01*
X0161249Y0160898D01*
X0161249Y0160402D01*
X0160898Y0160051D01*
X0160402Y0160051D01*
X0160051Y0160402D01*
X0160051Y0160898D01*
X0160402Y0161249D01*
X0167328Y0169521D02*
X0166728Y0170121D01*
X0168716Y0170121D01*
X0170121Y0168716D01*
X0170121Y0166728D01*
X0168716Y0165323D01*
X0166728Y0165323D01*
X0165323Y0166728D01*
X0165323Y0168716D01*
X0166728Y0170121D01*
X0167101Y0169221D01*
X0168343Y0169221D01*
X0169221Y0168343D01*
X0169221Y0167101D01*
X0168343Y0166223D01*
X0167101Y0166223D01*
X0166223Y0167101D01*
X0166223Y0168343D01*
X0167101Y0169221D01*
X0167474Y0168321D01*
X0167970Y0168321D01*
X0168321Y0167970D01*
X0168321Y0167474D01*
X0167970Y0167123D01*
X0167474Y0167123D01*
X0167123Y0167474D01*
X0167123Y0167970D01*
X0167474Y0168321D01*
X0174399Y0176592D02*
X0173799Y0177192D01*
X0175787Y0177192D01*
X0177192Y0175787D01*
X0177192Y0173799D01*
X0175787Y0172394D01*
X0173799Y0172394D01*
X0172394Y0173799D01*
X0172394Y0175787D01*
X0173799Y0177192D01*
X0174172Y0176292D01*
X0175414Y0176292D01*
X0176292Y0175414D01*
X0176292Y0174172D01*
X0175414Y0173294D01*
X0174172Y0173294D01*
X0173294Y0174172D01*
X0173294Y0175414D01*
X0174172Y0176292D01*
X0174545Y0175392D01*
X0175041Y0175392D01*
X0175392Y0175041D01*
X0175392Y0174545D01*
X0175041Y0174194D01*
X0174545Y0174194D01*
X0174194Y0174545D01*
X0174194Y0175041D01*
X0174545Y0175392D01*
X0181470Y0183663D02*
X0180870Y0184263D01*
X0182858Y0184263D01*
X0184263Y0182858D01*
X0184263Y0180870D01*
X0182858Y0179465D01*
X0180870Y0179465D01*
X0179465Y0180870D01*
X0179465Y0182858D01*
X0180870Y0184263D01*
X0181243Y0183363D01*
X0182485Y0183363D01*
X0183363Y0182485D01*
X0183363Y0181243D01*
X0182485Y0180365D01*
X0181243Y0180365D01*
X0180365Y0181243D01*
X0180365Y0182485D01*
X0181243Y0183363D01*
X0181616Y0182463D01*
X0182112Y0182463D01*
X0182463Y0182112D01*
X0182463Y0181616D01*
X0182112Y0181265D01*
X0181616Y0181265D01*
X0181265Y0181616D01*
X0181265Y0182112D01*
X0181616Y0182463D01*
X0188541Y0190734D02*
X0187941Y0191334D01*
X0189929Y0191334D01*
X0191334Y0189929D01*
X0191334Y0187941D01*
X0189929Y0186536D01*
X0187941Y0186536D01*
X0186536Y0187941D01*
X0186536Y0189929D01*
X0187941Y0191334D01*
X0188314Y0190434D01*
X0189556Y0190434D01*
X0190434Y0189556D01*
X0190434Y0188314D01*
X0189556Y0187436D01*
X0188314Y0187436D01*
X0187436Y0188314D01*
X0187436Y0189556D01*
X0188314Y0190434D01*
X0188687Y0189534D01*
X0189183Y0189534D01*
X0189534Y0189183D01*
X0189534Y0188687D01*
X0189183Y0188336D01*
X0188687Y0188336D01*
X0188336Y0188687D01*
X0188336Y0189183D01*
X0188687Y0189534D01*
X0175405Y0203847D02*
X0174805Y0204447D01*
X0176793Y0204447D01*
X0178198Y0203042D01*
X0178198Y0201054D01*
X0176793Y0199649D01*
X0174805Y0199649D01*
X0173400Y0201054D01*
X0173400Y0203042D01*
X0174805Y0204447D01*
X0175178Y0203547D01*
X0176420Y0203547D01*
X0177298Y0202669D01*
X0177298Y0201427D01*
X0176420Y0200549D01*
X0175178Y0200549D01*
X0174300Y0201427D01*
X0174300Y0202669D01*
X0175178Y0203547D01*
X0175551Y0202647D01*
X0176047Y0202647D01*
X0176398Y0202296D01*
X0176398Y0201800D01*
X0176047Y0201449D01*
X0175551Y0201449D01*
X0175200Y0201800D01*
X0175200Y0202296D01*
X0175551Y0202647D01*
X0168334Y0196776D02*
X0167734Y0197376D01*
X0169722Y0197376D01*
X0171127Y0195971D01*
X0171127Y0193983D01*
X0169722Y0192578D01*
X0167734Y0192578D01*
X0166329Y0193983D01*
X0166329Y0195971D01*
X0167734Y0197376D01*
X0168107Y0196476D01*
X0169349Y0196476D01*
X0170227Y0195598D01*
X0170227Y0194356D01*
X0169349Y0193478D01*
X0168107Y0193478D01*
X0167229Y0194356D01*
X0167229Y0195598D01*
X0168107Y0196476D01*
X0168480Y0195576D01*
X0168976Y0195576D01*
X0169327Y0195225D01*
X0169327Y0194729D01*
X0168976Y0194378D01*
X0168480Y0194378D01*
X0168129Y0194729D01*
X0168129Y0195225D01*
X0168480Y0195576D01*
X0161263Y0189705D02*
X0160663Y0190305D01*
X0162651Y0190305D01*
X0164056Y0188900D01*
X0164056Y0186912D01*
X0162651Y0185507D01*
X0160663Y0185507D01*
X0159258Y0186912D01*
X0159258Y0188900D01*
X0160663Y0190305D01*
X0161036Y0189405D01*
X0162278Y0189405D01*
X0163156Y0188527D01*
X0163156Y0187285D01*
X0162278Y0186407D01*
X0161036Y0186407D01*
X0160158Y0187285D01*
X0160158Y0188527D01*
X0161036Y0189405D01*
X0161409Y0188505D01*
X0161905Y0188505D01*
X0162256Y0188154D01*
X0162256Y0187658D01*
X0161905Y0187307D01*
X0161409Y0187307D01*
X0161058Y0187658D01*
X0161058Y0188154D01*
X0161409Y0188505D01*
X0154192Y0182634D02*
X0153592Y0183234D01*
X0155580Y0183234D01*
X0156985Y0181829D01*
X0156985Y0179841D01*
X0155580Y0178436D01*
X0153592Y0178436D01*
X0152187Y0179841D01*
X0152187Y0181829D01*
X0153592Y0183234D01*
X0153965Y0182334D01*
X0155207Y0182334D01*
X0156085Y0181456D01*
X0156085Y0180214D01*
X0155207Y0179336D01*
X0153965Y0179336D01*
X0153087Y0180214D01*
X0153087Y0181456D01*
X0153965Y0182334D01*
X0154338Y0181434D01*
X0154834Y0181434D01*
X0155185Y0181083D01*
X0155185Y0180587D01*
X0154834Y0180236D01*
X0154338Y0180236D01*
X0153987Y0180587D01*
X0153987Y0181083D01*
X0154338Y0181434D01*
X0147121Y0175563D02*
X0146521Y0176163D01*
X0148509Y0176163D01*
X0149914Y0174758D01*
X0149914Y0172770D01*
X0148509Y0171365D01*
X0146521Y0171365D01*
X0145116Y0172770D01*
X0145116Y0174758D01*
X0146521Y0176163D01*
X0146894Y0175263D01*
X0148136Y0175263D01*
X0149014Y0174385D01*
X0149014Y0173143D01*
X0148136Y0172265D01*
X0146894Y0172265D01*
X0146016Y0173143D01*
X0146016Y0174385D01*
X0146894Y0175263D01*
X0147267Y0174363D01*
X0147763Y0174363D01*
X0148114Y0174012D01*
X0148114Y0173516D01*
X0147763Y0173165D01*
X0147267Y0173165D01*
X0146916Y0173516D01*
X0146916Y0174012D01*
X0147267Y0174363D01*
X0140050Y0168491D02*
X0139450Y0169091D01*
X0141438Y0169091D01*
X0142843Y0167686D01*
X0142843Y0165698D01*
X0141438Y0164293D01*
X0139450Y0164293D01*
X0138045Y0165698D01*
X0138045Y0167686D01*
X0139450Y0169091D01*
X0139823Y0168191D01*
X0141065Y0168191D01*
X0141943Y0167313D01*
X0141943Y0166071D01*
X0141065Y0165193D01*
X0139823Y0165193D01*
X0138945Y0166071D01*
X0138945Y0167313D01*
X0139823Y0168191D01*
X0140196Y0167291D01*
X0140692Y0167291D01*
X0141043Y0166940D01*
X0141043Y0166444D01*
X0140692Y0166093D01*
X0140196Y0166093D01*
X0139845Y0166444D01*
X0139845Y0166940D01*
X0140196Y0167291D01*
X0132979Y0161420D02*
X0132379Y0162020D01*
X0134367Y0162020D01*
X0135772Y0160615D01*
X0135772Y0158627D01*
X0134367Y0157222D01*
X0132379Y0157222D01*
X0130974Y0158627D01*
X0130974Y0160615D01*
X0132379Y0162020D01*
X0132752Y0161120D01*
X0133994Y0161120D01*
X0134872Y0160242D01*
X0134872Y0159000D01*
X0133994Y0158122D01*
X0132752Y0158122D01*
X0131874Y0159000D01*
X0131874Y0160242D01*
X0132752Y0161120D01*
X0133125Y0160220D01*
X0133621Y0160220D01*
X0133972Y0159869D01*
X0133972Y0159373D01*
X0133621Y0159022D01*
X0133125Y0159022D01*
X0132774Y0159373D01*
X0132774Y0159869D01*
X0133125Y0160220D01*
X0125908Y0154349D02*
X0125308Y0154949D01*
X0127296Y0154949D01*
X0128701Y0153544D01*
X0128701Y0151556D01*
X0127296Y0150151D01*
X0125308Y0150151D01*
X0123903Y0151556D01*
X0123903Y0153544D01*
X0125308Y0154949D01*
X0125681Y0154049D01*
X0126923Y0154049D01*
X0127801Y0153171D01*
X0127801Y0151929D01*
X0126923Y0151051D01*
X0125681Y0151051D01*
X0124803Y0151929D01*
X0124803Y0153171D01*
X0125681Y0154049D01*
X0126054Y0153149D01*
X0126550Y0153149D01*
X0126901Y0152798D01*
X0126901Y0152302D01*
X0126550Y0151951D01*
X0126054Y0151951D01*
X0125703Y0152302D01*
X0125703Y0152798D01*
X0126054Y0153149D01*
X0118837Y0147278D02*
X0118237Y0147878D01*
X0120225Y0147878D01*
X0121630Y0146473D01*
X0121630Y0144485D01*
X0120225Y0143080D01*
X0118237Y0143080D01*
X0116832Y0144485D01*
X0116832Y0146473D01*
X0118237Y0147878D01*
X0118610Y0146978D01*
X0119852Y0146978D01*
X0120730Y0146100D01*
X0120730Y0144858D01*
X0119852Y0143980D01*
X0118610Y0143980D01*
X0117732Y0144858D01*
X0117732Y0146100D01*
X0118610Y0146978D01*
X0118983Y0146078D01*
X0119479Y0146078D01*
X0119830Y0145727D01*
X0119830Y0145231D01*
X0119479Y0144880D01*
X0118983Y0144880D01*
X0118632Y0145231D01*
X0118632Y0145727D01*
X0118983Y0146078D01*
X0111766Y0140207D02*
X0111166Y0140807D01*
X0113154Y0140807D01*
X0114559Y0139402D01*
X0114559Y0137414D01*
X0113154Y0136009D01*
X0111166Y0136009D01*
X0109761Y0137414D01*
X0109761Y0139402D01*
X0111166Y0140807D01*
X0111539Y0139907D01*
X0112781Y0139907D01*
X0113659Y0139029D01*
X0113659Y0137787D01*
X0112781Y0136909D01*
X0111539Y0136909D01*
X0110661Y0137787D01*
X0110661Y0139029D01*
X0111539Y0139907D01*
X0111912Y0139007D01*
X0112408Y0139007D01*
X0112759Y0138656D01*
X0112759Y0138160D01*
X0112408Y0137809D01*
X0111912Y0137809D01*
X0111561Y0138160D01*
X0111561Y0138656D01*
X0111912Y0139007D01*
X0100745Y0096292D02*
X0100145Y0095692D01*
X0100145Y0097680D01*
X0101550Y0099085D01*
X0103538Y0099085D01*
X0104943Y0097680D01*
X0104943Y0095692D01*
X0103538Y0094287D01*
X0101550Y0094287D01*
X0100145Y0095692D01*
X0101045Y0096065D01*
X0101045Y0097307D01*
X0101923Y0098185D01*
X0103165Y0098185D01*
X0104043Y0097307D01*
X0104043Y0096065D01*
X0103165Y0095187D01*
X0101923Y0095187D01*
X0101045Y0096065D01*
X0101945Y0096438D01*
X0101945Y0096934D01*
X0102296Y0097285D01*
X0102792Y0097285D01*
X0103143Y0096934D01*
X0103143Y0096438D01*
X0102792Y0096087D01*
X0102296Y0096087D01*
X0101945Y0096438D01*
X0114887Y0082150D02*
X0114287Y0081550D01*
X0114287Y0083538D01*
X0115692Y0084943D01*
X0117680Y0084943D01*
X0119085Y0083538D01*
X0119085Y0081550D01*
X0117680Y0080145D01*
X0115692Y0080145D01*
X0114287Y0081550D01*
X0115187Y0081923D01*
X0115187Y0083165D01*
X0116065Y0084043D01*
X0117307Y0084043D01*
X0118185Y0083165D01*
X0118185Y0081923D01*
X0117307Y0081045D01*
X0116065Y0081045D01*
X0115187Y0081923D01*
X0116087Y0082296D01*
X0116087Y0082792D01*
X0116438Y0083143D01*
X0116934Y0083143D01*
X0117285Y0082792D01*
X0117285Y0082296D01*
X0116934Y0081945D01*
X0116438Y0081945D01*
X0116087Y0082296D01*
D17*
G36*
X0123856Y0112892D02*
X0128310Y0108438D01*
X0123292Y0103420D01*
X0118838Y0107874D01*
X0123856Y0112892D01*
G37*
G36*
X0115938Y0120810D02*
X0120392Y0116356D01*
X0115374Y0111338D01*
X0110920Y0115792D01*
X0115938Y0120810D01*
G37*
G36*
X0080938Y0088310D02*
X0085392Y0083856D01*
X0080374Y0078838D01*
X0075920Y0083292D01*
X0080938Y0088310D01*
G37*
G36*
X0088856Y0080392D02*
X0093310Y0075938D01*
X0088292Y0070920D01*
X0083838Y0075374D01*
X0088856Y0080392D01*
G37*
X0025213Y0212115D03*
X0014017Y0212115D03*
X0051517Y0289615D03*
X0062713Y0289615D03*
X0079017Y0289615D03*
X0090213Y0289615D03*
X0229017Y0029615D03*
X0240213Y0029615D03*
X0254017Y0029615D03*
X0265213Y0029615D03*
D18*
X0289615Y0229017D03*
X0289615Y0240213D03*
X0289615Y0256517D03*
X0289615Y0267713D03*
X0039615Y0187713D03*
X0039615Y0176517D03*
X0039615Y0150213D03*
X0039615Y0139017D03*
X0029615Y0095213D03*
X0029615Y0084017D03*
X0029615Y0070213D03*
X0029615Y0059017D03*
D19*
G36*
X0191275Y0086022D02*
X0195728Y0081569D01*
X0190161Y0076002D01*
X0185708Y0080455D01*
X0191275Y0086022D01*
G37*
G36*
X0199069Y0078228D02*
X0203522Y0073775D01*
X0197955Y0068208D01*
X0193502Y0072661D01*
X0199069Y0078228D01*
G37*
D20*
G36*
X0232429Y0073133D02*
X0229884Y0070588D01*
X0217157Y0083315D01*
X0219702Y0085860D01*
X0232429Y0073133D01*
G37*
G36*
X0237166Y0077871D02*
X0234621Y0075326D01*
X0221894Y0088053D01*
X0224439Y0090598D01*
X0237166Y0077871D01*
G37*
G36*
X0241904Y0082608D02*
X0239359Y0080063D01*
X0226632Y0092790D01*
X0229177Y0095335D01*
X0241904Y0082608D01*
G37*
G36*
X0246641Y0087346D02*
X0244096Y0084801D01*
X0231369Y0097528D01*
X0233914Y0100073D01*
X0246641Y0087346D01*
G37*
G36*
X0251379Y0092084D02*
X0248834Y0089539D01*
X0236107Y0102266D01*
X0238652Y0104811D01*
X0251379Y0092084D01*
G37*
D21*
G36*
X0236206Y0118368D02*
X0204192Y0086354D01*
X0176354Y0114192D01*
X0208368Y0146206D01*
X0236206Y0118368D01*
G37*
D22*
G36*
X0117985Y0237291D02*
X0122730Y0232546D01*
X0121755Y0231571D01*
X0117010Y0236316D01*
X0117985Y0237291D01*
G37*
G36*
X0116176Y0235482D02*
X0120921Y0230737D01*
X0119946Y0229762D01*
X0115201Y0234507D01*
X0116176Y0235482D01*
G37*
G36*
X0114366Y0233672D02*
X0119111Y0228927D01*
X0118136Y0227952D01*
X0113391Y0232697D01*
X0114366Y0233672D01*
G37*
G36*
X0112557Y0231862D02*
X0117302Y0227117D01*
X0116327Y0226142D01*
X0111582Y0230887D01*
X0112557Y0231862D01*
G37*
G36*
X0110747Y0230053D02*
X0115492Y0225308D01*
X0114517Y0224333D01*
X0109772Y0229078D01*
X0110747Y0230053D01*
G37*
G36*
X0108938Y0228243D02*
X0113683Y0223498D01*
X0112708Y0222523D01*
X0107963Y0227268D01*
X0108938Y0228243D01*
G37*
G36*
X0107128Y0226434D02*
X0111873Y0221689D01*
X0110898Y0220714D01*
X0106153Y0225459D01*
X0107128Y0226434D01*
G37*
G36*
X0105319Y0224624D02*
X0110064Y0219879D01*
X0109089Y0218904D01*
X0104344Y0223649D01*
X0105319Y0224624D01*
G37*
G36*
X0103509Y0222815D02*
X0108254Y0218070D01*
X0107279Y0217095D01*
X0102534Y0221840D01*
X0103509Y0222815D01*
G37*
G36*
X0101700Y0221005D02*
X0106445Y0216260D01*
X0105470Y0215285D01*
X0100725Y0220030D01*
X0101700Y0221005D01*
G37*
G36*
X0099890Y0219196D02*
X0104635Y0214451D01*
X0103660Y0213476D01*
X0098915Y0218221D01*
X0099890Y0219196D01*
G37*
G36*
X0098081Y0217386D02*
X0102826Y0212641D01*
X0101851Y0211666D01*
X0097106Y0216411D01*
X0098081Y0217386D01*
G37*
G36*
X0096271Y0215577D02*
X0101016Y0210832D01*
X0100041Y0209857D01*
X0095296Y0214602D01*
X0096271Y0215577D01*
G37*
G36*
X0094461Y0213767D02*
X0099206Y0209022D01*
X0098231Y0208047D01*
X0093486Y0212792D01*
X0094461Y0213767D01*
G37*
G36*
X0092652Y0211958D02*
X0097397Y0207213D01*
X0096422Y0206238D01*
X0091677Y0210983D01*
X0092652Y0211958D01*
G37*
G36*
X0090842Y0210148D02*
X0095587Y0205403D01*
X0094612Y0204428D01*
X0089867Y0209173D01*
X0090842Y0210148D01*
G37*
G36*
X0089033Y0208339D02*
X0093778Y0203594D01*
X0092803Y0202619D01*
X0088058Y0207364D01*
X0089033Y0208339D01*
G37*
G36*
X0087223Y0206529D02*
X0091968Y0201784D01*
X0090993Y0200809D01*
X0086248Y0205554D01*
X0087223Y0206529D01*
G37*
G36*
X0085414Y0204720D02*
X0090159Y0199975D01*
X0089184Y0199000D01*
X0084439Y0203745D01*
X0085414Y0204720D01*
G37*
G36*
X0066245Y0221939D02*
X0061500Y0226684D01*
X0062475Y0227659D01*
X0067220Y0222914D01*
X0066245Y0221939D01*
G37*
G36*
X0068054Y0223748D02*
X0063309Y0228493D01*
X0064284Y0229468D01*
X0069029Y0224723D01*
X0068054Y0223748D01*
G37*
G36*
X0069864Y0225558D02*
X0065119Y0230303D01*
X0066094Y0231278D01*
X0070839Y0226533D01*
X0069864Y0225558D01*
G37*
G36*
X0071673Y0227367D02*
X0066928Y0232112D01*
X0067903Y0233087D01*
X0072648Y0228342D01*
X0071673Y0227367D01*
G37*
G36*
X0073483Y0229177D02*
X0068738Y0233922D01*
X0069713Y0234897D01*
X0074458Y0230152D01*
X0073483Y0229177D01*
G37*
G36*
X0075292Y0230986D02*
X0070547Y0235731D01*
X0071522Y0236706D01*
X0076267Y0231961D01*
X0075292Y0230986D01*
G37*
G36*
X0077102Y0232796D02*
X0072357Y0237541D01*
X0073332Y0238516D01*
X0078077Y0233771D01*
X0077102Y0232796D01*
G37*
G36*
X0078911Y0234606D02*
X0074166Y0239351D01*
X0075141Y0240326D01*
X0079886Y0235581D01*
X0078911Y0234606D01*
G37*
G36*
X0080721Y0236415D02*
X0075976Y0241160D01*
X0076951Y0242135D01*
X0081696Y0237390D01*
X0080721Y0236415D01*
G37*
G36*
X0082530Y0238225D02*
X0077785Y0242970D01*
X0078760Y0243945D01*
X0083505Y0239200D01*
X0082530Y0238225D01*
G37*
G36*
X0084340Y0240034D02*
X0079595Y0244779D01*
X0080570Y0245754D01*
X0085315Y0241009D01*
X0084340Y0240034D01*
G37*
G36*
X0086149Y0241844D02*
X0081404Y0246589D01*
X0082379Y0247564D01*
X0087124Y0242819D01*
X0086149Y0241844D01*
G37*
G36*
X0087959Y0243653D02*
X0083214Y0248398D01*
X0084189Y0249373D01*
X0088934Y0244628D01*
X0087959Y0243653D01*
G37*
G36*
X0089768Y0245463D02*
X0085023Y0250208D01*
X0085998Y0251183D01*
X0090743Y0246438D01*
X0089768Y0245463D01*
G37*
G36*
X0091578Y0247272D02*
X0086833Y0252017D01*
X0087808Y0252992D01*
X0092553Y0248247D01*
X0091578Y0247272D01*
G37*
G36*
X0093387Y0249082D02*
X0088642Y0253827D01*
X0089617Y0254802D01*
X0094362Y0250057D01*
X0093387Y0249082D01*
G37*
G36*
X0095197Y0250891D02*
X0090452Y0255636D01*
X0091427Y0256611D01*
X0096172Y0251866D01*
X0095197Y0250891D01*
G37*
G36*
X0097007Y0252701D02*
X0092262Y0257446D01*
X0093237Y0258421D01*
X0097982Y0253676D01*
X0097007Y0252701D01*
G37*
G36*
X0098816Y0254510D02*
X0094071Y0259255D01*
X0095046Y0260230D01*
X0099791Y0255485D01*
X0098816Y0254510D01*
G37*
D23*
G36*
X0125295Y0129537D02*
X0129537Y0125295D01*
X0125295Y0121053D01*
X0121053Y0125295D01*
X0125295Y0129537D01*
G37*
D24*
X0111012Y0183512D02*
X0090918Y0205479D01*
X0092727Y0207288D02*
X0086208Y0213808D01*
X0083501Y0216515D01*
X0083015Y0216515D01*
X0090365Y0223865D01*
X0090365Y0224127D01*
X0077026Y0237466D01*
X0090365Y0223865D02*
X0116012Y0249512D01*
X0116012Y0250718D01*
X0116012Y0249712D01*
X0108715Y0242415D01*
X0107015Y0240715D01*
X0106348Y0240715D01*
X0093312Y0253751D01*
X0091502Y0251942D02*
X0080227Y0263218D01*
X0079182Y0263797D01*
X0075718Y0265718D01*
X0095122Y0255561D02*
X0108267Y0242415D01*
X0108715Y0242415D01*
D25*
X0022115Y0049315D02*
X0054915Y0016515D01*
X0054615Y0014615D01*
X0056915Y0016915D01*
X0066915Y0016915D01*
X0074515Y0009315D01*
X0239315Y0009315D01*
X0244615Y0014615D01*
X0234615Y0014615D02*
X0234515Y0014915D01*
X0229315Y0020115D01*
X0229315Y0029315D01*
X0229017Y0029615D01*
X0229715Y0030515D01*
X0229715Y0032115D01*
X0258115Y0060515D01*
X0258115Y0068515D01*
X0243315Y0068515D01*
X0243218Y0068512D01*
X0243315Y0069715D01*
X0243315Y0074915D01*
X0234515Y0083715D01*
X0234515Y0087315D01*
X0234268Y0087699D01*
X0233715Y0088515D01*
X0206915Y0115315D01*
X0206280Y0116280D01*
X0206115Y0116115D01*
X0181715Y0116115D01*
X0165715Y0100115D01*
X0164915Y0100915D01*
X0163715Y0100915D01*
X0165715Y0100115D02*
X0165715Y0098915D01*
X0174515Y0090115D01*
X0181715Y0090115D01*
X0181987Y0089743D01*
X0177715Y0081315D02*
X0189715Y0081315D01*
X0190718Y0081012D01*
X0190915Y0080915D01*
X0190915Y0072115D01*
X0196915Y0066115D01*
X0212115Y0066115D01*
X0223715Y0077715D01*
X0224793Y0078224D01*
X0225315Y0078915D01*
X0229315Y0082915D01*
X0229530Y0082962D01*
X0224915Y0078115D02*
X0224793Y0078224D01*
X0224915Y0078115D02*
X0242115Y0060915D01*
X0250915Y0060915D01*
X0251012Y0060718D01*
X0258115Y0068515D02*
X0258515Y0068515D01*
X0260115Y0070115D01*
X0261012Y0070718D01*
X0261315Y0070915D01*
X0270115Y0079715D01*
X0280515Y0079715D01*
X0280875Y0079733D01*
X0284615Y0069497D02*
X0284915Y0069315D01*
X0294115Y0069315D01*
X0304515Y0079715D01*
X0305715Y0079715D01*
X0305855Y0079733D01*
X0302115Y0069497D02*
X0302115Y0054615D01*
X0292115Y0054615D02*
X0292115Y0054915D01*
X0284915Y0062115D01*
X0284915Y0069315D01*
X0253218Y0078512D02*
X0252915Y0078515D01*
X0239315Y0092115D01*
X0239005Y0092437D01*
X0240115Y0092915D01*
X0243315Y0096115D01*
X0243743Y0097175D01*
X0243715Y0097315D01*
X0243715Y0113715D01*
X0217315Y0140115D01*
X0217315Y0294515D01*
X0217115Y0294615D01*
X0222115Y0296515D02*
X0222115Y0306915D01*
X0219315Y0309715D01*
X0182515Y0309715D01*
X0178115Y0305315D01*
X0177115Y0304615D01*
X0177315Y0304515D01*
X0177315Y0294915D01*
X0177115Y0294615D01*
X0176515Y0293715D01*
X0176515Y0275715D01*
X0148515Y0247715D01*
X0123715Y0247715D01*
X0122115Y0249315D01*
X0116515Y0249315D01*
X0116012Y0250718D01*
X0095122Y0255561D02*
X0094515Y0255715D01*
X0083715Y0266515D01*
X0083715Y0273315D01*
X0083512Y0273512D01*
X0082915Y0274515D01*
X0078915Y0278515D01*
X0090213Y0289615D02*
X0090115Y0289715D01*
X0090115Y0291715D01*
X0077315Y0304515D01*
X0077115Y0304615D01*
X0067115Y0304615D02*
X0066915Y0304515D01*
X0066115Y0304515D01*
X0056915Y0295315D01*
X0044115Y0295315D01*
X0017715Y0268915D01*
X0015875Y0269064D01*
X0016115Y0268915D01*
X0016915Y0268115D01*
X0016915Y0257315D01*
X0017115Y0257233D01*
X0024515Y0256915D02*
X0025715Y0256915D01*
X0025715Y0268915D01*
X0025875Y0269064D01*
X0025715Y0256915D02*
X0034515Y0256915D01*
X0034615Y0257233D01*
X0024515Y0256915D02*
X0014915Y0247315D01*
X0013715Y0247315D01*
X0013375Y0246997D01*
X0038355Y0246997D02*
X0038515Y0247315D01*
X0044915Y0247315D01*
X0049315Y0251715D01*
X0054915Y0251715D01*
X0055715Y0252515D01*
X0055715Y0281315D01*
X0079182Y0263797D02*
X0078915Y0263315D01*
X0078915Y0262515D01*
X0074915Y0258515D01*
X0058115Y0248515D02*
X0058218Y0248218D01*
X0058115Y0248515D02*
X0054915Y0251715D01*
X0086208Y0213808D02*
X0085715Y0213315D01*
X0075315Y0202915D01*
X0103218Y0175718D02*
X0103315Y0175715D01*
X0108915Y0170115D01*
X0111315Y0173315D02*
X0112915Y0171715D01*
X0112915Y0165315D01*
X0111715Y0164115D01*
X0111315Y0173315D02*
X0111315Y0182915D01*
X0111012Y0183512D01*
X0146508Y0146508D02*
X0153579Y0153579D01*
X0160515Y0160515D02*
X0160650Y0160650D01*
X0160915Y0161715D01*
X0160915Y0168115D01*
X0212115Y0219315D01*
X0212115Y0296915D01*
X0216915Y0301715D01*
X0216915Y0304515D01*
X0217115Y0304615D01*
X0222115Y0296515D02*
X0241715Y0276915D01*
X0241997Y0275875D01*
X0242115Y0275715D01*
X0242915Y0275715D01*
X0289315Y0229315D01*
X0289615Y0229017D01*
X0290515Y0229715D01*
X0300115Y0239315D01*
X0304515Y0239315D01*
X0304615Y0239615D01*
X0304615Y0249615D02*
X0304915Y0249715D01*
X0304915Y0250915D01*
X0309715Y0255715D01*
X0309715Y0263715D01*
X0269315Y0304115D01*
X0265715Y0304115D01*
X0264615Y0304615D01*
X0262115Y0302115D01*
X0252233Y0302115D01*
X0242115Y0305715D02*
X0258915Y0288915D01*
X0252515Y0282515D01*
X0252515Y0279715D01*
X0252233Y0279615D01*
X0258915Y0288915D02*
X0264615Y0294615D01*
X0242115Y0305715D02*
X0241997Y0305855D01*
X0174793Y0174793D02*
X0167722Y0167722D01*
X0160515Y0160515D02*
X0160515Y0103315D01*
X0159715Y0102515D01*
X0159715Y0099315D01*
X0177715Y0081315D01*
X0132366Y0132366D02*
X0139437Y0139437D01*
X0146508Y0146508D01*
X0123315Y0116515D02*
X0123315Y0109315D01*
X0123574Y0108156D01*
X0123315Y0108115D01*
X0103315Y0088115D01*
X0097315Y0094115D01*
X0097315Y0097715D01*
X0044915Y0150115D01*
X0039715Y0150115D01*
X0039615Y0150213D01*
X0024615Y0142115D02*
X0024515Y0142115D01*
X0024515Y0132915D01*
X0024615Y0132115D01*
X0024915Y0132115D01*
X0029715Y0127315D01*
X0029715Y0095315D01*
X0029615Y0095213D01*
X0030915Y0094915D01*
X0079915Y0045915D01*
X0077315Y0043315D01*
X0077315Y0038515D01*
X0077233Y0038355D01*
X0079915Y0045915D02*
X0116515Y0082515D01*
X0116686Y0082544D01*
X0103315Y0088115D02*
X0090915Y0075715D01*
X0088915Y0075715D01*
X0088574Y0075656D01*
X0066997Y0034615D02*
X0066915Y0034515D01*
X0064515Y0034515D01*
X0060315Y0030315D01*
X0076915Y0013715D01*
X0077233Y0013375D01*
X0066997Y0017115D02*
X0066915Y0016915D01*
X0054615Y0024615D02*
X0060315Y0030315D01*
X0022115Y0049315D02*
X0022115Y0066115D01*
X0014915Y0073315D01*
X0014915Y0074515D01*
X0014615Y0074615D01*
X0112515Y0127315D02*
X0123315Y0116515D01*
X0112515Y0127315D02*
X0112515Y0138115D01*
X0112160Y0138408D01*
X0039615Y0187713D02*
X0039315Y0187715D01*
X0030115Y0187715D01*
X0029715Y0186915D01*
X0029715Y0185315D01*
X0030115Y0187715D02*
X0025315Y0192515D01*
X0025315Y0196915D01*
X0025127Y0197115D01*
X0031715Y0200115D02*
X0031715Y0191715D01*
X0031715Y0200115D02*
X0026515Y0205315D01*
X0014115Y0212115D02*
X0014115Y0197315D01*
X0014103Y0197115D01*
X0013715Y0196115D01*
X0010515Y0192915D01*
X0010515Y0190915D01*
X0014017Y0212115D02*
X0014115Y0212115D01*
D26*
X0026515Y0205315D03*
X0031715Y0191715D03*
X0029715Y0185315D03*
X0010515Y0190915D03*
X0038115Y0221715D03*
X0042915Y0228115D03*
X0047315Y0223715D03*
X0052515Y0218515D03*
X0045315Y0210515D03*
X0060515Y0210515D03*
X0075315Y0202915D03*
X0079715Y0201315D03*
X0104515Y0210515D03*
X0107715Y0213715D03*
X0110915Y0216915D03*
X0100515Y0223715D03*
X0098915Y0237315D03*
X0088515Y0238515D03*
X0084115Y0235315D03*
X0078915Y0230515D03*
X0066515Y0236915D03*
X0065315Y0246115D03*
X0077715Y0246915D03*
X0080915Y0252515D03*
X0074915Y0258515D03*
X0064915Y0263315D03*
X0066515Y0269315D03*
X0078915Y0278515D03*
X0055715Y0281315D03*
X0050915Y0247715D03*
X0047715Y0244515D03*
X0051715Y0236915D03*
X0112515Y0294515D03*
X0153315Y0258115D03*
X0156915Y0261715D03*
X0142515Y0240915D03*
X0129715Y0251715D03*
X0125315Y0251715D03*
X0125315Y0233315D03*
X0136115Y0216915D03*
X0123315Y0206515D03*
X0119715Y0203715D03*
X0118115Y0199315D03*
X0139315Y0195315D03*
X0108915Y0170115D03*
X0111715Y0164115D03*
X0137715Y0148515D03*
X0163715Y0100915D03*
X0180115Y0213715D03*
X0196915Y0286515D03*
X0050515Y0138915D03*
D27*
X0049073Y0141998D02*
X0048589Y0141797D01*
X0047707Y0140915D01*
X0044764Y0140915D01*
X0044764Y0142829D01*
X0043827Y0143766D01*
X0035403Y0143766D01*
X0034466Y0142829D01*
X0034466Y0141393D01*
X0027573Y0148285D01*
X0029415Y0150127D01*
X0029415Y0151915D01*
X0024815Y0151915D01*
X0024815Y0152315D01*
X0024415Y0152315D01*
X0024415Y0156915D01*
X0022627Y0156915D01*
X0019815Y0154103D01*
X0019815Y0152315D01*
X0024415Y0152315D01*
X0024415Y0151915D01*
X0019815Y0151915D01*
X0019815Y0150127D01*
X0020227Y0149715D01*
X0020143Y0149715D01*
X0019215Y0150643D01*
X0019215Y0154020D01*
X0016520Y0156715D01*
X0012710Y0156715D01*
X0012115Y0156120D01*
X0012115Y0158110D01*
X0012710Y0157515D01*
X0016520Y0157515D01*
X0019215Y0160210D01*
X0019215Y0164020D01*
X0016520Y0166715D01*
X0012710Y0166715D01*
X0012115Y0166120D01*
X0012115Y0168110D01*
X0012710Y0167515D01*
X0016520Y0167515D01*
X0019215Y0170210D01*
X0019215Y0174020D01*
X0016520Y0176715D01*
X0012710Y0176715D01*
X0012115Y0176120D01*
X0012115Y0178110D01*
X0012710Y0177515D01*
X0016520Y0177515D01*
X0018403Y0179398D01*
X0019287Y0178515D01*
X0021757Y0176045D01*
X0019815Y0174103D01*
X0019815Y0172315D01*
X0024415Y0172315D01*
X0024415Y0171915D01*
X0024815Y0171915D01*
X0024815Y0167315D01*
X0026603Y0167315D01*
X0028345Y0169057D01*
X0042439Y0154963D01*
X0035403Y0154963D01*
X0034466Y0154026D01*
X0034466Y0146401D01*
X0035403Y0145464D01*
X0043827Y0145464D01*
X0044717Y0146354D01*
X0049073Y0141998D01*
X0048996Y0141966D02*
X0044764Y0141966D01*
X0044028Y0143565D02*
X0047506Y0143565D01*
X0045907Y0145163D02*
X0030695Y0145163D01*
X0029097Y0146762D02*
X0034466Y0146762D01*
X0034466Y0148360D02*
X0027648Y0148360D01*
X0029247Y0149959D02*
X0034466Y0149959D01*
X0034466Y0151557D02*
X0029415Y0151557D01*
X0029415Y0152315D02*
X0029415Y0154103D01*
X0026603Y0156915D01*
X0024815Y0156915D01*
X0024815Y0152315D01*
X0029415Y0152315D01*
X0029415Y0153156D02*
X0034466Y0153156D01*
X0035194Y0154754D02*
X0028764Y0154754D01*
X0027165Y0156353D02*
X0041049Y0156353D01*
X0039450Y0157951D02*
X0026957Y0157951D01*
X0026520Y0157515D02*
X0029215Y0160210D01*
X0029215Y0164020D01*
X0026520Y0166715D01*
X0022710Y0166715D01*
X0020015Y0164020D01*
X0020015Y0160210D01*
X0022710Y0157515D01*
X0026520Y0157515D01*
X0024815Y0156353D02*
X0024415Y0156353D01*
X0024415Y0154754D02*
X0024815Y0154754D01*
X0024815Y0153156D02*
X0024415Y0153156D01*
X0022064Y0156353D02*
X0016883Y0156353D01*
X0016957Y0157951D02*
X0022273Y0157951D01*
X0020675Y0159550D02*
X0018555Y0159550D01*
X0019215Y0161148D02*
X0020015Y0161148D01*
X0020015Y0162747D02*
X0019215Y0162747D01*
X0018890Y0164345D02*
X0020340Y0164345D01*
X0021938Y0165944D02*
X0017292Y0165944D01*
X0016548Y0167542D02*
X0022399Y0167542D01*
X0022627Y0167315D02*
X0024415Y0167315D01*
X0024415Y0171915D01*
X0019815Y0171915D01*
X0019815Y0170127D01*
X0022627Y0167315D01*
X0024415Y0167542D02*
X0024815Y0167542D01*
X0024815Y0169141D02*
X0024415Y0169141D01*
X0024415Y0170739D02*
X0024815Y0170739D01*
X0026830Y0167542D02*
X0029859Y0167542D01*
X0031458Y0165944D02*
X0027292Y0165944D01*
X0028890Y0164345D02*
X0033056Y0164345D01*
X0034655Y0162747D02*
X0029215Y0162747D01*
X0029215Y0161148D02*
X0036253Y0161148D01*
X0037852Y0159550D02*
X0028555Y0159550D01*
X0020466Y0154754D02*
X0018481Y0154754D01*
X0019215Y0153156D02*
X0019815Y0153156D01*
X0019815Y0151557D02*
X0019215Y0151557D01*
X0019900Y0149959D02*
X0019983Y0149959D01*
X0017440Y0146762D02*
X0012697Y0146762D01*
X0012743Y0146715D02*
X0012115Y0147343D01*
X0012115Y0148110D01*
X0012710Y0147515D01*
X0016520Y0147515D01*
X0016603Y0147598D01*
X0018487Y0145715D01*
X0021427Y0145715D01*
X0019815Y0144103D01*
X0019815Y0142315D01*
X0024415Y0142315D01*
X0024415Y0141915D01*
X0024815Y0141915D01*
X0024815Y0137315D01*
X0026603Y0137315D01*
X0029415Y0140127D01*
X0029415Y0140787D01*
X0032887Y0137315D01*
X0034466Y0137315D01*
X0034466Y0135204D01*
X0035403Y0134267D01*
X0043827Y0134267D01*
X0044764Y0135204D01*
X0044764Y0136915D01*
X0047707Y0136915D01*
X0048589Y0136033D01*
X0049839Y0135515D01*
X0051191Y0135515D01*
X0052441Y0136033D01*
X0053397Y0136989D01*
X0053598Y0137473D01*
X0081066Y0110004D01*
X0076467Y0105406D01*
X0076467Y0104080D01*
X0080115Y0100433D01*
X0080115Y0089749D01*
X0074320Y0083954D01*
X0074320Y0082628D01*
X0078915Y0078033D01*
X0078915Y0075687D01*
X0085715Y0068887D01*
X0086887Y0067715D01*
X0092143Y0067715D01*
X0131743Y0107315D01*
X0132915Y0108487D01*
X0132915Y0127566D01*
X0134354Y0127566D01*
X0135619Y0128831D01*
X0132366Y0132083D01*
X0132649Y0132366D01*
X0135902Y0129114D01*
X0137166Y0130378D01*
X0137166Y0134354D01*
X0135902Y0135619D01*
X0132649Y0132366D01*
X0132366Y0132649D01*
X0135619Y0135902D01*
X0134354Y0137166D01*
X0130378Y0137166D01*
X0130115Y0136903D01*
X0130115Y0138087D01*
X0137143Y0145115D01*
X0138391Y0145115D01*
X0139641Y0145633D01*
X0140597Y0146589D01*
X0141115Y0147839D01*
X0141115Y0149191D01*
X0140597Y0150441D01*
X0139641Y0151397D01*
X0138391Y0151915D01*
X0137143Y0151915D01*
X0193743Y0208515D01*
X0194915Y0209687D01*
X0194915Y0283707D01*
X0194989Y0283633D01*
X0196239Y0283115D01*
X0197591Y0283115D01*
X0198841Y0283633D01*
X0199797Y0284589D01*
X0200315Y0285839D01*
X0200315Y0287191D01*
X0199797Y0288441D01*
X0198915Y0289323D01*
X0198915Y0290015D01*
X0199020Y0290015D01*
X0201715Y0292710D01*
X0201715Y0296520D01*
X0199020Y0299215D01*
X0195210Y0299215D01*
X0194915Y0298920D01*
X0194915Y0299687D01*
X0195243Y0300015D01*
X0199020Y0300015D01*
X0201715Y0302710D01*
X0201715Y0306520D01*
X0199020Y0309215D01*
X0195210Y0309215D01*
X0192515Y0306520D01*
X0192515Y0302943D01*
X0190915Y0301343D01*
X0190915Y0297320D01*
X0189020Y0299215D01*
X0185210Y0299215D01*
X0182515Y0296520D01*
X0182515Y0292710D01*
X0184915Y0290310D01*
X0184915Y0283343D01*
X0148087Y0246515D01*
X0118810Y0246515D01*
X0118964Y0246670D01*
X0116012Y0249622D01*
X0112782Y0246391D01*
X0113172Y0246001D01*
X0112515Y0245343D01*
X0090115Y0222943D01*
X0090115Y0211808D01*
X0089736Y0211589D01*
X0089081Y0210934D01*
X0088427Y0210279D01*
X0088190Y0209869D01*
X0088150Y0209720D01*
X0086560Y0208130D01*
X0086560Y0208130D01*
X0086544Y0208114D01*
X0086543Y0208115D01*
X0084087Y0208115D01*
X0082087Y0206115D01*
X0080915Y0204943D01*
X0080915Y0204498D01*
X0080391Y0204715D01*
X0079039Y0204715D01*
X0077789Y0204197D01*
X0076833Y0203241D01*
X0076315Y0201991D01*
X0076315Y0200639D01*
X0076833Y0199389D01*
X0077715Y0198507D01*
X0077715Y0176087D01*
X0110793Y0143008D01*
X0110254Y0143008D01*
X0107560Y0140314D01*
X0107560Y0136503D01*
X0109715Y0134348D01*
X0109715Y0126758D01*
X0110141Y0125729D01*
X0114368Y0121502D01*
X0109381Y0116515D01*
X0096397Y0116515D01*
X0092649Y0120263D01*
X0091324Y0120263D01*
X0087060Y0115998D01*
X0030915Y0172143D01*
X0030915Y0174943D01*
X0027432Y0178426D01*
X0029120Y0180115D01*
X0033287Y0180115D01*
X0034466Y0178936D01*
X0034466Y0172704D01*
X0035403Y0171767D01*
X0043827Y0171767D01*
X0044764Y0172704D01*
X0044764Y0179136D01*
X0074115Y0208487D01*
X0074115Y0227545D01*
X0074249Y0227679D01*
X0075777Y0229207D01*
X0076033Y0228589D01*
X0076989Y0227633D01*
X0078239Y0227115D01*
X0079591Y0227115D01*
X0080841Y0227633D01*
X0081797Y0228589D01*
X0082315Y0229839D01*
X0082315Y0231191D01*
X0081797Y0232441D01*
X0080841Y0233397D01*
X0080423Y0233570D01*
X0080672Y0233819D01*
X0077026Y0237465D01*
X0077026Y0237465D01*
X0077026Y0237466D02*
X0073380Y0241112D01*
X0077026Y0237466D01*
X0077026Y0237466D01*
X0077026Y0237465D02*
X0080672Y0233820D01*
X0080942Y0234090D01*
X0081233Y0233389D01*
X0082189Y0232433D01*
X0083439Y0231915D01*
X0084791Y0231915D01*
X0086041Y0232433D01*
X0086923Y0233315D01*
X0090543Y0233315D01*
X0091715Y0234487D01*
X0093715Y0236487D01*
X0093715Y0239687D01*
X0095515Y0237887D01*
X0095515Y0236639D01*
X0096033Y0235389D01*
X0096989Y0234433D01*
X0098239Y0233915D01*
X0099591Y0233915D01*
X0100841Y0234433D01*
X0101797Y0235389D01*
X0102315Y0236639D01*
X0102315Y0237991D01*
X0101797Y0239241D01*
X0100841Y0240197D01*
X0099591Y0240715D01*
X0098343Y0240715D01*
X0092814Y0246244D01*
X0094153Y0247583D01*
X0095743Y0249173D01*
X0095893Y0249213D01*
X0096303Y0249450D01*
X0096958Y0250105D01*
X0093312Y0253751D01*
X0093312Y0253751D01*
X0096958Y0250105D01*
X0097613Y0250760D01*
X0097796Y0251077D01*
X0098113Y0251260D01*
X0098768Y0251915D01*
X0099422Y0252569D01*
X0099659Y0252980D01*
X0099699Y0253129D01*
X0101391Y0254821D01*
X0101391Y0255715D01*
X0103741Y0255715D01*
X0107276Y0252180D01*
X0108602Y0252180D01*
X0114550Y0258128D01*
X0114550Y0259454D01*
X0109159Y0264845D01*
X0107833Y0264845D01*
X0102703Y0259715D01*
X0097823Y0259715D01*
X0095708Y0261831D01*
X0094382Y0261831D01*
X0092690Y0260139D01*
X0092541Y0260099D01*
X0092130Y0259862D01*
X0091476Y0259207D01*
X0095122Y0255561D01*
X0098768Y0251915D01*
X0095122Y0255561D01*
X0095122Y0255561D01*
X0095121Y0255561D01*
X0091475Y0259207D01*
X0090821Y0258552D01*
X0090638Y0258235D01*
X0090321Y0258052D01*
X0089666Y0257397D01*
X0089483Y0257214D01*
X0082274Y0264423D01*
X0082175Y0264767D01*
X0082050Y0264836D01*
X0082050Y0266102D01*
X0076102Y0272050D01*
X0074776Y0272050D01*
X0071715Y0268989D01*
X0071715Y0273687D01*
X0080543Y0282515D01*
X0127743Y0282515D01*
X0135243Y0290015D01*
X0135987Y0290015D01*
X0123315Y0277343D01*
X0123315Y0254523D01*
X0122433Y0253641D01*
X0121915Y0252391D01*
X0121915Y0252371D01*
X0120339Y0253948D01*
X0117108Y0250718D01*
X0116012Y0251813D01*
X0114917Y0250718D01*
X0111965Y0253670D01*
X0109839Y0251544D01*
X0109602Y0251134D01*
X0109480Y0250676D01*
X0109480Y0250202D01*
X0109602Y0249744D01*
X0109839Y0249334D01*
X0111686Y0247487D01*
X0114917Y0250717D01*
X0116012Y0249622D01*
X0117108Y0250717D01*
X0120060Y0247765D01*
X0122185Y0249891D01*
X0122305Y0250098D01*
X0122433Y0249789D01*
X0123389Y0248833D01*
X0124639Y0248315D01*
X0125991Y0248315D01*
X0127241Y0248833D01*
X0127515Y0249107D01*
X0127789Y0248833D01*
X0129039Y0248315D01*
X0130391Y0248315D01*
X0131641Y0248833D01*
X0132597Y0249789D01*
X0133115Y0251039D01*
X0133115Y0252391D01*
X0132597Y0253641D01*
X0131715Y0254523D01*
X0131715Y0277687D01*
X0143743Y0289715D01*
X0144626Y0290598D01*
X0145210Y0290015D01*
X0148987Y0290015D01*
X0151315Y0287687D01*
X0151315Y0260923D01*
X0150433Y0260041D01*
X0149915Y0258791D01*
X0149915Y0257439D01*
X0150433Y0256189D01*
X0151389Y0255233D01*
X0152639Y0254715D01*
X0153991Y0254715D01*
X0155241Y0255233D01*
X0156197Y0256189D01*
X0156715Y0257439D01*
X0156715Y0258315D01*
X0157591Y0258315D01*
X0158841Y0258833D01*
X0159797Y0259789D01*
X0160315Y0261039D01*
X0160315Y0262391D01*
X0159797Y0263641D01*
X0158915Y0264523D01*
X0158915Y0290015D01*
X0159020Y0290015D01*
X0161715Y0292710D01*
X0161715Y0296520D01*
X0161320Y0296915D01*
X0162087Y0296915D01*
X0162515Y0296487D01*
X0162515Y0292710D01*
X0165210Y0290015D01*
X0169020Y0290015D01*
X0171715Y0292710D01*
X0171715Y0296520D01*
X0169020Y0299215D01*
X0165443Y0299215D01*
X0163743Y0300915D01*
X0159920Y0300915D01*
X0161715Y0302710D01*
X0161715Y0306520D01*
X0159020Y0309215D01*
X0155443Y0309215D01*
X0152698Y0311961D01*
X0298339Y0311961D01*
X0297826Y0310045D01*
X0295368Y0310045D01*
X0292070Y0309161D01*
X0289112Y0307454D01*
X0286698Y0305039D01*
X0284990Y0302082D01*
X0284106Y0298783D01*
X0284106Y0295368D01*
X0284869Y0292520D01*
X0271689Y0305701D01*
X0270901Y0306489D01*
X0269872Y0306915D01*
X0269215Y0306915D01*
X0269215Y0308278D01*
X0268278Y0309215D01*
X0260952Y0309215D01*
X0260015Y0308278D01*
X0260015Y0304915D01*
X0251676Y0304915D01*
X0250680Y0304502D01*
X0249208Y0304502D01*
X0248271Y0303565D01*
X0248271Y0303519D01*
X0245959Y0305831D01*
X0245959Y0307305D01*
X0245022Y0308243D01*
X0243476Y0308243D01*
X0242790Y0308598D01*
X0241680Y0308692D01*
X0240618Y0308355D01*
X0240485Y0308243D01*
X0238972Y0308243D01*
X0238035Y0307305D01*
X0238035Y0304405D01*
X0238972Y0303468D01*
X0240366Y0303468D01*
X0240442Y0303428D01*
X0243108Y0300762D01*
X0238972Y0300762D01*
X0238035Y0299825D01*
X0238035Y0296925D01*
X0238972Y0295987D01*
X0245022Y0295987D01*
X0245959Y0296925D01*
X0245959Y0297911D01*
X0254955Y0288915D01*
X0250141Y0284101D01*
X0249715Y0283072D01*
X0249715Y0282002D01*
X0249208Y0282002D01*
X0248332Y0281126D01*
X0245959Y0283499D01*
X0245959Y0284805D01*
X0245022Y0285743D01*
X0238972Y0285743D01*
X0238035Y0284805D01*
X0238035Y0281905D01*
X0238972Y0280968D01*
X0242834Y0280968D01*
X0284115Y0239687D01*
X0284466Y0239336D01*
X0284466Y0236401D01*
X0285403Y0235464D01*
X0293827Y0235464D01*
X0294764Y0236401D01*
X0294764Y0242736D01*
X0296515Y0244487D01*
X0296515Y0260943D01*
X0295343Y0262115D01*
X0294161Y0263298D01*
X0294764Y0263901D01*
X0294764Y0268237D01*
X0300015Y0262987D01*
X0300015Y0255952D01*
X0300952Y0255015D01*
X0305055Y0255015D01*
X0304255Y0254215D01*
X0302710Y0254215D01*
X0300015Y0251520D01*
X0300015Y0247710D01*
X0302710Y0245015D01*
X0306520Y0245015D01*
X0309215Y0247710D01*
X0309215Y0251255D01*
X0311961Y0254001D01*
X0311961Y0020222D01*
X0310045Y0020735D01*
X0310045Y0023192D01*
X0309161Y0026491D01*
X0307454Y0029448D01*
X0305039Y0031863D01*
X0302082Y0033570D01*
X0298783Y0034454D01*
X0295368Y0034454D01*
X0292070Y0033570D01*
X0289112Y0031863D01*
X0286698Y0029448D01*
X0284990Y0026491D01*
X0284106Y0023192D01*
X0284106Y0019778D01*
X0284990Y0016479D01*
X0286698Y0013522D01*
X0289112Y0011107D01*
X0292070Y0009400D01*
X0295368Y0008516D01*
X0297826Y0008516D01*
X0298339Y0006600D01*
X0240077Y0006600D01*
X0240901Y0006941D01*
X0243975Y0010015D01*
X0246520Y0010015D01*
X0249215Y0012710D01*
X0249215Y0016520D01*
X0248820Y0016915D01*
X0249687Y0016915D01*
X0250015Y0016587D01*
X0250015Y0010952D01*
X0250952Y0010015D01*
X0258278Y0010015D01*
X0259215Y0010952D01*
X0259215Y0018278D01*
X0258278Y0019215D01*
X0253043Y0019215D01*
X0251343Y0020915D01*
X0243343Y0020915D01*
X0239793Y0024466D01*
X0244026Y0024466D01*
X0244963Y0025403D01*
X0244963Y0027239D01*
X0248515Y0023687D01*
X0249687Y0022515D01*
X0260943Y0022515D01*
X0262894Y0024466D01*
X0269026Y0024466D01*
X0269963Y0025403D01*
X0269963Y0033827D01*
X0269026Y0034764D01*
X0267315Y0034764D01*
X0267315Y0054487D01*
X0281849Y0069020D01*
X0282028Y0068289D01*
X0282115Y0068171D01*
X0282115Y0061558D01*
X0282541Y0060529D01*
X0287515Y0055555D01*
X0287515Y0052710D01*
X0290210Y0050015D01*
X0294020Y0050015D01*
X0296715Y0052710D01*
X0296715Y0056520D01*
X0294020Y0059215D01*
X0291775Y0059215D01*
X0287715Y0063275D01*
X0287715Y0066515D01*
X0294672Y0066515D01*
X0295701Y0066941D01*
X0296489Y0067729D01*
X0299669Y0070910D01*
X0299315Y0070054D01*
X0299315Y0059215D01*
X0298452Y0059215D01*
X0297515Y0058278D01*
X0297515Y0050952D01*
X0298452Y0050015D01*
X0305778Y0050015D01*
X0306715Y0050952D01*
X0306715Y0058278D01*
X0305778Y0059215D01*
X0304915Y0059215D01*
X0304915Y0070054D01*
X0304502Y0071050D01*
X0304502Y0072522D01*
X0303565Y0073459D01*
X0302219Y0073459D01*
X0304531Y0075771D01*
X0307305Y0075771D01*
X0308243Y0076708D01*
X0308243Y0078244D01*
X0308413Y0078464D01*
X0308703Y0079540D01*
X0308561Y0080644D01*
X0308243Y0081198D01*
X0308243Y0082758D01*
X0307305Y0083695D01*
X0304405Y0083695D01*
X0303468Y0082758D01*
X0303468Y0082312D01*
X0302929Y0082089D01*
X0300762Y0079922D01*
X0300762Y0082758D01*
X0299825Y0083695D01*
X0296925Y0083695D01*
X0295987Y0082758D01*
X0295987Y0076708D01*
X0296768Y0075928D01*
X0292955Y0072115D01*
X0287002Y0072115D01*
X0287002Y0072522D01*
X0286176Y0073348D01*
X0288599Y0075771D01*
X0289805Y0075771D01*
X0290743Y0076708D01*
X0290743Y0082758D01*
X0289805Y0083695D01*
X0286905Y0083695D01*
X0285968Y0082758D01*
X0285968Y0078796D01*
X0264487Y0057315D01*
X0263315Y0056143D01*
X0263315Y0034764D01*
X0261401Y0034764D01*
X0260464Y0033827D01*
X0260464Y0027692D01*
X0259287Y0026515D01*
X0258766Y0026515D01*
X0258766Y0033827D01*
X0257829Y0034764D01*
X0250204Y0034764D01*
X0249267Y0033827D01*
X0249267Y0031791D01*
X0245715Y0035343D01*
X0244543Y0036515D01*
X0235687Y0036515D01*
X0234887Y0035715D01*
X0233715Y0034543D01*
X0233715Y0034082D01*
X0233606Y0034269D01*
X0233271Y0034605D01*
X0232861Y0034841D01*
X0232403Y0034964D01*
X0229791Y0034964D01*
X0229791Y0030390D01*
X0228242Y0030390D01*
X0228242Y0034964D01*
X0225630Y0034964D01*
X0225172Y0034841D01*
X0224762Y0034605D01*
X0224427Y0034269D01*
X0224190Y0033859D01*
X0224067Y0033401D01*
X0224067Y0030390D01*
X0228242Y0030390D01*
X0228242Y0028840D01*
X0229791Y0028840D01*
X0229791Y0024266D01*
X0232403Y0024266D01*
X0232861Y0024388D01*
X0233271Y0024625D01*
X0233606Y0024961D01*
X0233715Y0025148D01*
X0233715Y0024887D01*
X0240515Y0018087D01*
X0241048Y0017553D01*
X0240015Y0016520D01*
X0240015Y0013975D01*
X0239415Y0013375D01*
X0239415Y0014415D01*
X0234815Y0014415D01*
X0234815Y0014815D01*
X0234415Y0014815D01*
X0234415Y0019415D01*
X0232627Y0019415D01*
X0229815Y0016603D01*
X0229815Y0014815D01*
X0234415Y0014815D01*
X0234415Y0014415D01*
X0229815Y0014415D01*
X0229815Y0012627D01*
X0230327Y0012115D01*
X0081195Y0012115D01*
X0081195Y0014825D01*
X0080258Y0015762D01*
X0078834Y0015762D01*
X0078580Y0016034D01*
X0078535Y0016054D01*
X0076122Y0018468D01*
X0080258Y0018468D01*
X0081195Y0019405D01*
X0081195Y0022305D01*
X0080258Y0023243D01*
X0074208Y0023243D01*
X0073271Y0022305D01*
X0073271Y0021319D01*
X0064275Y0030315D01*
X0065675Y0031715D01*
X0066501Y0031715D01*
X0066638Y0031674D01*
X0067054Y0031715D01*
X0067472Y0031715D01*
X0067604Y0031770D01*
X0067747Y0031784D01*
X0068115Y0031981D01*
X0068501Y0032141D01*
X0068587Y0032228D01*
X0070022Y0032228D01*
X0070798Y0033004D01*
X0073271Y0030531D01*
X0073271Y0029425D01*
X0074208Y0028487D01*
X0080258Y0028487D01*
X0081195Y0029425D01*
X0081195Y0032325D01*
X0080258Y0033262D01*
X0076196Y0033262D01*
X0049715Y0059743D01*
X0048543Y0060915D01*
X0034764Y0060915D01*
X0034764Y0062829D01*
X0033827Y0063766D01*
X0027692Y0063766D01*
X0026515Y0064943D01*
X0026515Y0065464D01*
X0033827Y0065464D01*
X0034764Y0066401D01*
X0034764Y0074026D01*
X0033827Y0074963D01*
X0031791Y0074963D01*
X0035343Y0078515D01*
X0036515Y0079687D01*
X0036515Y0088543D01*
X0035315Y0089743D01*
X0034352Y0090706D01*
X0034605Y0090959D01*
X0034841Y0091369D01*
X0034964Y0091827D01*
X0034964Y0094439D01*
X0030390Y0094439D01*
X0030390Y0095988D01*
X0034964Y0095988D01*
X0034964Y0098600D01*
X0034841Y0099058D01*
X0034605Y0099468D01*
X0034269Y0099803D01*
X0033859Y0100040D01*
X0033401Y0100163D01*
X0030390Y0100163D01*
X0030390Y0095988D01*
X0028840Y0095988D01*
X0028840Y0094439D01*
X0024266Y0094439D01*
X0024266Y0091827D01*
X0024388Y0091369D01*
X0024625Y0090959D01*
X0024669Y0090915D01*
X0008515Y0090915D01*
X0008515Y0145287D01*
X0010015Y0143787D01*
X0010015Y0140210D01*
X0012515Y0137710D01*
X0012515Y0136520D01*
X0010015Y0134020D01*
X0010015Y0130210D01*
X0012710Y0127515D01*
X0016520Y0127515D01*
X0019215Y0130210D01*
X0019215Y0134020D01*
X0016520Y0136715D01*
X0016515Y0136715D01*
X0016515Y0137515D01*
X0016520Y0137515D01*
X0019215Y0140210D01*
X0019215Y0144020D01*
X0016520Y0146715D01*
X0012743Y0146715D01*
X0010015Y0143565D02*
X0008515Y0143565D01*
X0008515Y0145163D02*
X0008638Y0145163D01*
X0008515Y0141966D02*
X0010015Y0141966D01*
X0010015Y0140368D02*
X0008515Y0140368D01*
X0008515Y0138769D02*
X0011455Y0138769D01*
X0012515Y0137171D02*
X0008515Y0137171D01*
X0008515Y0135572D02*
X0011567Y0135572D01*
X0010015Y0133974D02*
X0008515Y0133974D01*
X0008515Y0132375D02*
X0010015Y0132375D01*
X0010015Y0130777D02*
X0008515Y0130777D01*
X0008515Y0129178D02*
X0011047Y0129178D01*
X0012645Y0127579D02*
X0008515Y0127579D01*
X0008515Y0125981D02*
X0011976Y0125981D01*
X0012710Y0126715D02*
X0010015Y0124020D01*
X0010015Y0120210D01*
X0012710Y0117515D01*
X0016520Y0117515D01*
X0019215Y0120210D01*
X0019215Y0124020D01*
X0016520Y0126715D01*
X0012710Y0126715D01*
X0010377Y0124382D02*
X0008515Y0124382D01*
X0008515Y0122784D02*
X0010015Y0122784D01*
X0010015Y0121185D02*
X0008515Y0121185D01*
X0008515Y0119587D02*
X0010638Y0119587D01*
X0012236Y0117988D02*
X0008515Y0117988D01*
X0008515Y0116390D02*
X0074680Y0116390D01*
X0073082Y0117988D02*
X0026994Y0117988D01*
X0026520Y0117515D02*
X0022710Y0117515D01*
X0020015Y0120210D01*
X0020015Y0124020D01*
X0022710Y0126715D01*
X0026520Y0126715D01*
X0029215Y0124020D01*
X0029215Y0120210D01*
X0026520Y0117515D01*
X0028592Y0119587D02*
X0071483Y0119587D01*
X0069885Y0121185D02*
X0029215Y0121185D01*
X0029215Y0122784D02*
X0068286Y0122784D01*
X0066688Y0124382D02*
X0028853Y0124382D01*
X0027254Y0125981D02*
X0065089Y0125981D01*
X0063491Y0127579D02*
X0026868Y0127579D01*
X0026603Y0127315D02*
X0024815Y0127315D01*
X0024815Y0131915D01*
X0024815Y0132315D01*
X0024415Y0132315D01*
X0024415Y0136915D01*
X0022627Y0136915D01*
X0019815Y0134103D01*
X0019815Y0132315D01*
X0024415Y0132315D01*
X0024415Y0131915D01*
X0019815Y0131915D01*
X0019815Y0130127D01*
X0022627Y0127315D01*
X0024415Y0127315D01*
X0024415Y0131915D01*
X0024815Y0131915D01*
X0029415Y0131915D01*
X0029415Y0130127D01*
X0026603Y0127315D01*
X0024815Y0127579D02*
X0024415Y0127579D01*
X0024415Y0129178D02*
X0024815Y0129178D01*
X0024815Y0130777D02*
X0024415Y0130777D01*
X0024815Y0132315D02*
X0029415Y0132315D01*
X0029415Y0134103D01*
X0026603Y0136915D01*
X0024815Y0136915D01*
X0024815Y0132315D01*
X0024815Y0132375D02*
X0024415Y0132375D01*
X0024415Y0133974D02*
X0024815Y0133974D01*
X0024815Y0135572D02*
X0024415Y0135572D01*
X0024415Y0137315D02*
X0024415Y0141915D01*
X0019815Y0141915D01*
X0019815Y0140127D01*
X0022627Y0137315D01*
X0024415Y0137315D01*
X0024415Y0138769D02*
X0024815Y0138769D01*
X0024815Y0140368D02*
X0024415Y0140368D01*
X0024415Y0141966D02*
X0019215Y0141966D01*
X0019215Y0140368D02*
X0019815Y0140368D01*
X0021173Y0138769D02*
X0017774Y0138769D01*
X0016515Y0137171D02*
X0034466Y0137171D01*
X0034466Y0135572D02*
X0027946Y0135572D01*
X0029415Y0133974D02*
X0057097Y0133974D01*
X0055498Y0135572D02*
X0051329Y0135572D01*
X0049701Y0135572D02*
X0044764Y0135572D01*
X0053473Y0137171D02*
X0053900Y0137171D01*
X0058695Y0132375D02*
X0029415Y0132375D01*
X0029415Y0130777D02*
X0060294Y0130777D01*
X0061892Y0129178D02*
X0028466Y0129178D01*
X0022362Y0127579D02*
X0016585Y0127579D01*
X0017254Y0125981D02*
X0021976Y0125981D01*
X0020377Y0124382D02*
X0018853Y0124382D01*
X0019215Y0122784D02*
X0020015Y0122784D01*
X0020015Y0121185D02*
X0019215Y0121185D01*
X0018592Y0119587D02*
X0020638Y0119587D01*
X0022236Y0117988D02*
X0016994Y0117988D01*
X0008515Y0114791D02*
X0076279Y0114791D01*
X0077877Y0113193D02*
X0008515Y0113193D01*
X0008515Y0111594D02*
X0079476Y0111594D01*
X0081057Y0109996D02*
X0008515Y0109996D01*
X0008515Y0108397D02*
X0079459Y0108397D01*
X0077860Y0106799D02*
X0008515Y0106799D01*
X0008515Y0105200D02*
X0076467Y0105200D01*
X0076946Y0103602D02*
X0008515Y0103602D01*
X0008515Y0102003D02*
X0078544Y0102003D01*
X0080115Y0100405D02*
X0008515Y0100405D01*
X0008515Y0098806D02*
X0024321Y0098806D01*
X0024266Y0098600D02*
X0024266Y0095988D01*
X0028840Y0095988D01*
X0028840Y0100163D01*
X0025829Y0100163D01*
X0025371Y0100040D01*
X0024961Y0099803D01*
X0024625Y0099468D01*
X0024388Y0099058D01*
X0024266Y0098600D01*
X0024266Y0097208D02*
X0008515Y0097208D01*
X0008515Y0095609D02*
X0028840Y0095609D01*
X0030390Y0095609D02*
X0080115Y0095609D01*
X0080115Y0094011D02*
X0034964Y0094011D01*
X0034964Y0092412D02*
X0080115Y0092412D01*
X0080115Y0090814D02*
X0034460Y0090814D01*
X0035843Y0089215D02*
X0079581Y0089215D01*
X0077982Y0087617D02*
X0036515Y0087617D01*
X0036515Y0086018D02*
X0076384Y0086018D01*
X0074785Y0084420D02*
X0036515Y0084420D01*
X0036515Y0082821D02*
X0074320Y0082821D01*
X0075725Y0081223D02*
X0036515Y0081223D01*
X0036453Y0079624D02*
X0077324Y0079624D01*
X0078915Y0078026D02*
X0034854Y0078026D01*
X0033256Y0076427D02*
X0078915Y0076427D01*
X0079773Y0074829D02*
X0033961Y0074829D01*
X0034764Y0073230D02*
X0081371Y0073230D01*
X0082970Y0071632D02*
X0034764Y0071632D01*
X0034764Y0070033D02*
X0084568Y0070033D01*
X0086167Y0068435D02*
X0034764Y0068435D01*
X0034764Y0066836D02*
X0192234Y0066836D01*
X0193833Y0065238D02*
X0026515Y0065238D01*
X0022515Y0069675D02*
X0019215Y0072975D01*
X0019215Y0076520D01*
X0016520Y0079215D01*
X0012710Y0079215D01*
X0010015Y0076520D01*
X0010015Y0072710D01*
X0012710Y0070015D01*
X0014255Y0070015D01*
X0015055Y0069215D01*
X0013043Y0069215D01*
X0008515Y0073743D01*
X0008515Y0086915D01*
X0010127Y0086915D01*
X0009815Y0086603D01*
X0009815Y0084815D01*
X0014415Y0084815D01*
X0014415Y0084415D01*
X0014815Y0084415D01*
X0014815Y0084815D01*
X0019415Y0084815D01*
X0019415Y0086603D01*
X0019103Y0086915D01*
X0024466Y0086915D01*
X0024466Y0080204D01*
X0025403Y0079267D01*
X0027239Y0079267D01*
X0023687Y0075715D01*
X0022515Y0074543D01*
X0022515Y0069675D01*
X0022515Y0070033D02*
X0022157Y0070033D01*
X0022515Y0071632D02*
X0020558Y0071632D01*
X0019215Y0073230D02*
X0022515Y0073230D01*
X0022800Y0074829D02*
X0019215Y0074829D01*
X0019215Y0076427D02*
X0024399Y0076427D01*
X0025997Y0078026D02*
X0017710Y0078026D01*
X0016603Y0079815D02*
X0014815Y0079815D01*
X0014815Y0084415D01*
X0019415Y0084415D01*
X0019415Y0082627D01*
X0016603Y0079815D01*
X0018011Y0081223D02*
X0024466Y0081223D01*
X0024466Y0082821D02*
X0019415Y0082821D01*
X0019415Y0086018D02*
X0024466Y0086018D01*
X0024466Y0084420D02*
X0014815Y0084420D01*
X0014415Y0084415D02*
X0014415Y0079815D01*
X0012627Y0079815D01*
X0009815Y0082627D01*
X0009815Y0084415D01*
X0014415Y0084415D01*
X0014415Y0084420D02*
X0008515Y0084420D01*
X0008515Y0086018D02*
X0009815Y0086018D01*
X0009815Y0082821D02*
X0008515Y0082821D01*
X0008515Y0081223D02*
X0011219Y0081223D01*
X0008515Y0079624D02*
X0025046Y0079624D01*
X0014815Y0081223D02*
X0014415Y0081223D01*
X0014415Y0082821D02*
X0014815Y0082821D01*
X0011520Y0078026D02*
X0008515Y0078026D01*
X0008515Y0076427D02*
X0010015Y0076427D01*
X0010015Y0074829D02*
X0008515Y0074829D01*
X0009028Y0073230D02*
X0010015Y0073230D01*
X0010627Y0071632D02*
X0011093Y0071632D01*
X0012225Y0070033D02*
X0012691Y0070033D01*
X0033954Y0063639D02*
X0195576Y0063639D01*
X0195329Y0063741D02*
X0196358Y0063315D01*
X0212672Y0063315D01*
X0213701Y0063741D01*
X0224084Y0074124D01*
X0229221Y0068987D01*
X0230083Y0068987D01*
X0240529Y0058541D01*
X0241558Y0058115D01*
X0246341Y0058115D01*
X0250071Y0054385D01*
X0251397Y0054385D01*
X0257345Y0060333D01*
X0257345Y0061659D01*
X0251954Y0067050D01*
X0250628Y0067050D01*
X0247293Y0063715D01*
X0245420Y0063715D01*
X0246170Y0064465D01*
X0243218Y0067417D01*
X0244313Y0068512D01*
X0247265Y0065560D01*
X0249390Y0067686D01*
X0249627Y0068096D01*
X0249750Y0068554D01*
X0249750Y0069028D01*
X0249627Y0069486D01*
X0249390Y0069896D01*
X0247544Y0071743D01*
X0244313Y0068512D01*
X0243218Y0069608D01*
X0246448Y0072839D01*
X0244601Y0074685D01*
X0244191Y0074922D01*
X0243733Y0075045D01*
X0243259Y0075045D01*
X0242801Y0074922D01*
X0242391Y0074685D01*
X0240265Y0072560D01*
X0243217Y0069608D01*
X0242122Y0068512D01*
X0239170Y0071464D01*
X0237348Y0069642D01*
X0234029Y0072960D01*
X0234029Y0073725D01*
X0235284Y0073725D01*
X0238767Y0077208D01*
X0238767Y0078358D01*
X0239122Y0078263D01*
X0239596Y0078263D01*
X0240054Y0078385D01*
X0240464Y0078622D01*
X0241834Y0079992D01*
X0234268Y0087558D01*
X0234409Y0087699D01*
X0241975Y0080133D01*
X0243345Y0081503D01*
X0243582Y0081913D01*
X0243705Y0082371D01*
X0243705Y0082845D01*
X0243609Y0083200D01*
X0244270Y0083200D01*
X0247729Y0079741D01*
X0246885Y0078897D01*
X0246885Y0077571D01*
X0252276Y0072180D01*
X0253602Y0072180D01*
X0259550Y0078128D01*
X0259550Y0079454D01*
X0254159Y0084845D01*
X0252833Y0084845D01*
X0251689Y0083701D01*
X0248242Y0087147D01*
X0248242Y0087938D01*
X0249497Y0087938D01*
X0252980Y0091421D01*
X0252980Y0092746D01*
X0246515Y0099211D01*
X0246515Y0114272D01*
X0246089Y0115301D01*
X0245301Y0116089D01*
X0220115Y0141275D01*
X0220115Y0291110D01*
X0221715Y0292710D01*
X0221715Y0296520D01*
X0219020Y0299215D01*
X0218375Y0299215D01*
X0218501Y0299341D01*
X0219289Y0300129D01*
X0219398Y0300393D01*
X0221715Y0302710D01*
X0221715Y0306520D01*
X0219020Y0309215D01*
X0215210Y0309215D01*
X0212515Y0306520D01*
X0212515Y0302710D01*
X0213232Y0301992D01*
X0210529Y0299289D01*
X0209741Y0298501D01*
X0209739Y0298496D01*
X0209020Y0299215D01*
X0205210Y0299215D01*
X0202515Y0296520D01*
X0202515Y0292710D01*
X0205210Y0290015D01*
X0209020Y0290015D01*
X0209315Y0290310D01*
X0209315Y0220475D01*
X0159329Y0170489D01*
X0158541Y0169701D01*
X0158115Y0168672D01*
X0158115Y0164620D01*
X0156051Y0162556D01*
X0156051Y0158745D01*
X0157715Y0157081D01*
X0157715Y0156232D01*
X0157115Y0156832D01*
X0153862Y0153579D01*
X0157115Y0150327D01*
X0157715Y0150927D01*
X0157715Y0104475D01*
X0157341Y0104101D01*
X0156915Y0103072D01*
X0156915Y0098758D01*
X0157341Y0097729D01*
X0175341Y0079729D01*
X0176129Y0078941D01*
X0177158Y0078515D01*
X0185384Y0078515D01*
X0188115Y0075784D01*
X0188115Y0071558D01*
X0188541Y0070529D01*
X0194541Y0064529D01*
X0195329Y0063741D01*
X0190636Y0068435D02*
X0092863Y0068435D01*
X0094462Y0070033D02*
X0189037Y0070033D01*
X0188115Y0071632D02*
X0096060Y0071632D01*
X0097659Y0073230D02*
X0188115Y0073230D01*
X0188115Y0074829D02*
X0099257Y0074829D01*
X0100856Y0076427D02*
X0187472Y0076427D01*
X0185874Y0078026D02*
X0118956Y0078026D01*
X0118674Y0077744D02*
X0119939Y0079008D01*
X0116686Y0082261D01*
X0113433Y0079008D01*
X0114698Y0077744D01*
X0118674Y0077744D01*
X0119323Y0079624D02*
X0119889Y0079624D01*
X0120222Y0079291D02*
X0121486Y0080556D01*
X0121486Y0084532D01*
X0120222Y0085797D01*
X0116969Y0082544D01*
X0116686Y0082827D01*
X0119939Y0086079D01*
X0118674Y0087344D01*
X0114698Y0087344D01*
X0113433Y0086079D01*
X0116686Y0082827D01*
X0116403Y0082544D01*
X0113151Y0085797D01*
X0111886Y0084532D01*
X0111886Y0080556D01*
X0113150Y0079291D01*
X0116403Y0082544D01*
X0116686Y0082261D01*
X0116969Y0082544D01*
X0120222Y0079291D01*
X0120555Y0079624D02*
X0175446Y0079624D01*
X0173847Y0081223D02*
X0121486Y0081223D01*
X0121486Y0082821D02*
X0172249Y0082821D01*
X0170650Y0084420D02*
X0121486Y0084420D01*
X0119877Y0086018D02*
X0169052Y0086018D01*
X0167453Y0087617D02*
X0112045Y0087617D01*
X0113495Y0086018D02*
X0110447Y0086018D01*
X0111886Y0084420D02*
X0108848Y0084420D01*
X0107250Y0082821D02*
X0111886Y0082821D01*
X0111886Y0081223D02*
X0105651Y0081223D01*
X0104053Y0079624D02*
X0112818Y0079624D01*
X0113483Y0079624D02*
X0114049Y0079624D01*
X0114416Y0078026D02*
X0102454Y0078026D01*
X0114527Y0084420D02*
X0115093Y0084420D01*
X0116126Y0082821D02*
X0116680Y0082821D01*
X0116692Y0082821D02*
X0117246Y0082821D01*
X0117724Y0081223D02*
X0118290Y0081223D01*
X0115648Y0081223D02*
X0115082Y0081223D01*
X0118279Y0084420D02*
X0118845Y0084420D01*
X0113644Y0089215D02*
X0165855Y0089215D01*
X0164256Y0090814D02*
X0115242Y0090814D01*
X0116841Y0092412D02*
X0162658Y0092412D01*
X0161059Y0094011D02*
X0118439Y0094011D01*
X0120038Y0095609D02*
X0159461Y0095609D01*
X0157862Y0097208D02*
X0121636Y0097208D01*
X0123235Y0098806D02*
X0156915Y0098806D01*
X0156915Y0100405D02*
X0124833Y0100405D01*
X0126432Y0102003D02*
X0156915Y0102003D01*
X0157134Y0103602D02*
X0128030Y0103602D01*
X0129629Y0105200D02*
X0157715Y0105200D01*
X0157715Y0106799D02*
X0131227Y0106799D01*
X0132826Y0108397D02*
X0157715Y0108397D01*
X0157715Y0109996D02*
X0132915Y0109996D01*
X0132915Y0111594D02*
X0157715Y0111594D01*
X0157715Y0113193D02*
X0132915Y0113193D01*
X0132915Y0114791D02*
X0157715Y0114791D01*
X0157715Y0116390D02*
X0132915Y0116390D01*
X0132915Y0117988D02*
X0157715Y0117988D01*
X0157715Y0119587D02*
X0132915Y0119587D01*
X0132915Y0121185D02*
X0157715Y0121185D01*
X0157715Y0122784D02*
X0132915Y0122784D01*
X0132915Y0124382D02*
X0157715Y0124382D01*
X0157715Y0125981D02*
X0132915Y0125981D01*
X0134368Y0127579D02*
X0157715Y0127579D01*
X0157715Y0129178D02*
X0135966Y0129178D01*
X0135837Y0129178D02*
X0135272Y0129178D01*
X0134239Y0130777D02*
X0133673Y0130777D01*
X0132658Y0132375D02*
X0132640Y0132375D01*
X0133691Y0133974D02*
X0134256Y0133974D01*
X0135289Y0135572D02*
X0135855Y0135572D01*
X0135949Y0135572D02*
X0136514Y0135572D01*
X0136185Y0135902D02*
X0137449Y0134637D01*
X0141426Y0134637D01*
X0142690Y0135902D01*
X0139437Y0139154D01*
X0136185Y0135902D01*
X0135902Y0136185D02*
X0134637Y0137449D01*
X0134637Y0141426D01*
X0135902Y0142690D01*
X0139154Y0139437D01*
X0139437Y0139154D01*
X0139720Y0139437D01*
X0142973Y0136185D01*
X0144237Y0137449D01*
X0144237Y0141426D01*
X0142973Y0142690D01*
X0139720Y0139437D01*
X0139437Y0139720D01*
X0139154Y0139437D01*
X0135902Y0136185D01*
X0136888Y0137171D02*
X0137453Y0137171D01*
X0138486Y0138769D02*
X0139052Y0138769D01*
X0139823Y0138769D02*
X0140388Y0138769D01*
X0139437Y0139720D02*
X0142690Y0142973D01*
X0141426Y0144237D01*
X0137449Y0144237D01*
X0136185Y0142973D01*
X0139437Y0139720D01*
X0138790Y0140368D02*
X0138224Y0140368D01*
X0140085Y0140368D02*
X0140650Y0140368D01*
X0141683Y0141966D02*
X0142249Y0141966D01*
X0143256Y0142973D02*
X0144520Y0141708D01*
X0148497Y0141708D01*
X0149761Y0142973D01*
X0146508Y0146225D01*
X0143256Y0142973D01*
X0142973Y0143256D02*
X0141708Y0144520D01*
X0141708Y0148497D01*
X0142973Y0149761D01*
X0146225Y0146508D01*
X0146508Y0146225D01*
X0146791Y0146508D01*
X0150044Y0143256D01*
X0151308Y0144520D01*
X0151308Y0148497D01*
X0150044Y0149761D01*
X0146791Y0146508D01*
X0146508Y0146791D01*
X0146225Y0146508D01*
X0142973Y0143256D01*
X0143282Y0143565D02*
X0143847Y0143565D01*
X0142664Y0143565D02*
X0142098Y0143565D01*
X0141708Y0145163D02*
X0138508Y0145163D01*
X0136776Y0143565D02*
X0135593Y0143565D01*
X0135178Y0141966D02*
X0133995Y0141966D01*
X0134637Y0140368D02*
X0132396Y0140368D01*
X0130797Y0138769D02*
X0134637Y0138769D01*
X0134916Y0137171D02*
X0130115Y0137171D01*
X0126115Y0137171D02*
X0122288Y0137171D01*
X0120689Y0138769D02*
X0126115Y0138769D01*
X0126115Y0139743D02*
X0126115Y0133343D01*
X0125743Y0133715D01*
X0118779Y0140679D01*
X0121219Y0140679D01*
X0122484Y0141944D01*
X0119231Y0145196D01*
X0119514Y0145479D01*
X0122766Y0142227D01*
X0124031Y0143491D01*
X0124031Y0146115D01*
X0131343Y0146115D01*
X0134315Y0149087D01*
X0134315Y0147943D01*
X0126115Y0139743D01*
X0126739Y0140368D02*
X0119091Y0140368D01*
X0120863Y0143565D02*
X0121428Y0143565D01*
X0122461Y0141966D02*
X0128338Y0141966D01*
X0129936Y0143565D02*
X0124031Y0143565D01*
X0124031Y0145163D02*
X0131535Y0145163D01*
X0131990Y0146762D02*
X0133133Y0146762D01*
X0133589Y0148360D02*
X0134315Y0148360D01*
X0139255Y0151557D02*
X0148813Y0151557D01*
X0148779Y0151591D02*
X0150044Y0150327D01*
X0153297Y0153579D01*
X0153579Y0153297D01*
X0150327Y0150044D01*
X0151591Y0148779D01*
X0155568Y0148779D01*
X0156832Y0150044D01*
X0153579Y0153296D01*
X0153862Y0153579D01*
X0153579Y0153862D01*
X0153296Y0153579D01*
X0150044Y0156832D01*
X0148779Y0155568D01*
X0148779Y0151591D01*
X0148497Y0151308D02*
X0144520Y0151308D01*
X0143256Y0150044D01*
X0146508Y0146791D01*
X0149761Y0150044D01*
X0148497Y0151308D01*
X0149676Y0149959D02*
X0150412Y0149959D01*
X0151274Y0151557D02*
X0151840Y0151557D01*
X0152873Y0153156D02*
X0153439Y0153156D01*
X0153720Y0153156D02*
X0154286Y0153156D01*
X0153579Y0153862D02*
X0156832Y0157115D01*
X0155568Y0158379D01*
X0151591Y0158379D01*
X0150327Y0157115D01*
X0153579Y0153862D01*
X0152687Y0154754D02*
X0152122Y0154754D01*
X0151089Y0156353D02*
X0150523Y0156353D01*
X0149565Y0156353D02*
X0141581Y0156353D01*
X0143180Y0157951D02*
X0151163Y0157951D01*
X0148779Y0154754D02*
X0139983Y0154754D01*
X0138384Y0153156D02*
X0148779Y0153156D01*
X0148643Y0148360D02*
X0148077Y0148360D01*
X0147044Y0146762D02*
X0146538Y0146762D01*
X0146479Y0146762D02*
X0145972Y0146762D01*
X0145446Y0145163D02*
X0144880Y0145163D01*
X0147571Y0145163D02*
X0148136Y0145163D01*
X0149169Y0143565D02*
X0149735Y0143565D01*
X0150353Y0143565D02*
X0157715Y0143565D01*
X0157715Y0145163D02*
X0151308Y0145163D01*
X0151308Y0146762D02*
X0157715Y0146762D01*
X0157715Y0148360D02*
X0151308Y0148360D01*
X0155319Y0151557D02*
X0155884Y0151557D01*
X0156747Y0149959D02*
X0157715Y0149959D01*
X0155037Y0154754D02*
X0154471Y0154754D01*
X0156070Y0156353D02*
X0156636Y0156353D01*
X0157594Y0156353D02*
X0157715Y0156353D01*
X0156844Y0157951D02*
X0155996Y0157951D01*
X0156051Y0159550D02*
X0144778Y0159550D01*
X0146377Y0161148D02*
X0156051Y0161148D01*
X0156241Y0162747D02*
X0147975Y0162747D01*
X0149574Y0164345D02*
X0157840Y0164345D01*
X0158115Y0165944D02*
X0151172Y0165944D01*
X0152771Y0167542D02*
X0158115Y0167542D01*
X0158309Y0169141D02*
X0154369Y0169141D01*
X0155968Y0170739D02*
X0159580Y0170739D01*
X0159329Y0170489D02*
X0159329Y0170489D01*
X0157566Y0172338D02*
X0161178Y0172338D01*
X0162777Y0173936D02*
X0159165Y0173936D01*
X0160763Y0175535D02*
X0164375Y0175535D01*
X0165974Y0177133D02*
X0162362Y0177133D01*
X0163960Y0178732D02*
X0167572Y0178732D01*
X0169171Y0180330D02*
X0165559Y0180330D01*
X0167157Y0181929D02*
X0170769Y0181929D01*
X0172368Y0183527D02*
X0168756Y0183527D01*
X0170354Y0185126D02*
X0173966Y0185126D01*
X0175565Y0186724D02*
X0171953Y0186724D01*
X0173551Y0188323D02*
X0177163Y0188323D01*
X0178762Y0189921D02*
X0175150Y0189921D01*
X0176748Y0191520D02*
X0180360Y0191520D01*
X0181959Y0193118D02*
X0178347Y0193118D01*
X0179945Y0194717D02*
X0183557Y0194717D01*
X0185156Y0196315D02*
X0181544Y0196315D01*
X0183142Y0197914D02*
X0186754Y0197914D01*
X0188353Y0199512D02*
X0184741Y0199512D01*
X0186339Y0201111D02*
X0189951Y0201111D01*
X0191550Y0202710D02*
X0187938Y0202710D01*
X0189536Y0204308D02*
X0193148Y0204308D01*
X0194747Y0205907D02*
X0191135Y0205907D01*
X0192733Y0207505D02*
X0196345Y0207505D01*
X0197944Y0209104D02*
X0194332Y0209104D01*
X0194915Y0210702D02*
X0199542Y0210702D01*
X0201141Y0212301D02*
X0194915Y0212301D01*
X0194915Y0213899D02*
X0202739Y0213899D01*
X0204338Y0215498D02*
X0194915Y0215498D01*
X0194915Y0217096D02*
X0205936Y0217096D01*
X0207535Y0218695D02*
X0194915Y0218695D01*
X0194915Y0220293D02*
X0209133Y0220293D01*
X0209315Y0221892D02*
X0194915Y0221892D01*
X0194915Y0223490D02*
X0209315Y0223490D01*
X0209315Y0225089D02*
X0194915Y0225089D01*
X0194915Y0226687D02*
X0209315Y0226687D01*
X0209315Y0228286D02*
X0194915Y0228286D01*
X0194915Y0229884D02*
X0209315Y0229884D01*
X0209315Y0231483D02*
X0194915Y0231483D01*
X0194915Y0233081D02*
X0209315Y0233081D01*
X0209315Y0234680D02*
X0194915Y0234680D01*
X0194915Y0236278D02*
X0209315Y0236278D01*
X0209315Y0237877D02*
X0194915Y0237877D01*
X0194915Y0239475D02*
X0209315Y0239475D01*
X0209315Y0241074D02*
X0194915Y0241074D01*
X0194915Y0242672D02*
X0209315Y0242672D01*
X0209315Y0244271D02*
X0194915Y0244271D01*
X0194915Y0245869D02*
X0209315Y0245869D01*
X0209315Y0247468D02*
X0194915Y0247468D01*
X0194915Y0249066D02*
X0209315Y0249066D01*
X0209315Y0250665D02*
X0194915Y0250665D01*
X0194915Y0252263D02*
X0209315Y0252263D01*
X0209315Y0253862D02*
X0194915Y0253862D01*
X0194915Y0255460D02*
X0209315Y0255460D01*
X0209315Y0257059D02*
X0194915Y0257059D01*
X0194915Y0258657D02*
X0209315Y0258657D01*
X0209315Y0260256D02*
X0194915Y0260256D01*
X0194915Y0261854D02*
X0209315Y0261854D01*
X0209315Y0263453D02*
X0194915Y0263453D01*
X0194915Y0265051D02*
X0209315Y0265051D01*
X0209315Y0266650D02*
X0194915Y0266650D01*
X0194915Y0268248D02*
X0209315Y0268248D01*
X0209315Y0269847D02*
X0194915Y0269847D01*
X0194915Y0271446D02*
X0209315Y0271446D01*
X0209315Y0273044D02*
X0194915Y0273044D01*
X0194915Y0274643D02*
X0209315Y0274643D01*
X0209315Y0276241D02*
X0194915Y0276241D01*
X0194915Y0277840D02*
X0209315Y0277840D01*
X0209315Y0279438D02*
X0194915Y0279438D01*
X0194915Y0281037D02*
X0209315Y0281037D01*
X0209315Y0282635D02*
X0194915Y0282635D01*
X0199442Y0284234D02*
X0209315Y0284234D01*
X0209315Y0285832D02*
X0200312Y0285832D01*
X0200216Y0287431D02*
X0209315Y0287431D01*
X0209315Y0289029D02*
X0199209Y0289029D01*
X0199633Y0290628D02*
X0204597Y0290628D01*
X0202998Y0292226D02*
X0201232Y0292226D01*
X0201715Y0293825D02*
X0202515Y0293825D01*
X0202515Y0295423D02*
X0201715Y0295423D01*
X0201214Y0297022D02*
X0203016Y0297022D01*
X0204615Y0298620D02*
X0199615Y0298620D01*
X0199224Y0300219D02*
X0205006Y0300219D01*
X0205210Y0300015D02*
X0209020Y0300015D01*
X0211715Y0302710D01*
X0211715Y0306520D01*
X0209020Y0309215D01*
X0205210Y0309215D01*
X0202515Y0306520D01*
X0202515Y0302710D01*
X0205210Y0300015D01*
X0203407Y0301817D02*
X0200823Y0301817D01*
X0201715Y0303416D02*
X0202515Y0303416D01*
X0202515Y0305014D02*
X0201715Y0305014D01*
X0201623Y0306613D02*
X0202607Y0306613D01*
X0204206Y0308211D02*
X0200024Y0308211D01*
X0194206Y0308211D02*
X0190024Y0308211D01*
X0189020Y0309215D02*
X0185210Y0309215D01*
X0182515Y0306520D01*
X0182515Y0302710D01*
X0185210Y0300015D01*
X0189020Y0300015D01*
X0191715Y0302710D01*
X0191715Y0306520D01*
X0189020Y0309215D01*
X0191623Y0306613D02*
X0192607Y0306613D01*
X0192515Y0305014D02*
X0191715Y0305014D01*
X0191715Y0303416D02*
X0192515Y0303416D01*
X0191389Y0301817D02*
X0190823Y0301817D01*
X0190915Y0300219D02*
X0189224Y0300219D01*
X0189615Y0298620D02*
X0190915Y0298620D01*
X0185006Y0300219D02*
X0179507Y0300219D01*
X0179103Y0299815D02*
X0181915Y0302627D01*
X0181915Y0304415D01*
X0177315Y0304415D01*
X0177315Y0304815D01*
X0181915Y0304815D01*
X0181915Y0306603D01*
X0179103Y0309415D01*
X0177315Y0309415D01*
X0177315Y0304815D01*
X0176915Y0304815D01*
X0176915Y0309415D01*
X0175127Y0309415D01*
X0172315Y0306603D01*
X0172315Y0304815D01*
X0176915Y0304815D01*
X0176915Y0304415D01*
X0177315Y0304415D01*
X0177315Y0299815D01*
X0179103Y0299815D01*
X0179103Y0299415D02*
X0177315Y0299415D01*
X0177315Y0294815D01*
X0181915Y0294815D01*
X0181915Y0296603D01*
X0179103Y0299415D01*
X0179898Y0298620D02*
X0184615Y0298620D01*
X0183016Y0297022D02*
X0181496Y0297022D01*
X0181915Y0295423D02*
X0182515Y0295423D01*
X0181915Y0294415D02*
X0177315Y0294415D01*
X0177315Y0294815D01*
X0176915Y0294815D01*
X0176915Y0299415D01*
X0175127Y0299415D01*
X0172315Y0296603D01*
X0172315Y0294815D01*
X0176915Y0294815D01*
X0176915Y0294415D01*
X0177315Y0294415D01*
X0177315Y0289815D01*
X0179103Y0289815D01*
X0181915Y0292627D01*
X0181915Y0294415D01*
X0181915Y0293825D02*
X0182515Y0293825D01*
X0182998Y0292226D02*
X0181514Y0292226D01*
X0179916Y0290628D02*
X0184597Y0290628D01*
X0184915Y0289029D02*
X0158915Y0289029D01*
X0158915Y0287431D02*
X0184915Y0287431D01*
X0184915Y0285832D02*
X0158915Y0285832D01*
X0158915Y0284234D02*
X0184915Y0284234D01*
X0184207Y0282635D02*
X0158915Y0282635D01*
X0158915Y0281037D02*
X0182608Y0281037D01*
X0181010Y0279438D02*
X0158915Y0279438D01*
X0158915Y0277840D02*
X0179411Y0277840D01*
X0177813Y0276241D02*
X0158915Y0276241D01*
X0158915Y0274643D02*
X0176214Y0274643D01*
X0174616Y0273044D02*
X0158915Y0273044D01*
X0158915Y0271446D02*
X0173017Y0271446D01*
X0171419Y0269847D02*
X0158915Y0269847D01*
X0158915Y0268248D02*
X0169820Y0268248D01*
X0168222Y0266650D02*
X0158915Y0266650D01*
X0158915Y0265051D02*
X0166623Y0265051D01*
X0165025Y0263453D02*
X0159875Y0263453D01*
X0160315Y0261854D02*
X0163426Y0261854D01*
X0161828Y0260256D02*
X0159991Y0260256D01*
X0160229Y0258657D02*
X0158418Y0258657D01*
X0158630Y0257059D02*
X0156558Y0257059D01*
X0157032Y0255460D02*
X0155469Y0255460D01*
X0155433Y0253862D02*
X0132376Y0253862D01*
X0131715Y0255460D02*
X0151161Y0255460D01*
X0150072Y0257059D02*
X0131715Y0257059D01*
X0131715Y0258657D02*
X0149915Y0258657D01*
X0150648Y0260256D02*
X0131715Y0260256D01*
X0131715Y0261854D02*
X0151315Y0261854D01*
X0151315Y0263453D02*
X0131715Y0263453D01*
X0131715Y0265051D02*
X0151315Y0265051D01*
X0151315Y0266650D02*
X0131715Y0266650D01*
X0131715Y0268248D02*
X0151315Y0268248D01*
X0151315Y0269847D02*
X0131715Y0269847D01*
X0131715Y0271446D02*
X0151315Y0271446D01*
X0151315Y0273044D02*
X0131715Y0273044D01*
X0131715Y0274643D02*
X0151315Y0274643D01*
X0151315Y0276241D02*
X0131715Y0276241D01*
X0131868Y0277840D02*
X0151315Y0277840D01*
X0151315Y0279438D02*
X0133466Y0279438D01*
X0135065Y0281037D02*
X0151315Y0281037D01*
X0151315Y0282635D02*
X0136664Y0282635D01*
X0138262Y0284234D02*
X0151315Y0284234D01*
X0151315Y0285832D02*
X0139861Y0285832D01*
X0141459Y0287431D02*
X0151315Y0287431D01*
X0149972Y0289029D02*
X0143058Y0289029D01*
X0135001Y0289029D02*
X0134258Y0289029D01*
X0133402Y0287431D02*
X0132659Y0287431D01*
X0131804Y0285832D02*
X0131061Y0285832D01*
X0130205Y0284234D02*
X0129462Y0284234D01*
X0128607Y0282635D02*
X0127863Y0282635D01*
X0127008Y0281037D02*
X0079065Y0281037D01*
X0077466Y0279438D02*
X0081881Y0279438D01*
X0082129Y0279685D02*
X0080282Y0277839D01*
X0083512Y0274608D01*
X0082417Y0273512D01*
X0083512Y0272417D01*
X0080560Y0269465D01*
X0082686Y0267339D01*
X0083096Y0267102D01*
X0083554Y0266980D01*
X0084028Y0266980D01*
X0084486Y0267102D01*
X0084896Y0267339D01*
X0086743Y0269186D01*
X0083512Y0272417D01*
X0084608Y0273512D01*
X0087839Y0270282D01*
X0089685Y0272129D01*
X0089922Y0272539D01*
X0090045Y0272997D01*
X0090045Y0273471D01*
X0089922Y0273929D01*
X0089685Y0274339D01*
X0087560Y0276464D01*
X0084608Y0273512D01*
X0083512Y0274608D01*
X0086464Y0277560D01*
X0084339Y0279685D01*
X0083929Y0279922D01*
X0083471Y0280045D01*
X0082997Y0280045D01*
X0082539Y0279922D01*
X0082129Y0279685D01*
X0084587Y0279438D02*
X0125410Y0279438D01*
X0123811Y0277840D02*
X0086185Y0277840D01*
X0085145Y0276241D02*
X0087337Y0276241D01*
X0087784Y0276241D02*
X0123315Y0276241D01*
X0123315Y0274643D02*
X0089382Y0274643D01*
X0090045Y0273044D02*
X0123315Y0273044D01*
X0123315Y0271446D02*
X0089002Y0271446D01*
X0086675Y0271446D02*
X0084483Y0271446D01*
X0084140Y0273044D02*
X0085076Y0273044D01*
X0085738Y0274643D02*
X0083547Y0274643D01*
X0083478Y0274643D02*
X0081286Y0274643D01*
X0082417Y0273512D02*
X0079186Y0276743D01*
X0077339Y0274896D01*
X0077102Y0274486D01*
X0076980Y0274028D01*
X0076980Y0273554D01*
X0077102Y0273096D01*
X0077339Y0272686D01*
X0079465Y0270560D01*
X0082417Y0273512D01*
X0082885Y0273044D02*
X0081948Y0273044D01*
X0082541Y0271446D02*
X0080350Y0271446D01*
X0080943Y0269847D02*
X0078305Y0269847D01*
X0078579Y0271446D02*
X0076706Y0271446D01*
X0077132Y0273044D02*
X0071715Y0273044D01*
X0071715Y0271446D02*
X0074172Y0271446D01*
X0072573Y0269847D02*
X0071715Y0269847D01*
X0067715Y0272498D02*
X0067191Y0272715D01*
X0065839Y0272715D01*
X0064589Y0272197D01*
X0063633Y0271241D01*
X0063115Y0269991D01*
X0063115Y0268743D01*
X0056115Y0261743D01*
X0056115Y0254487D01*
X0056522Y0254079D01*
X0054987Y0252544D01*
X0058217Y0249313D01*
X0057122Y0248218D01*
X0053891Y0251448D01*
X0052941Y0250497D01*
X0052841Y0250597D01*
X0051591Y0251115D01*
X0050239Y0251115D01*
X0048989Y0250597D01*
X0048033Y0249641D01*
X0047515Y0248391D01*
X0047515Y0247915D01*
X0047039Y0247915D01*
X0045789Y0247397D01*
X0044833Y0246441D01*
X0044315Y0245191D01*
X0044315Y0243839D01*
X0044833Y0242589D01*
X0045789Y0241633D01*
X0046438Y0241364D01*
X0046887Y0240915D01*
X0048897Y0238905D01*
X0048833Y0238841D01*
X0048652Y0238406D01*
X0042915Y0244143D01*
X0041743Y0245315D01*
X0040942Y0245315D01*
X0040942Y0246997D01*
X0040943Y0246997D02*
X0040943Y0249596D01*
X0040820Y0250054D01*
X0040583Y0250464D01*
X0040248Y0250799D01*
X0039837Y0251036D01*
X0039379Y0251159D01*
X0038355Y0251159D01*
X0037331Y0251159D01*
X0036873Y0251036D01*
X0036462Y0250799D01*
X0036127Y0250464D01*
X0035890Y0250054D01*
X0035768Y0249596D01*
X0035768Y0246997D01*
X0038355Y0246997D01*
X0038355Y0251159D01*
X0038355Y0246997D01*
X0038355Y0246997D01*
X0038355Y0246997D01*
X0035768Y0246997D01*
X0035768Y0245315D01*
X0033262Y0245315D01*
X0033262Y0248034D01*
X0052143Y0266915D01*
X0053315Y0268087D01*
X0053315Y0282515D01*
X0066943Y0282515D01*
X0068115Y0283687D01*
X0071743Y0287315D01*
X0074267Y0287315D01*
X0074267Y0285403D01*
X0075204Y0284466D01*
X0076837Y0284466D01*
X0067715Y0275343D01*
X0067715Y0272498D01*
X0067715Y0273044D02*
X0053315Y0273044D01*
X0053315Y0271446D02*
X0063837Y0271446D01*
X0063115Y0269847D02*
X0053315Y0269847D01*
X0053315Y0268248D02*
X0062620Y0268248D01*
X0061022Y0266650D02*
X0051878Y0266650D01*
X0050280Y0265051D02*
X0059423Y0265051D01*
X0057825Y0263453D02*
X0048681Y0263453D01*
X0047083Y0261854D02*
X0056226Y0261854D01*
X0056115Y0260256D02*
X0045484Y0260256D01*
X0043886Y0258657D02*
X0056115Y0258657D01*
X0056115Y0257059D02*
X0042287Y0257059D01*
X0040689Y0255460D02*
X0056115Y0255460D01*
X0056305Y0253862D02*
X0039090Y0253862D01*
X0037492Y0252263D02*
X0055267Y0252263D01*
X0054674Y0250665D02*
X0056866Y0250665D01*
X0056273Y0249066D02*
X0057971Y0249066D01*
X0057122Y0248217D02*
X0058217Y0247122D01*
X0055265Y0244170D01*
X0057391Y0242045D01*
X0057801Y0241808D01*
X0058259Y0241685D01*
X0058733Y0241685D01*
X0059191Y0241808D01*
X0059601Y0242045D01*
X0061448Y0243891D01*
X0058218Y0247122D01*
X0059313Y0248217D01*
X0061915Y0245616D01*
X0061915Y0245439D01*
X0062433Y0244189D01*
X0063389Y0243233D01*
X0064639Y0242715D01*
X0065991Y0242715D01*
X0067241Y0243233D01*
X0067715Y0243707D01*
X0067715Y0240098D01*
X0067191Y0240315D01*
X0065839Y0240315D01*
X0064589Y0239797D01*
X0063633Y0238841D01*
X0063115Y0237591D01*
X0063115Y0236239D01*
X0063633Y0234989D01*
X0064589Y0234033D01*
X0065839Y0233515D01*
X0066067Y0233515D01*
X0065430Y0232878D01*
X0064205Y0231653D01*
X0052915Y0242943D01*
X0052915Y0244907D01*
X0053722Y0245713D01*
X0054170Y0245265D01*
X0057122Y0248217D01*
X0056372Y0247468D02*
X0057871Y0247468D01*
X0058564Y0247468D02*
X0060063Y0247468D01*
X0059470Y0245869D02*
X0061661Y0245869D01*
X0061068Y0244271D02*
X0062399Y0244271D01*
X0060229Y0242672D02*
X0067715Y0242672D01*
X0067715Y0241074D02*
X0054785Y0241074D01*
X0056383Y0239475D02*
X0064267Y0239475D01*
X0063233Y0237877D02*
X0057982Y0237877D01*
X0059580Y0236278D02*
X0063115Y0236278D01*
X0063942Y0234680D02*
X0061179Y0234680D01*
X0062777Y0233081D02*
X0065633Y0233081D01*
X0065430Y0232878D02*
X0065430Y0232878D01*
X0071715Y0239163D02*
X0071715Y0244487D01*
X0074289Y0241913D01*
X0074035Y0241766D01*
X0073380Y0241112D01*
X0072725Y0240457D01*
X0072489Y0240046D01*
X0072448Y0239897D01*
X0071715Y0239163D01*
X0071715Y0239475D02*
X0072027Y0239475D01*
X0071715Y0241074D02*
X0073342Y0241074D01*
X0073418Y0241074D02*
X0073418Y0241074D01*
X0073529Y0242672D02*
X0071715Y0242672D01*
X0071715Y0244271D02*
X0071931Y0244271D01*
X0075016Y0239475D02*
X0075017Y0239475D01*
X0076615Y0237877D02*
X0076615Y0237877D01*
X0078213Y0236278D02*
X0078214Y0236278D01*
X0079812Y0234680D02*
X0079812Y0234680D01*
X0081157Y0233081D02*
X0081540Y0233081D01*
X0082194Y0231483D02*
X0098654Y0231483D01*
X0097056Y0229884D02*
X0082315Y0229884D01*
X0081494Y0228286D02*
X0095457Y0228286D01*
X0093859Y0226687D02*
X0074115Y0226687D01*
X0074115Y0225089D02*
X0092260Y0225089D01*
X0090662Y0223490D02*
X0074115Y0223490D01*
X0074115Y0221892D02*
X0090115Y0221892D01*
X0090115Y0220293D02*
X0074115Y0220293D01*
X0074115Y0218695D02*
X0090115Y0218695D01*
X0090115Y0217096D02*
X0074115Y0217096D01*
X0074115Y0215498D02*
X0090115Y0215498D01*
X0090115Y0213899D02*
X0074115Y0213899D01*
X0074115Y0212301D02*
X0090115Y0212301D01*
X0089081Y0210934D02*
X0092727Y0207288D01*
X0089081Y0210934D01*
X0088849Y0210702D02*
X0074115Y0210702D01*
X0074115Y0209104D02*
X0087534Y0209104D01*
X0089313Y0210702D02*
X0089314Y0210702D01*
X0090912Y0209104D02*
X0090912Y0209104D01*
X0092510Y0207505D02*
X0092511Y0207505D01*
X0092727Y0207288D02*
X0092727Y0207288D01*
X0092728Y0207288D01*
X0096373Y0203642D01*
X0092727Y0207288D01*
X0094109Y0205907D02*
X0094109Y0205907D01*
X0095707Y0204308D02*
X0095708Y0204308D01*
X0096373Y0203642D02*
X0097028Y0204297D01*
X0097265Y0204707D01*
X0097305Y0204857D01*
X0098725Y0206277D01*
X0102115Y0202887D01*
X0103287Y0201715D01*
X0115707Y0201715D01*
X0115233Y0201241D01*
X0114715Y0199991D01*
X0114715Y0198639D01*
X0115233Y0197389D01*
X0116115Y0196507D01*
X0116115Y0185127D01*
X0111397Y0189845D01*
X0110071Y0189845D01*
X0109165Y0188939D01*
X0096030Y0203298D01*
X0096373Y0203642D01*
X0097035Y0204308D02*
X0100693Y0204308D01*
X0099095Y0205907D02*
X0098355Y0205907D01*
X0096568Y0202710D02*
X0102292Y0202710D01*
X0099493Y0199512D02*
X0114715Y0199512D01*
X0115015Y0197914D02*
X0100955Y0197914D01*
X0102417Y0196315D02*
X0116115Y0196315D01*
X0116115Y0194717D02*
X0103880Y0194717D01*
X0105342Y0193118D02*
X0116115Y0193118D01*
X0116115Y0191520D02*
X0106804Y0191520D01*
X0108267Y0189921D02*
X0116115Y0189921D01*
X0116115Y0188323D02*
X0112919Y0188323D01*
X0114517Y0186724D02*
X0116115Y0186724D01*
X0108515Y0179293D02*
X0108515Y0177420D01*
X0107265Y0178670D01*
X0104313Y0175718D01*
X0103218Y0176813D01*
X0106170Y0179765D01*
X0104044Y0181890D01*
X0103634Y0182127D01*
X0103176Y0182250D01*
X0102702Y0182250D01*
X0102244Y0182127D01*
X0101834Y0181890D01*
X0099987Y0180044D01*
X0103217Y0176813D01*
X0102122Y0175718D01*
X0098891Y0178948D01*
X0097101Y0177157D01*
X0089315Y0184943D01*
X0089315Y0197399D01*
X0089848Y0197399D01*
X0091657Y0199209D01*
X0092639Y0200190D01*
X0105909Y0185683D01*
X0104680Y0184454D01*
X0104680Y0183128D01*
X0108515Y0179293D01*
X0108515Y0178732D02*
X0105136Y0178732D01*
X0105604Y0180330D02*
X0107477Y0180330D01*
X0105879Y0181929D02*
X0103978Y0181929D01*
X0104680Y0183527D02*
X0090731Y0183527D01*
X0089315Y0185126D02*
X0105352Y0185126D01*
X0104957Y0186724D02*
X0089315Y0186724D01*
X0089315Y0188323D02*
X0103495Y0188323D01*
X0102032Y0189921D02*
X0089315Y0189921D01*
X0089315Y0191520D02*
X0100570Y0191520D01*
X0099108Y0193118D02*
X0089315Y0193118D01*
X0089315Y0194717D02*
X0097645Y0194717D01*
X0096183Y0196315D02*
X0089315Y0196315D01*
X0090362Y0197914D02*
X0094721Y0197914D01*
X0093258Y0199512D02*
X0091961Y0199512D01*
X0098031Y0201111D02*
X0115179Y0201111D01*
X0101900Y0181929D02*
X0092329Y0181929D01*
X0093928Y0180330D02*
X0100274Y0180330D01*
X0101299Y0178732D02*
X0099107Y0178732D01*
X0098675Y0178732D02*
X0095526Y0178732D01*
X0090667Y0175535D02*
X0083923Y0175535D01*
X0082325Y0177133D02*
X0089068Y0177133D01*
X0087470Y0178732D02*
X0081715Y0178732D01*
X0081715Y0177743D02*
X0081715Y0184487D01*
X0110915Y0155287D01*
X0112087Y0154115D01*
X0115687Y0154115D01*
X0119522Y0150279D01*
X0117243Y0150279D01*
X0115978Y0149015D01*
X0119231Y0145762D01*
X0118948Y0145479D01*
X0115695Y0148732D01*
X0114431Y0147467D01*
X0114431Y0145027D01*
X0081715Y0177743D01*
X0081715Y0180330D02*
X0085871Y0180330D01*
X0084273Y0181929D02*
X0081715Y0181929D01*
X0081715Y0183527D02*
X0082674Y0183527D01*
X0077715Y0183527D02*
X0049156Y0183527D01*
X0047557Y0181929D02*
X0077715Y0181929D01*
X0077715Y0180330D02*
X0045959Y0180330D01*
X0044764Y0178732D02*
X0077715Y0178732D01*
X0077715Y0177133D02*
X0044764Y0177133D01*
X0044764Y0175535D02*
X0078267Y0175535D01*
X0079865Y0173936D02*
X0044764Y0173936D01*
X0044398Y0172338D02*
X0081464Y0172338D01*
X0083062Y0170739D02*
X0032319Y0170739D01*
X0030915Y0172338D02*
X0034832Y0172338D01*
X0034466Y0173936D02*
X0030915Y0173936D01*
X0030323Y0175535D02*
X0034466Y0175535D01*
X0034466Y0177133D02*
X0028725Y0177133D01*
X0027737Y0178732D02*
X0034466Y0178732D01*
X0037129Y0181929D02*
X0041900Y0181929D01*
X0041238Y0181266D02*
X0042735Y0182764D01*
X0040390Y0182764D01*
X0040390Y0186938D01*
X0038840Y0186938D01*
X0038840Y0182764D01*
X0036295Y0182764D01*
X0037792Y0181266D01*
X0041238Y0181266D01*
X0040390Y0183527D02*
X0038840Y0183527D01*
X0038840Y0185126D02*
X0040390Y0185126D01*
X0040390Y0186724D02*
X0038840Y0186724D01*
X0038840Y0186939D02*
X0034266Y0186939D01*
X0034266Y0184327D01*
X0034323Y0184115D01*
X0029120Y0184115D01*
X0026520Y0186715D01*
X0022710Y0186715D01*
X0022115Y0186120D01*
X0022115Y0191772D01*
X0024352Y0191772D01*
X0024352Y0196340D01*
X0025902Y0196340D01*
X0025902Y0191772D01*
X0028315Y0191772D01*
X0028315Y0191039D01*
X0028833Y0189789D01*
X0029789Y0188833D01*
X0031039Y0188315D01*
X0032391Y0188315D01*
X0033641Y0188833D01*
X0034266Y0189457D01*
X0034266Y0188488D01*
X0038840Y0188488D01*
X0038840Y0186939D01*
X0038840Y0188323D02*
X0032410Y0188323D01*
X0031019Y0188323D02*
X0022115Y0188323D01*
X0022115Y0189921D02*
X0028778Y0189921D01*
X0028315Y0191520D02*
X0022115Y0191520D01*
X0024352Y0193118D02*
X0025902Y0193118D01*
X0025902Y0194717D02*
X0024352Y0194717D01*
X0024352Y0196315D02*
X0025902Y0196315D01*
X0025902Y0197890D02*
X0024352Y0197890D01*
X0024352Y0202458D01*
X0022115Y0202458D01*
X0022115Y0206487D01*
X0022594Y0206966D01*
X0023519Y0206966D01*
X0023115Y0205991D01*
X0023115Y0204639D01*
X0023633Y0203389D01*
X0024589Y0202433D01*
X0025839Y0201915D01*
X0025902Y0201915D01*
X0025902Y0197890D01*
X0025902Y0197914D02*
X0024352Y0197914D01*
X0024352Y0199512D02*
X0025902Y0199512D01*
X0025902Y0201111D02*
X0024352Y0201111D01*
X0024312Y0202710D02*
X0022115Y0202710D01*
X0022115Y0204308D02*
X0023252Y0204308D01*
X0023115Y0205907D02*
X0022115Y0205907D01*
X0029349Y0207289D02*
X0029963Y0207903D01*
X0029963Y0213315D01*
X0043307Y0213315D01*
X0042433Y0212441D01*
X0041915Y0211191D01*
X0041915Y0209839D01*
X0042433Y0208589D01*
X0043389Y0207633D01*
X0044639Y0207115D01*
X0045991Y0207115D01*
X0047241Y0207633D01*
X0048123Y0208515D01*
X0057707Y0208515D01*
X0058589Y0207633D01*
X0059839Y0207115D01*
X0061191Y0207115D01*
X0062441Y0207633D01*
X0063397Y0208589D01*
X0063915Y0209839D01*
X0063915Y0211191D01*
X0063397Y0212441D01*
X0062523Y0213315D01*
X0062543Y0213315D01*
X0063715Y0214487D01*
X0070115Y0220887D01*
X0070115Y0210143D01*
X0044964Y0184993D01*
X0044964Y0186939D01*
X0040390Y0186939D01*
X0040390Y0188488D01*
X0044964Y0188488D01*
X0044964Y0191100D01*
X0044841Y0191558D01*
X0044605Y0191968D01*
X0044269Y0192303D01*
X0043859Y0192540D01*
X0043401Y0192663D01*
X0040390Y0192663D01*
X0040390Y0188488D01*
X0038840Y0188488D01*
X0038840Y0192663D01*
X0035829Y0192663D01*
X0035371Y0192540D01*
X0035115Y0192392D01*
X0034597Y0193641D01*
X0034515Y0193723D01*
X0034515Y0200672D01*
X0034089Y0201701D01*
X0033301Y0202489D01*
X0029915Y0205875D01*
X0029915Y0205991D01*
X0029397Y0207241D01*
X0029349Y0207289D01*
X0029565Y0207505D02*
X0043697Y0207505D01*
X0042219Y0209104D02*
X0029963Y0209104D01*
X0029963Y0210702D02*
X0041915Y0210702D01*
X0042374Y0212301D02*
X0029963Y0212301D01*
X0029915Y0205907D02*
X0065878Y0205907D01*
X0067477Y0207505D02*
X0062133Y0207505D01*
X0063610Y0209104D02*
X0069075Y0209104D01*
X0070115Y0210702D02*
X0063915Y0210702D01*
X0063455Y0212301D02*
X0070115Y0212301D01*
X0070115Y0213899D02*
X0063128Y0213899D01*
X0064726Y0215498D02*
X0070115Y0215498D01*
X0070115Y0217096D02*
X0066325Y0217096D01*
X0067923Y0218695D02*
X0070115Y0218695D01*
X0070115Y0220293D02*
X0069522Y0220293D01*
X0074856Y0228286D02*
X0076336Y0228286D01*
X0086690Y0233081D02*
X0100253Y0233081D01*
X0101088Y0234680D02*
X0101851Y0234680D01*
X0102166Y0236278D02*
X0103450Y0236278D01*
X0102315Y0237877D02*
X0105048Y0237877D01*
X0106647Y0239475D02*
X0101563Y0239475D01*
X0097985Y0241074D02*
X0108245Y0241074D01*
X0109844Y0242672D02*
X0096386Y0242672D01*
X0094788Y0244271D02*
X0111442Y0244271D01*
X0113041Y0245869D02*
X0093189Y0245869D01*
X0094038Y0247468D02*
X0113858Y0247468D01*
X0113265Y0249066D02*
X0115457Y0249066D01*
X0116568Y0249066D02*
X0118759Y0249066D01*
X0118166Y0247468D02*
X0149039Y0247468D01*
X0150638Y0249066D02*
X0131875Y0249066D01*
X0132960Y0250665D02*
X0152236Y0250665D01*
X0153835Y0252263D02*
X0133115Y0252263D01*
X0127555Y0249066D02*
X0127475Y0249066D01*
X0123155Y0249066D02*
X0121361Y0249066D01*
X0118654Y0252263D02*
X0116462Y0252263D01*
X0116012Y0251813D02*
X0119243Y0255044D01*
X0117396Y0256890D01*
X0116986Y0257127D01*
X0116528Y0257250D01*
X0116054Y0257250D01*
X0115596Y0257127D01*
X0115186Y0256890D01*
X0113060Y0254765D01*
X0116012Y0251813D01*
X0115562Y0252263D02*
X0113371Y0252263D01*
X0113964Y0253862D02*
X0110284Y0253862D01*
X0110558Y0252263D02*
X0108685Y0252263D01*
X0107193Y0252263D02*
X0099116Y0252263D01*
X0098419Y0252263D02*
X0098419Y0252263D01*
X0097518Y0250665D02*
X0109480Y0250665D01*
X0110107Y0249066D02*
X0095636Y0249066D01*
X0096398Y0250665D02*
X0096398Y0250665D01*
X0094800Y0252263D02*
X0094800Y0252263D01*
X0093312Y0253751D02*
X0093312Y0253751D01*
X0089666Y0257397D01*
X0093312Y0253751D01*
X0093312Y0253751D01*
X0095072Y0255511D01*
X0095072Y0255511D01*
X0095122Y0255561D01*
X0095121Y0255561D01*
X0093362Y0253801D01*
X0093312Y0253751D01*
X0093362Y0253801D02*
X0093362Y0253801D01*
X0093423Y0253862D02*
X0093423Y0253862D01*
X0093201Y0253862D02*
X0093201Y0253862D01*
X0091603Y0255460D02*
X0091603Y0255460D01*
X0090004Y0257059D02*
X0090004Y0257059D01*
X0090926Y0258657D02*
X0088039Y0258657D01*
X0086441Y0260256D02*
X0092807Y0260256D01*
X0092025Y0258657D02*
X0092025Y0258657D01*
X0093623Y0257059D02*
X0093623Y0257059D01*
X0095021Y0255460D02*
X0095021Y0255460D01*
X0095222Y0255460D02*
X0095222Y0255460D01*
X0096820Y0253862D02*
X0096820Y0253862D01*
X0100432Y0253862D02*
X0105594Y0253862D01*
X0103996Y0255460D02*
X0101391Y0255460D01*
X0103244Y0260256D02*
X0097283Y0260256D01*
X0104843Y0261854D02*
X0084842Y0261854D01*
X0083244Y0263453D02*
X0106441Y0263453D01*
X0110551Y0263453D02*
X0123315Y0263453D01*
X0123315Y0265051D02*
X0082050Y0265051D01*
X0081502Y0266650D02*
X0123315Y0266650D01*
X0123315Y0268248D02*
X0085805Y0268248D01*
X0086082Y0269847D02*
X0123315Y0269847D01*
X0123315Y0261854D02*
X0112149Y0261854D01*
X0113748Y0260256D02*
X0123315Y0260256D01*
X0123315Y0258657D02*
X0114550Y0258657D01*
X0115477Y0257059D02*
X0113481Y0257059D01*
X0113755Y0255460D02*
X0111882Y0255460D01*
X0117104Y0257059D02*
X0123315Y0257059D01*
X0123315Y0255460D02*
X0118826Y0255460D01*
X0118061Y0253862D02*
X0120253Y0253862D01*
X0120425Y0253862D02*
X0122654Y0253862D01*
X0117161Y0250665D02*
X0117056Y0250665D01*
X0114969Y0250665D02*
X0114864Y0250665D01*
X0095664Y0236278D02*
X0093507Y0236278D01*
X0093715Y0237877D02*
X0095515Y0237877D01*
X0093926Y0239475D02*
X0093715Y0239475D01*
X0091908Y0234680D02*
X0096742Y0234680D01*
X0083477Y0207505D02*
X0073133Y0207505D01*
X0071535Y0205907D02*
X0081878Y0205907D01*
X0078056Y0204308D02*
X0069936Y0204308D01*
X0068338Y0202710D02*
X0076612Y0202710D01*
X0076315Y0201111D02*
X0066739Y0201111D01*
X0065141Y0199512D02*
X0076781Y0199512D01*
X0077715Y0197914D02*
X0063542Y0197914D01*
X0061944Y0196315D02*
X0077715Y0196315D01*
X0077715Y0194717D02*
X0060345Y0194717D01*
X0058747Y0193118D02*
X0077715Y0193118D01*
X0077715Y0191520D02*
X0057148Y0191520D01*
X0055550Y0189921D02*
X0077715Y0189921D01*
X0077715Y0188323D02*
X0053951Y0188323D01*
X0052353Y0186724D02*
X0077715Y0186724D01*
X0077715Y0185126D02*
X0050754Y0185126D01*
X0048295Y0188323D02*
X0040390Y0188323D01*
X0040390Y0189921D02*
X0038840Y0189921D01*
X0038840Y0191520D02*
X0040390Y0191520D01*
X0044852Y0191520D02*
X0051492Y0191520D01*
X0053090Y0193118D02*
X0034814Y0193118D01*
X0034515Y0194717D02*
X0054689Y0194717D01*
X0056287Y0196315D02*
X0034515Y0196315D01*
X0034515Y0197914D02*
X0057886Y0197914D01*
X0059484Y0199512D02*
X0034515Y0199512D01*
X0034333Y0201111D02*
X0061083Y0201111D01*
X0062681Y0202710D02*
X0033080Y0202710D01*
X0031482Y0204308D02*
X0064280Y0204308D01*
X0058897Y0207505D02*
X0046933Y0207505D01*
X0044964Y0189921D02*
X0049893Y0189921D01*
X0046696Y0186724D02*
X0044964Y0186724D01*
X0044964Y0185126D02*
X0045097Y0185126D01*
X0034266Y0185126D02*
X0028109Y0185126D01*
X0022115Y0186724D02*
X0034266Y0186724D01*
X0020668Y0177133D02*
X0012115Y0177133D01*
X0017700Y0175535D02*
X0021247Y0175535D01*
X0019815Y0173936D02*
X0019215Y0173936D01*
X0019215Y0172338D02*
X0019815Y0172338D01*
X0019815Y0170739D02*
X0019215Y0170739D01*
X0018146Y0169141D02*
X0020801Y0169141D01*
X0012682Y0167542D02*
X0012115Y0167542D01*
X0012115Y0157951D02*
X0012273Y0157951D01*
X0012347Y0156353D02*
X0012115Y0156353D01*
X0018072Y0145163D02*
X0020875Y0145163D01*
X0019815Y0143565D02*
X0019215Y0143565D01*
X0028057Y0138769D02*
X0031432Y0138769D01*
X0029834Y0140368D02*
X0029415Y0140368D01*
X0032294Y0143565D02*
X0035201Y0143565D01*
X0034466Y0141966D02*
X0033892Y0141966D01*
X0021284Y0135572D02*
X0017663Y0135572D01*
X0019215Y0133974D02*
X0019815Y0133974D01*
X0019815Y0132375D02*
X0019215Y0132375D01*
X0019215Y0130777D02*
X0019815Y0130777D01*
X0020764Y0129178D02*
X0018183Y0129178D01*
X0046706Y0156353D02*
X0097449Y0156353D01*
X0095850Y0157951D02*
X0045107Y0157951D01*
X0043509Y0159550D02*
X0094252Y0159550D01*
X0092653Y0161148D02*
X0041910Y0161148D01*
X0040312Y0162747D02*
X0091055Y0162747D01*
X0089456Y0164345D02*
X0038713Y0164345D01*
X0037115Y0165944D02*
X0087858Y0165944D01*
X0086259Y0167542D02*
X0035516Y0167542D01*
X0033918Y0169141D02*
X0084661Y0169141D01*
X0087121Y0172338D02*
X0093864Y0172338D01*
X0095462Y0170739D02*
X0088719Y0170739D01*
X0090318Y0169141D02*
X0097061Y0169141D01*
X0098659Y0167542D02*
X0091916Y0167542D01*
X0093515Y0165944D02*
X0100258Y0165944D01*
X0101856Y0164345D02*
X0095113Y0164345D01*
X0096712Y0162747D02*
X0103455Y0162747D01*
X0105053Y0161148D02*
X0098310Y0161148D01*
X0099909Y0159550D02*
X0106652Y0159550D01*
X0108250Y0157951D02*
X0101507Y0157951D01*
X0103106Y0156353D02*
X0109849Y0156353D01*
X0111447Y0154754D02*
X0104704Y0154754D01*
X0106303Y0153156D02*
X0116646Y0153156D01*
X0118244Y0151557D02*
X0107901Y0151557D01*
X0109500Y0149959D02*
X0116922Y0149959D01*
X0116633Y0148360D02*
X0116067Y0148360D01*
X0115324Y0148360D02*
X0111098Y0148360D01*
X0112697Y0146762D02*
X0114431Y0146762D01*
X0114431Y0145163D02*
X0114295Y0145163D01*
X0117666Y0146762D02*
X0118231Y0146762D01*
X0119264Y0145163D02*
X0119830Y0145163D01*
X0110237Y0143565D02*
X0059494Y0143565D01*
X0057895Y0145163D02*
X0108638Y0145163D01*
X0107040Y0146762D02*
X0056297Y0146762D01*
X0054698Y0148360D02*
X0105441Y0148360D01*
X0103843Y0149959D02*
X0053100Y0149959D01*
X0051501Y0151557D02*
X0102244Y0151557D01*
X0100646Y0153156D02*
X0049903Y0153156D01*
X0048304Y0154754D02*
X0099047Y0154754D01*
X0108652Y0165606D02*
X0104657Y0169601D01*
X0106448Y0171391D01*
X0103218Y0174622D01*
X0104313Y0175717D01*
X0107544Y0172487D01*
X0108515Y0173458D01*
X0108515Y0172758D01*
X0108941Y0171729D01*
X0109729Y0170941D01*
X0110115Y0170555D01*
X0110115Y0167132D01*
X0109789Y0166997D01*
X0108833Y0166041D01*
X0108652Y0165606D01*
X0108792Y0165944D02*
X0108315Y0165944D01*
X0106716Y0167542D02*
X0110115Y0167542D01*
X0110115Y0169141D02*
X0105118Y0169141D01*
X0105796Y0170739D02*
X0109931Y0170739D01*
X0109729Y0170941D02*
X0109729Y0170941D01*
X0108689Y0172338D02*
X0105501Y0172338D01*
X0106094Y0173936D02*
X0103903Y0173936D01*
X0104131Y0175535D02*
X0104496Y0175535D01*
X0103538Y0177133D02*
X0105729Y0177133D01*
X0102897Y0177133D02*
X0100706Y0177133D01*
X0092265Y0173936D02*
X0085522Y0173936D01*
X0109212Y0141966D02*
X0061092Y0141966D01*
X0062691Y0140368D02*
X0107614Y0140368D01*
X0107560Y0138769D02*
X0064289Y0138769D01*
X0065888Y0137171D02*
X0107560Y0137171D01*
X0108491Y0135572D02*
X0067486Y0135572D01*
X0069085Y0133974D02*
X0109715Y0133974D01*
X0109715Y0132375D02*
X0070683Y0132375D01*
X0072282Y0130777D02*
X0109715Y0130777D01*
X0109715Y0129178D02*
X0073880Y0129178D01*
X0075479Y0127579D02*
X0109715Y0127579D01*
X0110037Y0125981D02*
X0077077Y0125981D01*
X0078676Y0124382D02*
X0111488Y0124382D01*
X0113086Y0122784D02*
X0080274Y0122784D01*
X0081873Y0121185D02*
X0114051Y0121185D01*
X0112453Y0119587D02*
X0093325Y0119587D01*
X0094924Y0117988D02*
X0110854Y0117988D01*
X0125485Y0133974D02*
X0126115Y0133974D01*
X0126115Y0135572D02*
X0123886Y0135572D01*
X0136626Y0141966D02*
X0137191Y0141966D01*
X0141421Y0137171D02*
X0141987Y0137171D01*
X0142360Y0135572D02*
X0157715Y0135572D01*
X0157715Y0133974D02*
X0137166Y0133974D01*
X0137166Y0132375D02*
X0157715Y0132375D01*
X0157715Y0130777D02*
X0137166Y0130777D01*
X0143959Y0137171D02*
X0157715Y0137171D01*
X0157715Y0138769D02*
X0144237Y0138769D01*
X0144237Y0140368D02*
X0157715Y0140368D01*
X0157715Y0141966D02*
X0148754Y0141966D01*
X0144262Y0141966D02*
X0143697Y0141966D01*
X0141708Y0146762D02*
X0140669Y0146762D01*
X0141115Y0148360D02*
X0141708Y0148360D01*
X0140797Y0149959D02*
X0143341Y0149959D01*
X0144374Y0148360D02*
X0144939Y0148360D01*
X0163315Y0148360D02*
X0214515Y0148360D01*
X0214515Y0146762D02*
X0210358Y0146762D01*
X0209473Y0147647D02*
X0209062Y0147884D01*
X0208605Y0148007D01*
X0208131Y0148007D01*
X0207673Y0147884D01*
X0207262Y0147647D01*
X0191653Y0132038D01*
X0206280Y0117411D01*
X0205148Y0116280D01*
X0190522Y0130906D01*
X0174913Y0115297D01*
X0174676Y0114887D01*
X0174553Y0114429D01*
X0174553Y0113955D01*
X0174676Y0113497D01*
X0174913Y0113087D01*
X0188434Y0099565D01*
X0205148Y0116280D01*
X0206280Y0115148D01*
X0207411Y0116280D01*
X0222038Y0101653D01*
X0236927Y0116543D01*
X0240915Y0112555D01*
X0240915Y0104811D01*
X0239315Y0106411D01*
X0237989Y0106411D01*
X0234506Y0102928D01*
X0234506Y0101674D01*
X0233252Y0101674D01*
X0229769Y0098191D01*
X0229769Y0097041D01*
X0229414Y0097136D01*
X0228940Y0097136D01*
X0228482Y0097013D01*
X0228071Y0096776D01*
X0226702Y0095407D01*
X0234268Y0087841D01*
X0234126Y0087699D01*
X0226560Y0095265D01*
X0225191Y0093896D01*
X0224954Y0093485D01*
X0224831Y0093027D01*
X0224831Y0092553D01*
X0224926Y0092198D01*
X0223776Y0092198D01*
X0220293Y0088716D01*
X0220293Y0087461D01*
X0219039Y0087461D01*
X0215556Y0083978D01*
X0215556Y0082652D01*
X0220124Y0078084D01*
X0210955Y0068915D01*
X0200927Y0068915D01*
X0205123Y0073112D01*
X0205123Y0074437D01*
X0200115Y0079445D01*
X0200115Y0081743D01*
X0198943Y0082915D01*
X0180543Y0101315D01*
X0176853Y0101315D01*
X0172906Y0105263D01*
X0171580Y0105263D01*
X0166467Y0100149D01*
X0166467Y0098824D01*
X0171580Y0093711D01*
X0172906Y0093711D01*
X0176510Y0097315D01*
X0178887Y0097315D01*
X0180862Y0095340D01*
X0179104Y0093582D01*
X0181987Y0090700D01*
X0181030Y0089743D01*
X0181987Y0088787D01*
X0182943Y0089743D01*
X0185826Y0086861D01*
X0187583Y0088618D01*
X0189595Y0086607D01*
X0187103Y0084115D01*
X0183071Y0084115D01*
X0183092Y0084127D01*
X0184869Y0085904D01*
X0181987Y0088787D01*
X0179104Y0085904D01*
X0180882Y0084127D01*
X0180902Y0084115D01*
X0178875Y0084115D01*
X0162515Y0100475D01*
X0162515Y0101355D01*
X0162889Y0101729D01*
X0163315Y0102758D01*
X0163315Y0156810D01*
X0165250Y0158745D01*
X0165250Y0162556D01*
X0163715Y0164091D01*
X0163715Y0165223D01*
X0165816Y0163122D01*
X0169627Y0163122D01*
X0172322Y0165816D01*
X0172322Y0168362D01*
X0174152Y0170193D01*
X0176698Y0170193D01*
X0179393Y0172887D01*
X0179393Y0176698D01*
X0176698Y0179393D01*
X0176152Y0179393D01*
X0177264Y0180504D01*
X0177264Y0179958D01*
X0179958Y0177264D01*
X0183769Y0177264D01*
X0186464Y0179958D01*
X0186464Y0183769D01*
X0183769Y0186464D01*
X0183223Y0186464D01*
X0184335Y0187575D01*
X0184335Y0187029D01*
X0187029Y0184335D01*
X0190840Y0184335D01*
X0193535Y0187029D01*
X0193535Y0190840D01*
X0190840Y0193535D01*
X0190295Y0193535D01*
X0214489Y0217729D01*
X0214515Y0217792D01*
X0214515Y0142605D01*
X0209473Y0147647D01*
X0206377Y0146762D02*
X0163315Y0146762D01*
X0163315Y0145163D02*
X0204779Y0145163D01*
X0203180Y0143565D02*
X0163315Y0143565D01*
X0163315Y0141966D02*
X0201582Y0141966D01*
X0199983Y0140368D02*
X0163315Y0140368D01*
X0163315Y0138769D02*
X0198385Y0138769D01*
X0196786Y0137171D02*
X0163315Y0137171D01*
X0163315Y0135572D02*
X0195188Y0135572D01*
X0193589Y0133974D02*
X0163315Y0133974D01*
X0163315Y0132375D02*
X0191991Y0132375D01*
X0192914Y0130777D02*
X0190652Y0130777D01*
X0190392Y0130777D02*
X0163315Y0130777D01*
X0163315Y0129178D02*
X0188794Y0129178D01*
X0187195Y0127579D02*
X0163315Y0127579D01*
X0163315Y0125981D02*
X0185597Y0125981D01*
X0183998Y0124382D02*
X0163315Y0124382D01*
X0163315Y0122784D02*
X0182400Y0122784D01*
X0180801Y0121185D02*
X0163315Y0121185D01*
X0163315Y0119587D02*
X0179203Y0119587D01*
X0177604Y0117988D02*
X0163315Y0117988D01*
X0163315Y0116390D02*
X0176005Y0116390D01*
X0174650Y0114791D02*
X0163315Y0114791D01*
X0163315Y0113193D02*
X0174851Y0113193D01*
X0176405Y0111594D02*
X0163315Y0111594D01*
X0163315Y0109996D02*
X0178003Y0109996D01*
X0179602Y0108397D02*
X0163315Y0108397D01*
X0163315Y0106799D02*
X0181200Y0106799D01*
X0182799Y0105200D02*
X0172968Y0105200D01*
X0171518Y0105200D02*
X0163315Y0105200D01*
X0163315Y0103602D02*
X0169920Y0103602D01*
X0168321Y0102003D02*
X0163002Y0102003D01*
X0162585Y0100405D02*
X0166723Y0100405D01*
X0166485Y0098806D02*
X0164183Y0098806D01*
X0165782Y0097208D02*
X0168084Y0097208D01*
X0167380Y0095609D02*
X0169682Y0095609D01*
X0168979Y0094011D02*
X0171281Y0094011D01*
X0170577Y0092412D02*
X0177934Y0092412D01*
X0178148Y0092626D02*
X0176371Y0090848D01*
X0176134Y0090438D01*
X0176011Y0089980D01*
X0176011Y0089506D01*
X0176134Y0089048D01*
X0176371Y0088638D01*
X0178148Y0086861D01*
X0181030Y0089743D01*
X0178148Y0092626D01*
X0178361Y0092412D02*
X0180274Y0092412D01*
X0179960Y0090814D02*
X0181873Y0090814D01*
X0181558Y0089215D02*
X0180502Y0089215D01*
X0180817Y0087617D02*
X0178904Y0087617D01*
X0177392Y0087617D02*
X0175373Y0087617D01*
X0176089Y0089215D02*
X0173774Y0089215D01*
X0172176Y0090814D02*
X0176351Y0090814D01*
X0173206Y0094011D02*
X0179533Y0094011D01*
X0180592Y0095609D02*
X0174804Y0095609D01*
X0176403Y0097208D02*
X0178994Y0097208D01*
X0181454Y0100405D02*
X0187595Y0100405D01*
X0189273Y0100405D02*
X0191536Y0100405D01*
X0190872Y0102003D02*
X0193135Y0102003D01*
X0192470Y0103602D02*
X0194733Y0103602D01*
X0194069Y0105200D02*
X0196332Y0105200D01*
X0195667Y0106799D02*
X0197930Y0106799D01*
X0197266Y0108397D02*
X0199529Y0108397D01*
X0198865Y0109996D02*
X0201127Y0109996D01*
X0200463Y0111594D02*
X0202726Y0111594D01*
X0202062Y0113193D02*
X0204324Y0113193D01*
X0203660Y0114791D02*
X0205923Y0114791D01*
X0206280Y0115148D02*
X0189565Y0098434D01*
X0203087Y0084913D01*
X0203497Y0084676D01*
X0203955Y0084553D01*
X0204429Y0084553D01*
X0204887Y0084676D01*
X0205297Y0084913D01*
X0220906Y0100522D01*
X0206280Y0115148D01*
X0206637Y0114791D02*
X0208899Y0114791D01*
X0208235Y0113193D02*
X0210498Y0113193D01*
X0209834Y0111594D02*
X0212097Y0111594D01*
X0211432Y0109996D02*
X0213695Y0109996D01*
X0213031Y0108397D02*
X0215294Y0108397D01*
X0214629Y0106799D02*
X0216892Y0106799D01*
X0216228Y0105200D02*
X0218491Y0105200D01*
X0217826Y0103602D02*
X0220089Y0103602D01*
X0219425Y0102003D02*
X0221688Y0102003D01*
X0222388Y0102003D02*
X0234506Y0102003D01*
X0235180Y0103602D02*
X0223986Y0103602D01*
X0225585Y0105200D02*
X0236778Y0105200D01*
X0240526Y0105200D02*
X0240915Y0105200D01*
X0240915Y0106799D02*
X0227183Y0106799D01*
X0228782Y0108397D02*
X0240915Y0108397D01*
X0240915Y0109996D02*
X0230380Y0109996D01*
X0231979Y0111594D02*
X0240915Y0111594D01*
X0240277Y0113193D02*
X0233577Y0113193D01*
X0235176Y0114791D02*
X0238679Y0114791D01*
X0237080Y0116390D02*
X0236774Y0116390D01*
X0241803Y0119587D02*
X0311961Y0119587D01*
X0311961Y0121185D02*
X0240204Y0121185D01*
X0238606Y0122784D02*
X0311961Y0122784D01*
X0311961Y0124382D02*
X0237007Y0124382D01*
X0235409Y0125981D02*
X0311961Y0125981D01*
X0311961Y0127579D02*
X0233810Y0127579D01*
X0232212Y0129178D02*
X0311961Y0129178D01*
X0311961Y0130777D02*
X0230613Y0130777D01*
X0229015Y0132375D02*
X0311961Y0132375D01*
X0311961Y0133974D02*
X0227416Y0133974D01*
X0225818Y0135572D02*
X0311961Y0135572D01*
X0311961Y0137171D02*
X0224219Y0137171D01*
X0222621Y0138769D02*
X0311961Y0138769D01*
X0311961Y0140368D02*
X0221022Y0140368D01*
X0220115Y0141966D02*
X0311961Y0141966D01*
X0311961Y0143565D02*
X0220115Y0143565D01*
X0220115Y0145163D02*
X0311961Y0145163D01*
X0311961Y0146762D02*
X0220115Y0146762D01*
X0220115Y0148360D02*
X0311961Y0148360D01*
X0311961Y0149959D02*
X0220115Y0149959D01*
X0220115Y0151557D02*
X0311961Y0151557D01*
X0311961Y0153156D02*
X0220115Y0153156D01*
X0220115Y0154754D02*
X0311961Y0154754D01*
X0311961Y0156353D02*
X0220115Y0156353D01*
X0220115Y0157951D02*
X0311961Y0157951D01*
X0311961Y0159550D02*
X0220115Y0159550D01*
X0220115Y0161148D02*
X0311961Y0161148D01*
X0311961Y0162747D02*
X0220115Y0162747D01*
X0220115Y0164345D02*
X0311961Y0164345D01*
X0311961Y0165944D02*
X0220115Y0165944D01*
X0220115Y0167542D02*
X0311961Y0167542D01*
X0311961Y0169141D02*
X0220115Y0169141D01*
X0220115Y0170739D02*
X0311961Y0170739D01*
X0311961Y0172338D02*
X0220115Y0172338D01*
X0220115Y0173936D02*
X0311961Y0173936D01*
X0311961Y0175535D02*
X0220115Y0175535D01*
X0220115Y0177133D02*
X0311961Y0177133D01*
X0311961Y0178732D02*
X0220115Y0178732D01*
X0220115Y0180330D02*
X0311961Y0180330D01*
X0311961Y0181929D02*
X0220115Y0181929D01*
X0220115Y0183527D02*
X0311961Y0183527D01*
X0311961Y0185126D02*
X0220115Y0185126D01*
X0220115Y0186724D02*
X0311961Y0186724D01*
X0311961Y0188323D02*
X0220115Y0188323D01*
X0220115Y0189921D02*
X0311961Y0189921D01*
X0311961Y0191520D02*
X0220115Y0191520D01*
X0220115Y0193118D02*
X0311961Y0193118D01*
X0311961Y0194717D02*
X0220115Y0194717D01*
X0220115Y0196315D02*
X0311961Y0196315D01*
X0311961Y0197914D02*
X0220115Y0197914D01*
X0220115Y0199512D02*
X0311961Y0199512D01*
X0311961Y0201111D02*
X0220115Y0201111D01*
X0220115Y0202710D02*
X0311961Y0202710D01*
X0311961Y0204308D02*
X0220115Y0204308D01*
X0220115Y0205907D02*
X0311961Y0205907D01*
X0311961Y0207505D02*
X0220115Y0207505D01*
X0220115Y0209104D02*
X0311961Y0209104D01*
X0311961Y0210702D02*
X0220115Y0210702D01*
X0220115Y0212301D02*
X0311961Y0212301D01*
X0311961Y0213899D02*
X0220115Y0213899D01*
X0220115Y0215498D02*
X0311961Y0215498D01*
X0311961Y0217096D02*
X0220115Y0217096D01*
X0220115Y0218695D02*
X0311961Y0218695D01*
X0311961Y0220293D02*
X0220115Y0220293D01*
X0220115Y0221892D02*
X0311961Y0221892D01*
X0311961Y0223490D02*
X0220115Y0223490D01*
X0220115Y0225089D02*
X0284437Y0225089D01*
X0284388Y0225172D02*
X0284625Y0224762D01*
X0284961Y0224427D01*
X0285371Y0224190D01*
X0285829Y0224067D01*
X0288840Y0224067D01*
X0288840Y0228242D01*
X0284266Y0228242D01*
X0284266Y0225630D01*
X0284388Y0225172D01*
X0284266Y0226687D02*
X0220115Y0226687D01*
X0220115Y0228286D02*
X0288840Y0228286D01*
X0288840Y0228242D02*
X0288840Y0229791D01*
X0284266Y0229791D01*
X0284266Y0232403D01*
X0284388Y0232861D01*
X0284625Y0233271D01*
X0284961Y0233606D01*
X0285371Y0233843D01*
X0285829Y0233966D01*
X0288840Y0233966D01*
X0288840Y0229791D01*
X0290390Y0229791D01*
X0294964Y0229791D01*
X0294964Y0232403D01*
X0294841Y0232861D01*
X0294605Y0233271D01*
X0294269Y0233606D01*
X0293859Y0233843D01*
X0293401Y0233966D01*
X0290390Y0233966D01*
X0290390Y0229791D01*
X0290390Y0228242D01*
X0294964Y0228242D01*
X0294964Y0225630D01*
X0294841Y0225172D01*
X0294605Y0224762D01*
X0294269Y0224427D01*
X0293859Y0224190D01*
X0293401Y0224067D01*
X0290390Y0224067D01*
X0290390Y0228242D01*
X0288840Y0228242D01*
X0290390Y0228286D02*
X0311961Y0228286D01*
X0311961Y0229884D02*
X0294964Y0229884D01*
X0294964Y0231483D02*
X0311961Y0231483D01*
X0311961Y0233081D02*
X0294714Y0233081D01*
X0294641Y0236278D02*
X0301163Y0236278D01*
X0299815Y0237627D02*
X0302627Y0234815D01*
X0304415Y0234815D01*
X0304415Y0239415D01*
X0304815Y0239415D01*
X0304815Y0239815D01*
X0309415Y0239815D01*
X0309415Y0241603D01*
X0306603Y0244415D01*
X0304815Y0244415D01*
X0304815Y0239815D01*
X0304415Y0239815D01*
X0304415Y0244415D01*
X0302627Y0244415D01*
X0299815Y0241603D01*
X0299815Y0239815D01*
X0304415Y0239815D01*
X0304415Y0239415D01*
X0299815Y0239415D01*
X0299815Y0237627D01*
X0299815Y0237877D02*
X0294764Y0237877D01*
X0294764Y0239475D02*
X0304415Y0239475D01*
X0304815Y0239475D02*
X0311961Y0239475D01*
X0311961Y0237877D02*
X0309415Y0237877D01*
X0309415Y0237627D02*
X0309415Y0239415D01*
X0304815Y0239415D01*
X0304815Y0234815D01*
X0306603Y0234815D01*
X0309415Y0237627D01*
X0308066Y0236278D02*
X0311961Y0236278D01*
X0311961Y0234680D02*
X0220115Y0234680D01*
X0220115Y0236278D02*
X0284589Y0236278D01*
X0284466Y0237877D02*
X0220115Y0237877D01*
X0220115Y0239475D02*
X0284326Y0239475D01*
X0282728Y0241074D02*
X0220115Y0241074D01*
X0220115Y0242672D02*
X0281129Y0242672D01*
X0279531Y0244271D02*
X0220115Y0244271D01*
X0220115Y0245869D02*
X0277932Y0245869D01*
X0276334Y0247468D02*
X0220115Y0247468D01*
X0220115Y0249066D02*
X0274735Y0249066D01*
X0273137Y0250665D02*
X0220115Y0250665D01*
X0220115Y0252263D02*
X0271538Y0252263D01*
X0269940Y0253862D02*
X0220115Y0253862D01*
X0220115Y0255460D02*
X0268341Y0255460D01*
X0266743Y0257059D02*
X0220115Y0257059D01*
X0220115Y0258657D02*
X0265144Y0258657D01*
X0263546Y0260256D02*
X0220115Y0260256D01*
X0220115Y0261854D02*
X0261947Y0261854D01*
X0260349Y0263453D02*
X0220115Y0263453D01*
X0220115Y0265051D02*
X0258750Y0265051D01*
X0257152Y0266650D02*
X0220115Y0266650D01*
X0220115Y0268248D02*
X0255553Y0268248D01*
X0253954Y0269847D02*
X0220115Y0269847D01*
X0220115Y0271446D02*
X0252356Y0271446D01*
X0250757Y0273044D02*
X0220115Y0273044D01*
X0220115Y0274643D02*
X0237890Y0274643D01*
X0237835Y0274850D02*
X0237957Y0274393D01*
X0238194Y0273982D01*
X0238529Y0273647D01*
X0238940Y0273410D01*
X0239398Y0273287D01*
X0241997Y0273287D01*
X0244596Y0273287D01*
X0245054Y0273410D01*
X0245464Y0273647D01*
X0245799Y0273982D01*
X0246036Y0274393D01*
X0246159Y0274850D01*
X0246159Y0275875D01*
X0246159Y0276899D01*
X0246036Y0277357D01*
X0245799Y0277767D01*
X0245464Y0278103D01*
X0245054Y0278340D01*
X0244596Y0278462D01*
X0241997Y0278462D01*
X0241997Y0275875D01*
X0241997Y0275875D01*
X0246159Y0275875D01*
X0241997Y0275875D01*
X0241997Y0275875D01*
X0241997Y0278462D01*
X0239398Y0278462D01*
X0238940Y0278340D01*
X0238529Y0278103D01*
X0238194Y0277767D01*
X0237957Y0277357D01*
X0237835Y0276899D01*
X0237835Y0275875D01*
X0241997Y0275875D01*
X0241997Y0275875D01*
X0241997Y0273287D01*
X0241997Y0275875D01*
X0241997Y0275875D01*
X0237835Y0275875D01*
X0237835Y0274850D01*
X0237835Y0276241D02*
X0220115Y0276241D01*
X0220115Y0277840D02*
X0238266Y0277840D01*
X0238903Y0281037D02*
X0220115Y0281037D01*
X0220115Y0282635D02*
X0238035Y0282635D01*
X0238035Y0284234D02*
X0220115Y0284234D01*
X0220115Y0285832D02*
X0251872Y0285832D01*
X0250274Y0284234D02*
X0245959Y0284234D01*
X0246823Y0282635D02*
X0249715Y0282635D01*
X0245962Y0277840D02*
X0245727Y0277840D01*
X0246159Y0276241D02*
X0247560Y0276241D01*
X0246103Y0274643D02*
X0249159Y0274643D01*
X0244363Y0279438D02*
X0220115Y0279438D01*
X0220115Y0287431D02*
X0253471Y0287431D01*
X0254841Y0289029D02*
X0220115Y0289029D01*
X0220115Y0290628D02*
X0253242Y0290628D01*
X0251644Y0292226D02*
X0221232Y0292226D01*
X0221715Y0293825D02*
X0250045Y0293825D01*
X0248447Y0295423D02*
X0221715Y0295423D01*
X0221214Y0297022D02*
X0238035Y0297022D01*
X0238035Y0298620D02*
X0219615Y0298620D01*
X0218501Y0299341D02*
X0218501Y0299341D01*
X0219326Y0300219D02*
X0238428Y0300219D01*
X0240454Y0303416D02*
X0221715Y0303416D01*
X0221715Y0305014D02*
X0238035Y0305014D01*
X0238035Y0306613D02*
X0221623Y0306613D01*
X0220024Y0308211D02*
X0238941Y0308211D01*
X0245053Y0308211D02*
X0260015Y0308211D01*
X0260015Y0306613D02*
X0245959Y0306613D01*
X0246775Y0305014D02*
X0260015Y0305014D01*
X0269215Y0308211D02*
X0290425Y0308211D01*
X0288271Y0306613D02*
X0270601Y0306613D01*
X0271689Y0305701D02*
X0271689Y0305701D01*
X0272375Y0305014D02*
X0286683Y0305014D01*
X0285760Y0303416D02*
X0273974Y0303416D01*
X0275572Y0301817D02*
X0284919Y0301817D01*
X0284491Y0300219D02*
X0277171Y0300219D01*
X0278769Y0298620D02*
X0284106Y0298620D01*
X0284106Y0297022D02*
X0280368Y0297022D01*
X0281967Y0295423D02*
X0284106Y0295423D01*
X0284520Y0293825D02*
X0283565Y0293825D01*
X0294491Y0309810D02*
X0154849Y0309810D01*
X0153250Y0311408D02*
X0298191Y0311408D01*
X0296352Y0266650D02*
X0294764Y0266650D01*
X0294764Y0265051D02*
X0297950Y0265051D01*
X0299549Y0263453D02*
X0294316Y0263453D01*
X0295604Y0261854D02*
X0300015Y0261854D01*
X0300015Y0260256D02*
X0296515Y0260256D01*
X0296515Y0258657D02*
X0300015Y0258657D01*
X0300015Y0257059D02*
X0296515Y0257059D01*
X0296515Y0255460D02*
X0300507Y0255460D01*
X0302357Y0253862D02*
X0296515Y0253862D01*
X0296515Y0252263D02*
X0300758Y0252263D01*
X0300015Y0250665D02*
X0296515Y0250665D01*
X0296515Y0249066D02*
X0300015Y0249066D01*
X0300257Y0247468D02*
X0296515Y0247468D01*
X0296515Y0245869D02*
X0301855Y0245869D01*
X0302483Y0244271D02*
X0296299Y0244271D01*
X0294764Y0242672D02*
X0300884Y0242672D01*
X0299815Y0241074D02*
X0294764Y0241074D01*
X0290390Y0233081D02*
X0288840Y0233081D01*
X0288840Y0231483D02*
X0290390Y0231483D01*
X0290390Y0229884D02*
X0288840Y0229884D01*
X0288840Y0226687D02*
X0290390Y0226687D01*
X0290390Y0225089D02*
X0288840Y0225089D01*
X0294793Y0225089D02*
X0311961Y0225089D01*
X0311961Y0226687D02*
X0294964Y0226687D01*
X0284266Y0229884D02*
X0220115Y0229884D01*
X0220115Y0231483D02*
X0284266Y0231483D01*
X0284516Y0233081D02*
X0220115Y0233081D01*
X0214515Y0217096D02*
X0213856Y0217096D01*
X0214515Y0215498D02*
X0212257Y0215498D01*
X0210659Y0213899D02*
X0214515Y0213899D01*
X0214515Y0212301D02*
X0209060Y0212301D01*
X0207462Y0210702D02*
X0214515Y0210702D01*
X0214515Y0209104D02*
X0205863Y0209104D01*
X0204265Y0207505D02*
X0214515Y0207505D01*
X0214515Y0205907D02*
X0202666Y0205907D01*
X0201068Y0204308D02*
X0214515Y0204308D01*
X0214515Y0202710D02*
X0199469Y0202710D01*
X0197871Y0201111D02*
X0214515Y0201111D01*
X0214515Y0199512D02*
X0196272Y0199512D01*
X0194674Y0197914D02*
X0214515Y0197914D01*
X0214515Y0196315D02*
X0193075Y0196315D01*
X0191477Y0194717D02*
X0214515Y0194717D01*
X0214515Y0193118D02*
X0191256Y0193118D01*
X0192855Y0191520D02*
X0214515Y0191520D01*
X0214515Y0189921D02*
X0193535Y0189921D01*
X0193535Y0188323D02*
X0214515Y0188323D01*
X0214515Y0186724D02*
X0193230Y0186724D01*
X0191631Y0185126D02*
X0214515Y0185126D01*
X0214515Y0183527D02*
X0186464Y0183527D01*
X0186464Y0181929D02*
X0214515Y0181929D01*
X0214515Y0180330D02*
X0186464Y0180330D01*
X0185237Y0178732D02*
X0214515Y0178732D01*
X0214515Y0177133D02*
X0178957Y0177133D01*
X0179393Y0175535D02*
X0214515Y0175535D01*
X0214515Y0173936D02*
X0179393Y0173936D01*
X0178843Y0172338D02*
X0214515Y0172338D01*
X0214515Y0170739D02*
X0177245Y0170739D01*
X0173101Y0169141D02*
X0214515Y0169141D01*
X0214515Y0167542D02*
X0172322Y0167542D01*
X0172322Y0165944D02*
X0214515Y0165944D01*
X0214515Y0164345D02*
X0170851Y0164345D01*
X0165060Y0162747D02*
X0214515Y0162747D01*
X0214515Y0161148D02*
X0165250Y0161148D01*
X0165250Y0159550D02*
X0214515Y0159550D01*
X0214515Y0157951D02*
X0164457Y0157951D01*
X0163315Y0156353D02*
X0214515Y0156353D01*
X0214515Y0154754D02*
X0163315Y0154754D01*
X0163315Y0153156D02*
X0214515Y0153156D01*
X0214515Y0151557D02*
X0163315Y0151557D01*
X0163315Y0149959D02*
X0214515Y0149959D01*
X0214515Y0145163D02*
X0211957Y0145163D01*
X0213555Y0143565D02*
X0214515Y0143565D01*
X0197710Y0125981D02*
X0195447Y0125981D01*
X0196111Y0127579D02*
X0193849Y0127579D01*
X0194513Y0129178D02*
X0192250Y0129178D01*
X0197046Y0124382D02*
X0199308Y0124382D01*
X0198644Y0122784D02*
X0200907Y0122784D01*
X0200243Y0121185D02*
X0202505Y0121185D01*
X0201841Y0119587D02*
X0204104Y0119587D01*
X0203440Y0117988D02*
X0205702Y0117988D01*
X0205258Y0116390D02*
X0205038Y0116390D01*
X0220789Y0100405D02*
X0231983Y0100405D01*
X0230384Y0098806D02*
X0219191Y0098806D01*
X0217592Y0097208D02*
X0229769Y0097208D01*
X0226904Y0095609D02*
X0215994Y0095609D01*
X0214395Y0094011D02*
X0225306Y0094011D01*
X0224869Y0092412D02*
X0212797Y0092412D01*
X0211198Y0090814D02*
X0222392Y0090814D01*
X0220793Y0089215D02*
X0209600Y0089215D01*
X0208001Y0087617D02*
X0220293Y0087617D01*
X0217596Y0086018D02*
X0206403Y0086018D01*
X0201981Y0086018D02*
X0195840Y0086018D01*
X0197439Y0084420D02*
X0215998Y0084420D01*
X0215556Y0082821D02*
X0199037Y0082821D01*
X0200115Y0081223D02*
X0216986Y0081223D01*
X0218584Y0079624D02*
X0200115Y0079624D01*
X0201535Y0078026D02*
X0220066Y0078026D01*
X0218467Y0076427D02*
X0203133Y0076427D01*
X0204732Y0074829D02*
X0216869Y0074829D01*
X0215270Y0073230D02*
X0205123Y0073230D01*
X0203643Y0071632D02*
X0213672Y0071632D01*
X0212073Y0070033D02*
X0202045Y0070033D01*
X0213454Y0063639D02*
X0235431Y0063639D01*
X0233833Y0065238D02*
X0215197Y0065238D01*
X0216796Y0066836D02*
X0232234Y0066836D01*
X0230636Y0068435D02*
X0218394Y0068435D01*
X0219993Y0070033D02*
X0228175Y0070033D01*
X0226577Y0071632D02*
X0221591Y0071632D01*
X0223190Y0073230D02*
X0224978Y0073230D01*
X0234029Y0073230D02*
X0240935Y0073230D01*
X0241194Y0071632D02*
X0235358Y0071632D01*
X0236957Y0070033D02*
X0237738Y0070033D01*
X0240601Y0070033D02*
X0242793Y0070033D01*
X0243642Y0070033D02*
X0245834Y0070033D01*
X0245241Y0071632D02*
X0247432Y0071632D01*
X0247655Y0071632D02*
X0254927Y0071632D01*
X0254839Y0071544D02*
X0254602Y0071134D01*
X0254480Y0070676D01*
X0254480Y0070202D01*
X0254602Y0069744D01*
X0254839Y0069334D01*
X0256686Y0067487D01*
X0259917Y0070717D01*
X0261012Y0069622D01*
X0257782Y0066391D01*
X0259629Y0064545D01*
X0260039Y0064308D01*
X0260497Y0064185D01*
X0260971Y0064185D01*
X0261429Y0064308D01*
X0261839Y0064545D01*
X0263964Y0066670D01*
X0261012Y0069622D01*
X0262108Y0070717D01*
X0265060Y0067765D01*
X0267185Y0069891D01*
X0267422Y0070301D01*
X0267545Y0070759D01*
X0267545Y0071233D01*
X0267422Y0071691D01*
X0267185Y0072101D01*
X0265339Y0073948D01*
X0262108Y0070718D01*
X0261012Y0071813D01*
X0259917Y0070718D01*
X0256965Y0073670D01*
X0254839Y0071544D01*
X0254525Y0070033D02*
X0249253Y0070033D01*
X0249718Y0068435D02*
X0255739Y0068435D01*
X0257634Y0068435D02*
X0259825Y0068435D01*
X0259232Y0070033D02*
X0260601Y0070033D01*
X0261424Y0070033D02*
X0262793Y0070033D01*
X0263022Y0071632D02*
X0261194Y0071632D01*
X0261012Y0071813D02*
X0264243Y0075044D01*
X0262396Y0076890D01*
X0261986Y0077127D01*
X0261528Y0077250D01*
X0261054Y0077250D01*
X0260596Y0077127D01*
X0260186Y0076890D01*
X0258060Y0074765D01*
X0261012Y0071813D01*
X0260831Y0071632D02*
X0259003Y0071632D01*
X0259596Y0073230D02*
X0257404Y0073230D01*
X0256525Y0073230D02*
X0254652Y0073230D01*
X0256251Y0074829D02*
X0258124Y0074829D01*
X0257849Y0076427D02*
X0259722Y0076427D01*
X0259448Y0078026D02*
X0278287Y0078026D01*
X0278287Y0077134D02*
X0278410Y0076676D01*
X0278647Y0076266D01*
X0278982Y0075930D01*
X0279393Y0075694D01*
X0279850Y0075571D01*
X0280875Y0075571D01*
X0281899Y0075571D01*
X0282357Y0075694D01*
X0282767Y0075930D01*
X0283103Y0076266D01*
X0283340Y0076676D01*
X0283462Y0077134D01*
X0283462Y0079733D01*
X0280875Y0079733D01*
X0280875Y0079733D01*
X0283462Y0079733D01*
X0283462Y0082332D01*
X0283340Y0082790D01*
X0283103Y0083200D01*
X0282767Y0083536D01*
X0282357Y0083773D01*
X0281899Y0083895D01*
X0280875Y0083895D01*
X0280875Y0079733D01*
X0280875Y0075571D01*
X0280875Y0079733D01*
X0280875Y0079733D01*
X0280875Y0079733D01*
X0278287Y0079733D01*
X0278287Y0077134D01*
X0278554Y0076427D02*
X0262859Y0076427D01*
X0264028Y0074829D02*
X0282000Y0074829D01*
X0280875Y0076427D02*
X0280875Y0076427D01*
X0280875Y0078026D02*
X0280875Y0078026D01*
X0280875Y0079624D02*
X0280875Y0079624D01*
X0280875Y0079733D02*
X0280875Y0079733D01*
X0280875Y0083895D01*
X0279850Y0083895D01*
X0279393Y0083773D01*
X0278982Y0083536D01*
X0278647Y0083200D01*
X0278410Y0082790D01*
X0278287Y0082332D01*
X0278287Y0079733D01*
X0280875Y0079733D01*
X0280875Y0081223D02*
X0280875Y0081223D01*
X0280875Y0082821D02*
X0280875Y0082821D01*
X0283322Y0082821D02*
X0286031Y0082821D01*
X0285968Y0081223D02*
X0283462Y0081223D01*
X0283462Y0079624D02*
X0285968Y0079624D01*
X0285197Y0078026D02*
X0283462Y0078026D01*
X0283599Y0076427D02*
X0283196Y0076427D01*
X0280402Y0073230D02*
X0266056Y0073230D01*
X0264621Y0073230D02*
X0262429Y0073230D01*
X0262200Y0068435D02*
X0264391Y0068435D01*
X0265729Y0068435D02*
X0275606Y0068435D01*
X0277205Y0070033D02*
X0267268Y0070033D01*
X0267438Y0071632D02*
X0278803Y0071632D01*
X0281263Y0068435D02*
X0281992Y0068435D01*
X0282115Y0066836D02*
X0279664Y0066836D01*
X0278066Y0065238D02*
X0282115Y0065238D01*
X0282115Y0063639D02*
X0276467Y0063639D01*
X0274869Y0062041D02*
X0282115Y0062041D01*
X0282628Y0060442D02*
X0273270Y0060442D01*
X0271672Y0058844D02*
X0284227Y0058844D01*
X0285825Y0057245D02*
X0270073Y0057245D01*
X0268475Y0055646D02*
X0287424Y0055646D01*
X0287515Y0054048D02*
X0267315Y0054048D01*
X0267315Y0052449D02*
X0287775Y0052449D01*
X0289374Y0050851D02*
X0267315Y0050851D01*
X0267315Y0049252D02*
X0311961Y0049252D01*
X0311961Y0047654D02*
X0267315Y0047654D01*
X0267315Y0046055D02*
X0311961Y0046055D01*
X0311961Y0044457D02*
X0267315Y0044457D01*
X0267315Y0042858D02*
X0311961Y0042858D01*
X0311961Y0041260D02*
X0267315Y0041260D01*
X0267315Y0039661D02*
X0311961Y0039661D01*
X0311961Y0038063D02*
X0267315Y0038063D01*
X0267315Y0036464D02*
X0311961Y0036464D01*
X0311961Y0034866D02*
X0267315Y0034866D01*
X0269963Y0033267D02*
X0291545Y0033267D01*
X0288918Y0031669D02*
X0269963Y0031669D01*
X0269963Y0030070D02*
X0287320Y0030070D01*
X0286134Y0028472D02*
X0269963Y0028472D01*
X0269963Y0026873D02*
X0285211Y0026873D01*
X0284664Y0025275D02*
X0269835Y0025275D01*
X0262105Y0023676D02*
X0284236Y0023676D01*
X0284106Y0022078D02*
X0242181Y0022078D01*
X0240582Y0023676D02*
X0248525Y0023676D01*
X0246927Y0025275D02*
X0244835Y0025275D01*
X0244963Y0026873D02*
X0245328Y0026873D01*
X0247791Y0033267D02*
X0249267Y0033267D01*
X0246192Y0034866D02*
X0263315Y0034866D01*
X0263315Y0036464D02*
X0244594Y0036464D01*
X0235636Y0036464D02*
X0081037Y0036464D01*
X0081036Y0036462D02*
X0081273Y0036873D01*
X0081395Y0037331D01*
X0081395Y0038355D01*
X0077233Y0038355D01*
X0077233Y0038355D01*
X0077233Y0035768D01*
X0074634Y0035768D01*
X0074176Y0035890D01*
X0073766Y0036127D01*
X0073430Y0036462D01*
X0073194Y0036873D01*
X0073071Y0037331D01*
X0073071Y0038355D01*
X0077233Y0038355D01*
X0077233Y0038355D01*
X0077233Y0035768D01*
X0079832Y0035768D01*
X0080290Y0035890D01*
X0080700Y0036127D01*
X0081036Y0036462D01*
X0081395Y0038063D02*
X0263315Y0038063D01*
X0263315Y0039661D02*
X0081320Y0039661D01*
X0081273Y0039837D02*
X0081036Y0040248D01*
X0080700Y0040583D01*
X0080290Y0040820D01*
X0079832Y0040943D01*
X0077233Y0040942D01*
X0077233Y0040943D02*
X0074634Y0040943D01*
X0074176Y0040820D01*
X0073766Y0040583D01*
X0073430Y0040248D01*
X0073194Y0039837D01*
X0073071Y0039379D01*
X0073071Y0038355D01*
X0077233Y0038355D01*
X0077233Y0038355D01*
X0077233Y0040943D01*
X0077233Y0040942D02*
X0077233Y0038355D01*
X0077233Y0038355D01*
X0081395Y0038355D01*
X0081395Y0039379D01*
X0081273Y0039837D01*
X0077233Y0039661D02*
X0077233Y0039661D01*
X0077233Y0038063D02*
X0077233Y0038063D01*
X0077233Y0036464D02*
X0077233Y0036464D01*
X0074592Y0034866D02*
X0225263Y0034866D01*
X0224067Y0033267D02*
X0076191Y0033267D01*
X0073429Y0036464D02*
X0072994Y0036464D01*
X0073071Y0038063D02*
X0071395Y0038063D01*
X0069797Y0039661D02*
X0073146Y0039661D01*
X0068198Y0041260D02*
X0263315Y0041260D01*
X0263315Y0042858D02*
X0066600Y0042858D01*
X0065001Y0044457D02*
X0263315Y0044457D01*
X0263315Y0046055D02*
X0063403Y0046055D01*
X0061804Y0047654D02*
X0263315Y0047654D01*
X0263315Y0049252D02*
X0060206Y0049252D01*
X0058607Y0050851D02*
X0263315Y0050851D01*
X0263315Y0052449D02*
X0057009Y0052449D01*
X0055410Y0054048D02*
X0263315Y0054048D01*
X0263315Y0055646D02*
X0252658Y0055646D01*
X0254257Y0057245D02*
X0264417Y0057245D01*
X0266015Y0058844D02*
X0255855Y0058844D01*
X0257345Y0060442D02*
X0267614Y0060442D01*
X0269212Y0062041D02*
X0256963Y0062041D01*
X0255365Y0063639D02*
X0270811Y0063639D01*
X0272409Y0065238D02*
X0262532Y0065238D01*
X0263798Y0066836D02*
X0274008Y0066836D01*
X0278287Y0079624D02*
X0259379Y0079624D01*
X0257781Y0081223D02*
X0278287Y0081223D01*
X0278428Y0082821D02*
X0256182Y0082821D01*
X0254584Y0084420D02*
X0311961Y0084420D01*
X0311961Y0086018D02*
X0249371Y0086018D01*
X0248242Y0087617D02*
X0311961Y0087617D01*
X0311961Y0089215D02*
X0250774Y0089215D01*
X0252373Y0090814D02*
X0311961Y0090814D01*
X0311961Y0092412D02*
X0252980Y0092412D01*
X0251715Y0094011D02*
X0311961Y0094011D01*
X0311961Y0095609D02*
X0250117Y0095609D01*
X0248518Y0097208D02*
X0311961Y0097208D01*
X0311961Y0098806D02*
X0246920Y0098806D01*
X0246515Y0100405D02*
X0311961Y0100405D01*
X0311961Y0102003D02*
X0246515Y0102003D01*
X0246515Y0103602D02*
X0311961Y0103602D01*
X0311961Y0105200D02*
X0246515Y0105200D01*
X0246515Y0106799D02*
X0311961Y0106799D01*
X0311961Y0108397D02*
X0246515Y0108397D01*
X0246515Y0109996D02*
X0311961Y0109996D01*
X0311961Y0111594D02*
X0246515Y0111594D01*
X0246515Y0113193D02*
X0311961Y0113193D01*
X0311961Y0114791D02*
X0246300Y0114791D01*
X0245000Y0116390D02*
X0311961Y0116390D01*
X0311961Y0117988D02*
X0243401Y0117988D01*
X0228098Y0094011D02*
X0227815Y0094011D01*
X0229413Y0092412D02*
X0229696Y0092412D01*
X0231012Y0090814D02*
X0231295Y0090814D01*
X0232610Y0089215D02*
X0232893Y0089215D01*
X0234327Y0087617D02*
X0234492Y0087617D01*
X0235807Y0086018D02*
X0236090Y0086018D01*
X0237406Y0084420D02*
X0237689Y0084420D01*
X0239005Y0082821D02*
X0239287Y0082821D01*
X0240603Y0081223D02*
X0240886Y0081223D01*
X0241466Y0079624D02*
X0247612Y0079624D01*
X0246885Y0078026D02*
X0238767Y0078026D01*
X0237986Y0076427D02*
X0248029Y0076427D01*
X0249628Y0074829D02*
X0244353Y0074829D01*
X0242639Y0074829D02*
X0236388Y0074829D01*
X0243065Y0081223D02*
X0246247Y0081223D01*
X0244649Y0082821D02*
X0243705Y0082821D01*
X0250970Y0084420D02*
X0252408Y0084420D01*
X0251226Y0073230D02*
X0246056Y0073230D01*
X0244391Y0068435D02*
X0244236Y0068435D01*
X0243798Y0066836D02*
X0245990Y0066836D01*
X0245397Y0065238D02*
X0248815Y0065238D01*
X0248541Y0066836D02*
X0250414Y0066836D01*
X0252168Y0066836D02*
X0258227Y0066836D01*
X0258936Y0065238D02*
X0253766Y0065238D01*
X0247211Y0057245D02*
X0052213Y0057245D01*
X0050615Y0058844D02*
X0240227Y0058844D01*
X0238628Y0060442D02*
X0049016Y0060442D01*
X0053812Y0055646D02*
X0248810Y0055646D01*
X0237030Y0062041D02*
X0034764Y0062041D01*
X0024266Y0092412D02*
X0008515Y0092412D01*
X0008515Y0094011D02*
X0024266Y0094011D01*
X0028840Y0097208D02*
X0030390Y0097208D01*
X0030390Y0098806D02*
X0028840Y0098806D01*
X0034909Y0098806D02*
X0080115Y0098806D01*
X0080115Y0097208D02*
X0034964Y0097208D01*
X0083471Y0119587D02*
X0090648Y0119587D01*
X0089050Y0117988D02*
X0085070Y0117988D01*
X0086668Y0116390D02*
X0087451Y0116390D01*
X0019070Y0178732D02*
X0017737Y0178732D01*
X0047583Y0239475D02*
X0048326Y0239475D01*
X0046728Y0241074D02*
X0045985Y0241074D01*
X0044798Y0242672D02*
X0044386Y0242672D01*
X0044315Y0244271D02*
X0042788Y0244271D01*
X0044596Y0245869D02*
X0040942Y0245869D01*
X0040942Y0246997D02*
X0038355Y0246997D01*
X0040943Y0246997D01*
X0040943Y0247468D02*
X0045959Y0247468D01*
X0047795Y0249066D02*
X0040943Y0249066D01*
X0040382Y0250665D02*
X0049152Y0250665D01*
X0052678Y0250665D02*
X0053108Y0250665D01*
X0054774Y0245869D02*
X0056965Y0245869D01*
X0055367Y0244271D02*
X0052915Y0244271D01*
X0053186Y0242672D02*
X0056763Y0242672D01*
X0038355Y0246997D02*
X0038355Y0246997D01*
X0038355Y0247468D02*
X0038355Y0247468D01*
X0038355Y0249066D02*
X0038355Y0249066D01*
X0038355Y0250665D02*
X0038355Y0250665D01*
X0036328Y0250665D02*
X0035893Y0250665D01*
X0035768Y0249066D02*
X0034295Y0249066D01*
X0033262Y0247468D02*
X0035768Y0247468D01*
X0035768Y0245869D02*
X0033262Y0245869D01*
X0053315Y0274643D02*
X0067715Y0274643D01*
X0068613Y0276241D02*
X0053315Y0276241D01*
X0053315Y0277840D02*
X0070211Y0277840D01*
X0071810Y0279438D02*
X0053315Y0279438D01*
X0053315Y0281037D02*
X0073408Y0281037D01*
X0075007Y0282635D02*
X0067064Y0282635D01*
X0068662Y0284234D02*
X0076605Y0284234D01*
X0074267Y0285832D02*
X0070261Y0285832D01*
X0067463Y0288691D02*
X0067463Y0293827D01*
X0066526Y0294764D01*
X0066393Y0294764D01*
X0072143Y0300515D01*
X0073285Y0301657D01*
X0075127Y0299815D01*
X0076915Y0299815D01*
X0076915Y0304415D01*
X0077315Y0304415D01*
X0077315Y0304815D01*
X0081915Y0304815D01*
X0081915Y0306287D01*
X0090087Y0298115D01*
X0124110Y0298115D01*
X0122515Y0296520D01*
X0122515Y0296515D01*
X0115323Y0296515D01*
X0114441Y0297397D01*
X0113191Y0297915D01*
X0111839Y0297915D01*
X0110589Y0297397D01*
X0109633Y0296441D01*
X0109115Y0295191D01*
X0109115Y0293839D01*
X0109633Y0292589D01*
X0110589Y0291633D01*
X0111839Y0291115D01*
X0113191Y0291115D01*
X0114441Y0291633D01*
X0115323Y0292515D01*
X0122710Y0292515D01*
X0125210Y0290015D01*
X0129020Y0290015D01*
X0131715Y0292710D01*
X0131715Y0296520D01*
X0130120Y0298115D01*
X0134110Y0298115D01*
X0132515Y0296520D01*
X0132515Y0292943D01*
X0126087Y0286515D01*
X0095163Y0286515D01*
X0095163Y0288840D01*
X0090988Y0288840D01*
X0090988Y0290390D01*
X0089439Y0290390D01*
X0089439Y0294964D01*
X0086827Y0294964D01*
X0086369Y0294841D01*
X0085959Y0294605D01*
X0085623Y0294269D01*
X0085386Y0293859D01*
X0085264Y0293401D01*
X0085264Y0290390D01*
X0089438Y0290390D01*
X0089438Y0288840D01*
X0085264Y0288840D01*
X0085264Y0286515D01*
X0083766Y0286515D01*
X0083766Y0293827D01*
X0082829Y0294764D01*
X0075204Y0294764D01*
X0074267Y0293827D01*
X0074267Y0291315D01*
X0070087Y0291315D01*
X0067463Y0288691D01*
X0067463Y0289029D02*
X0067801Y0289029D01*
X0067463Y0290628D02*
X0069399Y0290628D01*
X0067463Y0292226D02*
X0074267Y0292226D01*
X0074267Y0293825D02*
X0067463Y0293825D01*
X0067052Y0295423D02*
X0109211Y0295423D01*
X0109121Y0293825D02*
X0095050Y0293825D01*
X0095040Y0293859D02*
X0094803Y0294269D01*
X0094468Y0294605D01*
X0094058Y0294841D01*
X0093600Y0294964D01*
X0090988Y0294964D01*
X0090988Y0290390D01*
X0095163Y0290390D01*
X0095163Y0293401D01*
X0095040Y0293859D01*
X0095163Y0292226D02*
X0109995Y0292226D01*
X0110213Y0297022D02*
X0068650Y0297022D01*
X0070249Y0298620D02*
X0089581Y0298620D01*
X0087983Y0300219D02*
X0079507Y0300219D01*
X0079103Y0299815D02*
X0081915Y0302627D01*
X0081915Y0304415D01*
X0077315Y0304415D01*
X0077315Y0299815D01*
X0079103Y0299815D01*
X0077315Y0300219D02*
X0076915Y0300219D01*
X0076915Y0301817D02*
X0077315Y0301817D01*
X0077315Y0303416D02*
X0076915Y0303416D01*
X0074723Y0300219D02*
X0071847Y0300219D01*
X0081105Y0301817D02*
X0086384Y0301817D01*
X0084786Y0303416D02*
X0081915Y0303416D01*
X0081915Y0305014D02*
X0083187Y0305014D01*
X0083766Y0293825D02*
X0085377Y0293825D01*
X0085264Y0292226D02*
X0083766Y0292226D01*
X0083766Y0290628D02*
X0085264Y0290628D01*
X0083766Y0289029D02*
X0089438Y0289029D01*
X0090988Y0289029D02*
X0128601Y0289029D01*
X0129633Y0290628D02*
X0130199Y0290628D01*
X0131232Y0292226D02*
X0131798Y0292226D01*
X0131715Y0293825D02*
X0132515Y0293825D01*
X0132515Y0295423D02*
X0131715Y0295423D01*
X0131214Y0297022D02*
X0133016Y0297022D01*
X0124597Y0290628D02*
X0095163Y0290628D01*
X0095163Y0287431D02*
X0127002Y0287431D01*
X0122998Y0292226D02*
X0115034Y0292226D01*
X0114817Y0297022D02*
X0123016Y0297022D01*
X0090988Y0293825D02*
X0089439Y0293825D01*
X0089439Y0292226D02*
X0090988Y0292226D01*
X0090988Y0290628D02*
X0089439Y0290628D01*
X0085264Y0287431D02*
X0083766Y0287431D01*
X0080283Y0277840D02*
X0075868Y0277840D01*
X0074269Y0276241D02*
X0078684Y0276241D01*
X0079688Y0276241D02*
X0081879Y0276241D01*
X0077193Y0274643D02*
X0072671Y0274643D01*
X0079903Y0268248D02*
X0081776Y0268248D01*
X0159633Y0290628D02*
X0164597Y0290628D01*
X0162998Y0292226D02*
X0161232Y0292226D01*
X0161715Y0293825D02*
X0162515Y0293825D01*
X0162515Y0295423D02*
X0161715Y0295423D01*
X0164440Y0300219D02*
X0165006Y0300219D01*
X0165210Y0300015D02*
X0169020Y0300015D01*
X0171715Y0302710D01*
X0171715Y0306520D01*
X0169020Y0309215D01*
X0165210Y0309215D01*
X0162515Y0306520D01*
X0162515Y0302710D01*
X0165210Y0300015D01*
X0163407Y0301817D02*
X0160823Y0301817D01*
X0161715Y0303416D02*
X0162515Y0303416D01*
X0162515Y0305014D02*
X0161715Y0305014D01*
X0161623Y0306613D02*
X0162607Y0306613D01*
X0164206Y0308211D02*
X0160024Y0308211D01*
X0170024Y0308211D02*
X0173923Y0308211D01*
X0172325Y0306613D02*
X0171623Y0306613D01*
X0171715Y0305014D02*
X0172315Y0305014D01*
X0172315Y0304415D02*
X0172315Y0302627D01*
X0175127Y0299815D01*
X0176915Y0299815D01*
X0176915Y0304415D01*
X0172315Y0304415D01*
X0172315Y0303416D02*
X0171715Y0303416D01*
X0170823Y0301817D02*
X0173124Y0301817D01*
X0174723Y0300219D02*
X0169224Y0300219D01*
X0169615Y0298620D02*
X0174332Y0298620D01*
X0172733Y0297022D02*
X0171214Y0297022D01*
X0171715Y0295423D02*
X0172315Y0295423D01*
X0172315Y0294415D02*
X0172315Y0292627D01*
X0175127Y0289815D01*
X0176915Y0289815D01*
X0176915Y0294415D01*
X0172315Y0294415D01*
X0172315Y0293825D02*
X0171715Y0293825D01*
X0171232Y0292226D02*
X0172716Y0292226D01*
X0174314Y0290628D02*
X0169633Y0290628D01*
X0176915Y0290628D02*
X0177315Y0290628D01*
X0177315Y0292226D02*
X0176915Y0292226D01*
X0176915Y0293825D02*
X0177315Y0293825D01*
X0177315Y0295423D02*
X0176915Y0295423D01*
X0176915Y0297022D02*
X0177315Y0297022D01*
X0177315Y0298620D02*
X0176915Y0298620D01*
X0176915Y0300219D02*
X0177315Y0300219D01*
X0177315Y0301817D02*
X0176915Y0301817D01*
X0176915Y0303416D02*
X0177315Y0303416D01*
X0177315Y0305014D02*
X0176915Y0305014D01*
X0176915Y0306613D02*
X0177315Y0306613D01*
X0177315Y0308211D02*
X0176915Y0308211D01*
X0180307Y0308211D02*
X0184206Y0308211D01*
X0182607Y0306613D02*
X0181905Y0306613D01*
X0181915Y0305014D02*
X0182515Y0305014D01*
X0182515Y0303416D02*
X0181915Y0303416D01*
X0181105Y0301817D02*
X0183407Y0301817D01*
X0209224Y0300219D02*
X0211459Y0300219D01*
X0210529Y0299289D02*
X0210529Y0299289D01*
X0209860Y0298620D02*
X0209615Y0298620D01*
X0210823Y0301817D02*
X0213057Y0301817D01*
X0212515Y0303416D02*
X0211715Y0303416D01*
X0211715Y0305014D02*
X0212515Y0305014D01*
X0212607Y0306613D02*
X0211623Y0306613D01*
X0210024Y0308211D02*
X0214206Y0308211D01*
X0220823Y0301817D02*
X0242053Y0301817D01*
X0245959Y0297022D02*
X0246848Y0297022D01*
X0241997Y0277840D02*
X0241997Y0277840D01*
X0241997Y0276241D02*
X0241997Y0276241D01*
X0241997Y0274643D02*
X0241997Y0274643D01*
X0304415Y0244271D02*
X0304815Y0244271D01*
X0304815Y0242672D02*
X0304415Y0242672D01*
X0304415Y0241074D02*
X0304815Y0241074D01*
X0304815Y0237877D02*
X0304415Y0237877D01*
X0304415Y0236278D02*
X0304815Y0236278D01*
X0309415Y0241074D02*
X0311961Y0241074D01*
X0311961Y0242672D02*
X0308346Y0242672D01*
X0306747Y0244271D02*
X0311961Y0244271D01*
X0311961Y0245869D02*
X0307375Y0245869D01*
X0308973Y0247468D02*
X0311961Y0247468D01*
X0311961Y0249066D02*
X0309215Y0249066D01*
X0309215Y0250665D02*
X0311961Y0250665D01*
X0311961Y0252263D02*
X0310223Y0252263D01*
X0311822Y0253862D02*
X0311961Y0253862D01*
X0186238Y0185126D02*
X0185107Y0185126D01*
X0184640Y0186724D02*
X0183484Y0186724D01*
X0177264Y0180330D02*
X0177090Y0180330D01*
X0177359Y0178732D02*
X0178490Y0178732D01*
X0164592Y0164345D02*
X0163715Y0164345D01*
X0174567Y0103602D02*
X0184397Y0103602D01*
X0185996Y0102003D02*
X0176165Y0102003D01*
X0183052Y0098806D02*
X0189938Y0098806D01*
X0190792Y0097208D02*
X0184651Y0097208D01*
X0186249Y0095609D02*
X0192390Y0095609D01*
X0193989Y0094011D02*
X0187848Y0094011D01*
X0189446Y0092412D02*
X0195587Y0092412D01*
X0197186Y0090814D02*
X0191045Y0090814D01*
X0192643Y0089215D02*
X0198784Y0089215D01*
X0200383Y0087617D02*
X0194242Y0087617D01*
X0189006Y0086018D02*
X0184755Y0086018D01*
X0185070Y0087617D02*
X0183157Y0087617D01*
X0183471Y0089215D02*
X0182415Y0089215D01*
X0186582Y0087617D02*
X0188585Y0087617D01*
X0187408Y0084420D02*
X0183385Y0084420D01*
X0180589Y0084420D02*
X0178570Y0084420D01*
X0179218Y0086018D02*
X0176972Y0086018D01*
X0228242Y0034866D02*
X0229791Y0034866D01*
X0229791Y0033267D02*
X0228242Y0033267D01*
X0228242Y0031669D02*
X0229791Y0031669D01*
X0228242Y0030070D02*
X0081195Y0030070D01*
X0081195Y0031669D02*
X0224067Y0031669D01*
X0224067Y0028840D02*
X0224067Y0025829D01*
X0224190Y0025371D01*
X0224427Y0024961D01*
X0224762Y0024625D01*
X0225172Y0024388D01*
X0225630Y0024266D01*
X0228242Y0024266D01*
X0228242Y0028840D01*
X0224067Y0028840D01*
X0224067Y0028472D02*
X0066118Y0028472D01*
X0064519Y0030070D02*
X0073271Y0030070D01*
X0072133Y0031669D02*
X0065629Y0031669D01*
X0067716Y0026873D02*
X0224067Y0026873D01*
X0224245Y0025275D02*
X0069315Y0025275D01*
X0070913Y0023676D02*
X0234925Y0023676D01*
X0236524Y0022078D02*
X0081195Y0022078D01*
X0081195Y0020479D02*
X0238122Y0020479D01*
X0236603Y0019415D02*
X0234815Y0019415D01*
X0234815Y0014815D01*
X0239415Y0014815D01*
X0239415Y0016603D01*
X0236603Y0019415D01*
X0237137Y0018881D02*
X0239721Y0018881D01*
X0238736Y0017282D02*
X0240777Y0017282D01*
X0240015Y0015684D02*
X0239415Y0015684D01*
X0239415Y0014085D02*
X0240015Y0014085D01*
X0234815Y0015684D02*
X0234415Y0015684D01*
X0234415Y0017282D02*
X0234815Y0017282D01*
X0234815Y0018881D02*
X0234415Y0018881D01*
X0232093Y0018881D02*
X0080671Y0018881D01*
X0080337Y0015684D02*
X0229815Y0015684D01*
X0229815Y0014085D02*
X0081195Y0014085D01*
X0081195Y0012487D02*
X0229955Y0012487D01*
X0230494Y0017282D02*
X0077307Y0017282D01*
X0073271Y0022078D02*
X0072512Y0022078D01*
X0228242Y0025275D02*
X0229791Y0025275D01*
X0229791Y0026873D02*
X0228242Y0026873D01*
X0228242Y0028472D02*
X0229791Y0028472D01*
X0232770Y0034866D02*
X0234037Y0034866D01*
X0251779Y0020479D02*
X0284106Y0020479D01*
X0284347Y0018881D02*
X0258612Y0018881D01*
X0259215Y0017282D02*
X0284775Y0017282D01*
X0285449Y0015684D02*
X0259215Y0015684D01*
X0259215Y0014085D02*
X0286372Y0014085D01*
X0287733Y0012487D02*
X0259215Y0012487D01*
X0259151Y0010888D02*
X0289491Y0010888D01*
X0292480Y0009290D02*
X0243249Y0009290D01*
X0241651Y0007691D02*
X0298047Y0007691D01*
X0310999Y0020479D02*
X0311961Y0020479D01*
X0311961Y0022078D02*
X0310045Y0022078D01*
X0309915Y0023676D02*
X0311961Y0023676D01*
X0311961Y0025275D02*
X0309487Y0025275D01*
X0308940Y0026873D02*
X0311961Y0026873D01*
X0311961Y0028472D02*
X0308017Y0028472D01*
X0306832Y0030070D02*
X0311961Y0030070D01*
X0311961Y0031669D02*
X0305233Y0031669D01*
X0302607Y0033267D02*
X0311961Y0033267D01*
X0311961Y0050851D02*
X0306614Y0050851D01*
X0306715Y0052449D02*
X0311961Y0052449D01*
X0311961Y0054048D02*
X0306715Y0054048D01*
X0306715Y0055646D02*
X0311961Y0055646D01*
X0311961Y0057245D02*
X0306715Y0057245D01*
X0306149Y0058844D02*
X0311961Y0058844D01*
X0311961Y0060442D02*
X0304915Y0060442D01*
X0304915Y0062041D02*
X0311961Y0062041D01*
X0311961Y0063639D02*
X0304915Y0063639D01*
X0304915Y0065238D02*
X0311961Y0065238D01*
X0311961Y0066836D02*
X0304915Y0066836D01*
X0304915Y0068435D02*
X0311961Y0068435D01*
X0311961Y0070033D02*
X0304915Y0070033D01*
X0304502Y0071632D02*
X0311961Y0071632D01*
X0311961Y0073230D02*
X0303794Y0073230D01*
X0303588Y0074829D02*
X0311961Y0074829D01*
X0311961Y0076427D02*
X0307962Y0076427D01*
X0308243Y0078026D02*
X0311961Y0078026D01*
X0311961Y0079624D02*
X0308692Y0079624D01*
X0308243Y0081223D02*
X0311961Y0081223D01*
X0311961Y0082821D02*
X0308179Y0082821D01*
X0303531Y0082821D02*
X0300699Y0082821D01*
X0300762Y0081223D02*
X0302063Y0081223D01*
X0295987Y0081223D02*
X0290743Y0081223D01*
X0290743Y0079624D02*
X0295987Y0079624D01*
X0295987Y0078026D02*
X0290743Y0078026D01*
X0290462Y0076427D02*
X0296268Y0076427D01*
X0295669Y0074829D02*
X0287657Y0074829D01*
X0286294Y0073230D02*
X0294070Y0073230D01*
X0298793Y0070033D02*
X0299315Y0070033D01*
X0299315Y0068435D02*
X0297194Y0068435D01*
X0295447Y0066836D02*
X0299315Y0066836D01*
X0299315Y0065238D02*
X0287715Y0065238D01*
X0287715Y0063639D02*
X0299315Y0063639D01*
X0299315Y0062041D02*
X0288949Y0062041D01*
X0290548Y0060442D02*
X0299315Y0060442D01*
X0298081Y0058844D02*
X0294392Y0058844D01*
X0295990Y0057245D02*
X0297515Y0057245D01*
X0297515Y0055646D02*
X0296715Y0055646D01*
X0296715Y0054048D02*
X0297515Y0054048D01*
X0297515Y0052449D02*
X0296455Y0052449D01*
X0297616Y0050851D02*
X0294856Y0050851D01*
X0296051Y0082821D02*
X0290679Y0082821D01*
X0260464Y0033267D02*
X0258766Y0033267D01*
X0258766Y0031669D02*
X0260464Y0031669D01*
X0260464Y0030070D02*
X0258766Y0030070D01*
X0258766Y0028472D02*
X0260464Y0028472D01*
X0259645Y0026873D02*
X0258766Y0026873D01*
X0250015Y0015684D02*
X0249215Y0015684D01*
X0249215Y0014085D02*
X0250015Y0014085D01*
X0250015Y0012487D02*
X0248992Y0012487D01*
X0250079Y0010888D02*
X0247394Y0010888D01*
D28*
X0254615Y0014615D02*
X0254515Y0014915D01*
X0250515Y0018915D01*
X0242515Y0018915D01*
X0235715Y0025715D01*
X0235715Y0033715D01*
X0236515Y0034515D01*
X0243715Y0034515D01*
X0248515Y0029715D01*
X0253715Y0029715D01*
X0254017Y0029615D01*
X0250515Y0024515D02*
X0260115Y0024515D01*
X0264915Y0029315D01*
X0265213Y0029615D01*
X0265315Y0029715D01*
X0265315Y0055315D01*
X0288115Y0078115D01*
X0288115Y0079715D01*
X0288355Y0079733D01*
X0245715Y0029315D02*
X0240515Y0029315D01*
X0240213Y0029615D01*
X0245715Y0029315D02*
X0250515Y0024515D01*
X0198512Y0073218D02*
X0198115Y0073315D01*
X0198115Y0080915D01*
X0179715Y0099315D01*
X0172515Y0099315D01*
X0172243Y0099487D01*
X0130915Y0109315D02*
X0130915Y0127715D01*
X0128115Y0130515D01*
X0128115Y0138915D01*
X0137715Y0148515D01*
X0130515Y0148115D02*
X0192915Y0210515D01*
X0192915Y0300515D01*
X0196915Y0304515D01*
X0197115Y0304615D01*
X0197115Y0294615D02*
X0196915Y0294515D01*
X0196915Y0286515D01*
X0186915Y0282515D02*
X0186915Y0294515D01*
X0187115Y0294615D01*
X0186915Y0282515D02*
X0148915Y0244515D01*
X0114515Y0244515D01*
X0092115Y0222115D01*
X0092115Y0211715D01*
X0094515Y0209315D01*
X0094537Y0209098D01*
X0096515Y0210515D02*
X0096346Y0210907D01*
X0096515Y0210515D02*
X0097315Y0210515D01*
X0104115Y0203715D01*
X0119715Y0203715D01*
X0122915Y0206915D02*
X0123315Y0206515D01*
X0122915Y0206915D02*
X0103715Y0206915D01*
X0101315Y0209315D01*
X0101315Y0209715D01*
X0098515Y0212515D01*
X0098156Y0212717D01*
X0099966Y0214526D02*
X0099715Y0214915D01*
X0099715Y0215715D01*
X0097315Y0218115D01*
X0097315Y0224915D01*
X0113315Y0240915D01*
X0136115Y0240915D01*
X0136115Y0216915D01*
X0134115Y0213715D02*
X0180115Y0213715D01*
X0158915Y0183715D02*
X0158915Y0178915D01*
X0139715Y0159715D01*
X0133715Y0159715D01*
X0133373Y0159621D01*
X0126515Y0152915D02*
X0126302Y0152550D01*
X0126515Y0152915D02*
X0126515Y0207715D01*
X0124515Y0209715D01*
X0123715Y0209715D01*
X0110115Y0223315D01*
X0109315Y0223315D01*
X0109013Y0223574D01*
X0107315Y0221715D02*
X0107204Y0221764D01*
X0107315Y0221715D02*
X0107315Y0220915D01*
X0110915Y0217315D01*
X0110915Y0216915D01*
X0107715Y0216915D02*
X0107715Y0213715D01*
X0107715Y0216915D02*
X0105715Y0218915D01*
X0105715Y0219715D01*
X0105394Y0219955D01*
X0103315Y0219315D02*
X0100515Y0222115D01*
X0100515Y0223715D01*
X0103315Y0219315D02*
X0103315Y0218515D01*
X0103585Y0218145D01*
X0102115Y0216115D02*
X0101775Y0216336D01*
X0102115Y0216115D02*
X0102115Y0215315D01*
X0104515Y0212915D01*
X0104515Y0210515D01*
X0110915Y0225315D02*
X0110823Y0225383D01*
X0110915Y0225315D02*
X0124915Y0211315D01*
X0125315Y0211315D01*
X0139315Y0197315D01*
X0139315Y0195315D01*
X0154515Y0184515D02*
X0154515Y0180915D01*
X0154586Y0180835D01*
X0154515Y0184515D02*
X0112915Y0226115D01*
X0112915Y0226915D01*
X0112632Y0227193D01*
X0114515Y0228115D02*
X0158915Y0183715D01*
X0134115Y0213715D02*
X0117315Y0230515D01*
X0116515Y0230515D01*
X0116251Y0230812D01*
X0118115Y0232515D02*
X0118061Y0232622D01*
X0118115Y0232515D02*
X0118915Y0232515D01*
X0121315Y0230115D01*
X0122115Y0230115D01*
X0125315Y0233315D01*
X0136115Y0240915D02*
X0142515Y0240915D01*
X0129715Y0251715D02*
X0129715Y0278515D01*
X0142915Y0291715D01*
X0142915Y0296515D01*
X0145315Y0298915D01*
X0162915Y0298915D01*
X0166915Y0294915D01*
X0167115Y0294615D01*
X0157115Y0294615D02*
X0156915Y0294515D01*
X0156915Y0261715D01*
X0153315Y0258115D02*
X0153315Y0288515D01*
X0147315Y0294515D01*
X0147115Y0294615D01*
X0141315Y0296515D02*
X0141315Y0292515D01*
X0125315Y0276515D01*
X0125315Y0251715D01*
X0108115Y0258115D02*
X0108218Y0258512D01*
X0108115Y0258115D02*
X0107715Y0257715D01*
X0097315Y0257715D01*
X0096931Y0257370D01*
X0089693Y0250132D02*
X0089315Y0250515D01*
X0088515Y0250515D01*
X0086515Y0252515D01*
X0080915Y0252515D01*
X0078115Y0246915D02*
X0077715Y0246915D01*
X0078115Y0246915D02*
X0082115Y0242915D01*
X0082455Y0242894D01*
X0081715Y0240915D02*
X0084115Y0238515D01*
X0088515Y0238515D01*
X0089715Y0235315D02*
X0091715Y0237315D01*
X0091715Y0240515D01*
X0086115Y0246115D01*
X0086074Y0246513D01*
X0084115Y0244915D02*
X0084264Y0244704D01*
X0084115Y0244915D02*
X0069715Y0259315D01*
X0069715Y0274515D01*
X0079715Y0284515D01*
X0126915Y0284515D01*
X0136915Y0294515D01*
X0137115Y0294615D01*
X0141315Y0296515D02*
X0137715Y0300115D01*
X0090915Y0300115D01*
X0082115Y0308915D01*
X0071315Y0308915D01*
X0071315Y0302515D01*
X0062915Y0294115D01*
X0062915Y0289715D01*
X0062713Y0289615D01*
X0066115Y0284515D02*
X0051315Y0284515D01*
X0051315Y0268915D01*
X0030915Y0248515D01*
X0030915Y0247315D01*
X0030875Y0246997D01*
X0040915Y0243315D02*
X0012115Y0243315D01*
X0010915Y0244515D01*
X0010915Y0272115D01*
X0023315Y0284515D01*
X0026915Y0284515D01*
X0054515Y0312115D01*
X0149715Y0312115D01*
X0156915Y0304915D01*
X0157115Y0304615D01*
X0127115Y0294615D02*
X0126915Y0294515D01*
X0112515Y0294515D01*
X0079017Y0289615D02*
X0078915Y0289315D01*
X0070915Y0289315D01*
X0066115Y0284515D01*
X0051315Y0284515D02*
X0051315Y0289315D01*
X0051517Y0289615D01*
X0057115Y0304615D02*
X0057315Y0304915D01*
X0061315Y0308915D01*
X0071315Y0308915D01*
X0066515Y0269315D02*
X0058115Y0260915D01*
X0058115Y0255315D01*
X0065315Y0248115D01*
X0065315Y0246115D01*
X0069715Y0246115D02*
X0059715Y0256115D01*
X0059715Y0258115D01*
X0064915Y0263315D01*
X0066012Y0256012D02*
X0066115Y0255715D01*
X0066115Y0252915D01*
X0078515Y0240515D01*
X0078515Y0239315D01*
X0078836Y0239275D01*
X0080645Y0241085D02*
X0080915Y0240915D01*
X0081715Y0240915D01*
X0084115Y0235315D02*
X0089715Y0235315D01*
X0098915Y0237315D02*
X0088115Y0248115D01*
X0087883Y0248323D01*
X0075217Y0235656D02*
X0075315Y0235315D01*
X0078915Y0231715D01*
X0078915Y0230515D01*
X0073407Y0233846D02*
X0073315Y0234115D01*
X0069715Y0237715D01*
X0069715Y0246115D01*
X0066515Y0236915D02*
X0071315Y0232115D01*
X0071598Y0232037D01*
X0070115Y0230115D02*
X0070115Y0229315D01*
X0072115Y0227315D01*
X0072115Y0209315D01*
X0039715Y0176915D01*
X0039615Y0176517D01*
X0039315Y0176915D01*
X0034115Y0182115D01*
X0024615Y0182115D01*
X0022915Y0177715D02*
X0020115Y0180515D01*
X0020115Y0207315D01*
X0024915Y0212115D01*
X0025213Y0212115D01*
X0025315Y0212115D01*
X0028515Y0215315D01*
X0061715Y0215315D01*
X0070515Y0224115D01*
X0070515Y0225715D01*
X0068115Y0228115D01*
X0067979Y0228418D01*
X0066115Y0226915D02*
X0066169Y0226608D01*
X0066115Y0226915D02*
X0050915Y0242115D01*
X0050915Y0247715D01*
X0047715Y0244515D02*
X0047715Y0242915D01*
X0051715Y0238915D01*
X0051715Y0236915D01*
X0042915Y0228115D02*
X0018915Y0228115D01*
X0006515Y0215715D01*
X0006515Y0088915D01*
X0033315Y0088915D01*
X0034515Y0087715D01*
X0034515Y0080515D01*
X0029715Y0075715D01*
X0029715Y0070515D01*
X0029615Y0070213D01*
X0024515Y0073715D02*
X0024515Y0064115D01*
X0029315Y0059315D01*
X0029615Y0059017D01*
X0029715Y0058915D01*
X0047715Y0058915D01*
X0075715Y0030915D01*
X0076915Y0030915D01*
X0077233Y0030875D01*
X0087715Y0069715D02*
X0091315Y0069715D01*
X0130915Y0109315D01*
X0115656Y0116074D02*
X0115315Y0115715D01*
X0114115Y0114515D01*
X0092115Y0114515D01*
X0091987Y0114487D01*
X0082243Y0104743D02*
X0082115Y0104515D01*
X0082115Y0084915D01*
X0080915Y0083715D01*
X0080656Y0083574D01*
X0080915Y0083315D01*
X0080915Y0076515D01*
X0087715Y0069715D01*
X0102544Y0096686D02*
X0102515Y0096915D01*
X0102515Y0097715D01*
X0028915Y0171315D01*
X0028915Y0174115D01*
X0025315Y0177715D01*
X0022915Y0177715D01*
X0010115Y0183715D02*
X0010115Y0146515D01*
X0014515Y0142115D01*
X0014615Y0142115D01*
X0014515Y0142115D02*
X0014515Y0132115D01*
X0014615Y0132115D01*
X0019315Y0147715D02*
X0014915Y0152115D01*
X0014615Y0152115D01*
X0019315Y0147715D02*
X0025315Y0147715D01*
X0033715Y0139315D01*
X0039315Y0139315D01*
X0039615Y0139017D01*
X0039715Y0138915D01*
X0050515Y0138915D01*
X0079715Y0176915D02*
X0124915Y0131715D01*
X0124915Y0125315D01*
X0125295Y0125295D01*
X0124515Y0148115D02*
X0130515Y0148115D01*
X0124515Y0148115D02*
X0116515Y0156115D01*
X0112915Y0156115D01*
X0082915Y0186115D01*
X0082915Y0204115D01*
X0084915Y0206115D01*
X0085715Y0206115D01*
X0088115Y0203715D01*
X0088915Y0203715D01*
X0089108Y0203669D01*
X0087299Y0201860D02*
X0087315Y0201715D01*
X0087315Y0184115D01*
X0110515Y0160915D01*
X0112915Y0160915D01*
X0118115Y0166115D01*
X0118115Y0199315D01*
X0114515Y0228115D02*
X0114515Y0228915D01*
X0114442Y0229002D01*
X0079715Y0201315D02*
X0079715Y0176915D01*
X0060515Y0210515D02*
X0045315Y0210515D01*
X0052515Y0218515D02*
X0022915Y0218515D01*
X0018515Y0214115D01*
X0018515Y0192115D01*
X0010115Y0183715D01*
X0038115Y0221715D02*
X0040115Y0223715D01*
X0047315Y0223715D01*
X0059315Y0224915D02*
X0040915Y0243315D01*
X0059315Y0224915D02*
X0064115Y0224915D01*
X0064360Y0224799D01*
X0069788Y0230227D02*
X0070115Y0230115D01*
X0006515Y0088915D02*
X0006515Y0072915D01*
X0014515Y0064915D01*
X0014615Y0064615D01*
X0024515Y0073715D02*
X0029315Y0078515D01*
X0029315Y0083715D01*
X0029615Y0084017D01*
X0241997Y0283355D02*
X0242115Y0283315D01*
X0243315Y0283315D01*
X0286115Y0240515D01*
X0289315Y0240515D01*
X0289615Y0240213D01*
X0289715Y0240515D01*
X0294515Y0245315D01*
X0294515Y0260115D01*
X0289715Y0264915D01*
X0289715Y0267315D01*
X0289615Y0267713D01*
X0284515Y0264115D02*
X0284515Y0271315D01*
X0285315Y0272115D01*
X0293715Y0272115D01*
X0304515Y0261315D01*
X0304515Y0259715D01*
X0304615Y0259615D01*
X0289315Y0259315D02*
X0289315Y0256915D01*
X0289615Y0256517D01*
X0289315Y0259315D02*
X0284515Y0264115D01*
M02*
